<?xml version="1.0" encoding="UTF-8"?>
<!DOCTYPE svg PUBLIC "-//W3C//DTD SVG 1.1//EN" "http://www.w3.org/Graphics/SVG/1.1/DTD/svg11.dtd">
<!-- Creator: CorelDRAW 2019 (64-Bit) -->
<svg xmlns="http://www.w3.org/2000/svg" xml:space="preserve" width="91.659mm" height="93.3165mm" version="1.1" style="shape-rendering:geometricPrecision; text-rendering:geometricPrecision; image-rendering:optimizeQuality; fill-rule:evenodd; clip-rule:evenodd"
viewBox="0 0 1974.72 2010.43"
 xmlns:xlink="http://www.w3.org/1999/xlink"
 xmlns:xodm="http://www.corel.com/coreldraw/odm/2003">
 <defs>
  <style type="text/css">
   <![CDATA[
    .str1 {stroke:#FFED00;stroke-width:60.8;stroke-miterlimit:22.9256}
    .str0 {stroke:#FFED00;stroke-width:4.31;stroke-miterlimit:22.9256}
    .fil0 {fill:#FFED00}
   ]]>
  </style>
 </defs>
 <g id="Слой_x0020_1">
  <metadata id="CorelCorpID_0Corel-Layer"/>
  <path class="fil0 str0" d="M807.91 1672.85c-142.68,-40.96 -427.54,-331.07 -473.86,-477.95 167.36,-99.98 127.1,-157.23 32.63,-403.91 -26.8,-69.97 -70.01,-160.37 -160.51,-135.38 -52.44,14.48 -132.92,105.45 -163.03,147.61 -132.19,185.14 87.26,500.16 208.11,643.57 115.07,136.55 175.65,189.58 304.85,304.12 135.64,120.25 458.18,346.57 643.4,220.33 341.5,-232.77 46.13,-340.97 -204.81,-406.15 -100.71,-26.15 -126.46,39.2 -186.78,107.76z"/>
  <path class="fil0 str1" d="M1476.03 282.39l10.97 9.38c25.21,24.87 59.69,51.38 88.4,78.65 236.08,224.26 368.33,545.22 368.55,870.19 0.02,28.48 7.57,118.29 -46.52,90.73 -25.57,-13.03 -14.1,-91.63 -15.06,-122.92 -2.81,-92.01 -16.48,-188.12 -43.44,-283.79 -53.77,-190.86 -156.19,-354.69 -272.3,-475.82 -210.52,-219.63 -519.45,-368.38 -857.78,-356.47 -74.96,2.64 -69.05,-59.25 -9.59,-61.29 42.91,-1.47 87.2,-0.51 128.76,3.24 167.85,15.18 309.83,53.83 455.53,126.72 32.91,16.47 67.03,36.93 100.36,57.65 18.7,11.63 76.82,57.68 92.11,63.72z"/>
  <path class="fil0 str1" d="M609.5 348.03c455.22,-22.8 852.17,330.28 901.77,787.71 4.99,46.04 27.6,178.75 -36.79,171 -37.05,-4.46 -26.88,-58.02 -26.78,-83.92 0.93,-242.22 -111.14,-465.74 -288.9,-616.82 -84.65,-71.94 -189.4,-129.53 -298.96,-159.62 -130.74,-35.91 -262.22,-30.11 -269.27,-32.41 -31.97,-10.43 -37.23,-63.12 18.93,-65.94z"/>
  <path class="fil0 str1" d="M519.83 688.54c345.8,-17.32 647.33,250.9 685.01,598.37 3.79,34.98 20.97,135.78 -27.95,129.9 -28.14,-3.39 -20.42,-44.07 -20.34,-63.75 0.7,-184 -84.43,-353.79 -219.46,-468.56 -64.3,-54.65 -143.88,-98.39 -227.1,-121.25 -99.32,-27.28 -199.19,-22.87 -204.55,-24.62 -24.28,-7.93 -28.28,-47.95 14.38,-50.09z"/>
 </g>
</svg>
