<?xml version="1.0" encoding="UTF-8"?>
<!DOCTYPE svg PUBLIC "-//W3C//DTD SVG 1.1//EN" "http://www.w3.org/Graphics/SVG/1.1/DTD/svg11.dtd">
<!-- Creator: CorelDRAW 2019 (64-Bit) -->
<svg xmlns="http://www.w3.org/2000/svg" xml:space="preserve" width="225.689mm" height="178.775mm" version="1.1" style="shape-rendering:geometricPrecision; text-rendering:geometricPrecision; image-rendering:optimizeQuality; fill-rule:evenodd; clip-rule:evenodd"
viewBox="0 0 10094.59 7996.24"
 xmlns:xlink="http://www.w3.org/1999/xlink"
 xmlns:xodm="http://www.corel.com/coreldraw/odm/2003">
 <defs>
  <style type="text/css">
   <![CDATA[
    .str1 {stroke:#FFED00;stroke-width:126.23;stroke-miterlimit:22.9256}
    .str0 {stroke:#FFED00;stroke-width:189.35;stroke-miterlimit:22.9256}
    .str3 {stroke:#FEFEFE;stroke-width:94.68;stroke-miterlimit:22.9256}
    .str2 {stroke:#FFED00;stroke-width:8.95;stroke-miterlimit:22.9256}
    .str4 {stroke:#FEFEFE;stroke-width:78.9;stroke-miterlimit:22.9256}
    .fil0 {fill:none}
    .fil1 {fill:#FEFEFE}
    .fil2 {fill:#FFED00}
   ]]>
  </style>
 </defs>
 <g id="Слой_x0020_1">
  <metadata id="CorelCorpID_0Corel-Layer"/>
  <path class="fil0 str0" d="M8249.16 6998.19l394.51 -776.92c-12.1,-198.58 26.39,-403.07 -36.31,-595.73 -94.1,-187.02 -325.35,-308.52 -565.61,-367.4l-1595.26 -30.12 -1565.13 -1294.21 -2979.75 30.12 -1565.13 1565.13 -60.25 1113.65 391.33 421.36"/>
  <polygon class="fil0 str0" points="2529.77,5197.66 2545.38,4228.2 1959.77,4247.84 1434.44,4826.07 1403.22,5197.66 "/>
  <polygon class="fil0 str0" points="4576.04,4209.38 3070.57,4208.02 3093.17,5185 5575.42,5175.3 "/>
  <path class="fil0 str0" d="M6541.71 7053.47c61.62,-407.34 419.32,-719.86 851.36,-719.86 432.04,0 789.73,312.51 851.35,719.86"/>
  <path class="fil0 str0" d="M643.83 7017.7c60.81,-407.34 413.78,-719.86 840.11,-719.86 426.33,0 779.3,312.52 840.11,719.86l4274.74 0"/>
  <ellipse class="fil0 str1" cx="3500.98" cy="5801.35" rx="286.19" ry="116.27"/>
  <rect class="fil0 str1" x="327.81" y="5688.28" width="369.67" height="345.82"/>
  <ellipse class="fil1 str1" transform="matrix(1.01254 0.288325 -0.348213 0.838397 8191.15 5699.9)" rx="394.47" ry="252.46"/>
  <circle class="fil0 str0" cx="1481.8" cy="7259.31" r="642.25"/>
  <circle class="fil0 str0" cx="7396.51" cy="7259.31" r="642.25"/>
  <circle class="fil2 str2" cx="7396.51" cy="7259.31" r="169.01"/>
  <circle class="fil2 str2" cx="1481.8" cy="7259.31" r="169.01"/>
  <path class="fil2 str2" d="M8436.23 1457.09c6.62,7.95 4.65,4.28 8.47,12.62l12.97 12.97c16.32,7.07 35.59,32.52 49.83,46.75 15.99,15.96 37.46,31.19 46.75,49.84l13.28 12.83c11.38,5.68 16.53,13.75 26.26,23.14 9.59,9.26 17.82,15.19 23.07,26.63 12.95,6.66 11.31,4.1 17.93,16.41l29.49 29.49c13.45,6.94 26.16,19.63 33.1,33.1 9.92,3.82 5.8,2.11 14.62,10.95 3.82,3.83 4.01,3.33 7.57,8.01 3.73,4.9 1.53,2.29 3.39,6.62 12.4,6.39 22.8,16.79 29.19,29.19 11.1,4.94 28.96,23.4 33.41,33.4 12.85,6.63 22.57,16.34 29.19,29.19 4.97,1.49 0.64,-3.3 7.99,5.03 7.67,6.96 3.84,-9.06 6.91,8.05l-401.21 -1.77 1.5 -399.11c11.14,4.48 0.68,-0.06 6.29,6.65zm-1736.36 -142.2c-7.24,12.35 -12.89,18.01 -25.24,25.24l-24.73 56.28c-0.3,0.61 -1.4,3.13 -1.62,2.55 -0.23,-0.57 -1.1,1.66 -1.7,2.46l0.64 637.87c-2.95,211.58 -2.8,430.02 -0.19,641.64 5.85,474.18 -1.2,958.81 0.34,1435.88 0.2,61.96 2.86,86.15 36.09,124.76 55.5,64.47 170.65,46.1 273.47,46l1918.03 0.68c3.93,-2.36 -0.48,-0.53 9.22,-4.33 61.25,-23.96 103,-55.04 106.78,-131.88l1.16 -575.15c-0.19,-14.7 6.31,-178.56 -6.06,-191.38l-6.49 12.58c-4.03,15.51 -22.31,52.06 -33.37,60.09 -1.48,12.11 -5.47,15.86 -12.65,28.25 -2.49,5.12 -4.64,10.26 -6.74,14.04 -5.98,10.76 -2.71,7.04 -11.04,14.43 -3.53,23.35 -18.67,22.13 -19.23,61.82 -1.42,100.11 5.45,559.69 -2.1,582.65 -4.43,17.03 -6.49,17.76 -19.2,23.36 -16.32,20.33 -86.26,10.48 -118.55,10.48l-1885.82 0c-46.73,0 -89.89,7.78 -117.36,-15.7 -22.28,-31.71 -11.77,-117.52 -11.61,-162.43l-0.68 -524.27c-1.89,-233.21 2.81,-467.13 0.04,-700.33 -2.78,-233 3.71,-467.37 0.05,-700.34 -1.82,-115.68 2.26,-232.5 0.08,-348.21 -1.09,-57.39 -0.64,-118.62 0.37,-176.06 0.33,-18.54 -2.48,-136.5 1.98,-150.81 5.36,-17.22 4.52,-10.17 11.22,-14.69l5.2 -5.2c12.89,-19.11 54.2,-13.81 87.26,-13.75l1052.45 -0c90.06,-0.07 305.05,-3.51 379.53,0.36l54.9 0.28 0.57 16.88 0 56.09 0 61.28 0 56.09 0 61.28 0 56.09 0 61.28 0 56.09 0 61.28c-0.63,55.69 8.38,75.87 65.96,75.51l58.36 0 59.01 0 58.36 0 59.01 0 58.36 0 59.01 0 58.37 0 59.01 0 20.7 0.07c9.24,6.07 5.81,22.59 5.84,36.5 0.02,14.36 0.3,28.74 0.22,43.12 -0.95,190.3 -3.09,401.58 0.02,587.99 18.17,-17.18 46.55,-88.65 62.23,-105.88 3.89,-9.62 7.14,-15.61 11.86,-24.98 1.95,-3.88 2.47,-6.17 5.36,-10.27 6.67,-9.49 2.87,-4.18 8.83,-8.57 2.49,-18.03 7.36,-18.49 7.08,-46.96l-0.19 -481.31c-0.52,-53.07 3.17,-51.33 -25.51,-80.93 -170.68,-176.17 -357.55,-357.35 -531.83,-532.39 -25.06,-25.16 -26.39,-33.83 -77.29,-33.18 -35.4,0.45 -70.32,-0.02 -105.65,0.01l-1279.38 0.01c-51.74,-0.26 -168.45,6.72 -211.41,-0.34l-61.29 28.05z"/>
  <path class="fil2 str2" d="M8930.96 2742.7l-1.76 6.15c-4.59,14.3 -7.11,17.79 -14.8,31.09l-18.15 27.28c-0.64,13.35 -14.28,35.57 -22.34,43.13 -3.45,13.14 1.68,6.54 -8.96,15.09 -1.42,11.2 -27.19,57.71 -33.56,63.39 -2.7,7.81 -4.18,12.71 -7.59,18.82l-7.39 9.51c-0.35,-0.7 -1.67,1.44 -2.51,2.17l-13.88 26.8c-4.76,15.19 -7.74,18.15 -15.2,32.07l-15.39 25.36c-0.34,-0.68 -1.48,1.59 -2.29,2.32l-9.67 21.91c-2.78,6.57 -5.11,11.65 -9.4,19.28 -2.21,3.92 -3.65,6.35 -6.26,9.71 -3.78,4.87 -2.28,3.15 -6.36,6.62 -2.08,12.49 -54.88,108.33 -63.36,120.81 -7.68,18.4 -54.3,107.83 -66.1,116.59 -2.16,18.46 -15.76,38.92 -23.59,58.14 -7.02,17.22 -12.98,38.21 -20.6,55.36l-19.82 61.66c-0.26,-0.6 -1.08,1.97 -1.77,2.84 1.89,20.35 -20.83,93.81 -25.11,123.29l-7.48 45.63 -9.1 53.5c-2.49,32.04 -5.16,26.81 -39.2,32.1 -9.39,6.73 -45.84,14.61 -58.84,13.57 -11.77,9.02 -34.72,11.65 -51.62,14.5 -38.28,9.83 -176.77,27.91 -207.31,6.2 -11.45,-1.81 -12.39,-1.05 -23.09,-7.21 -2.55,-1.47 -6.65,-4.81 -9.01,-7.09 -4.13,-3.99 -2.68,-2.72 -6.1,-7.31 -8.52,-3.77 -11.86,-8.53 -16.17,-17.01 -4.01,-7.91 -5.46,-14.11 -7.48,-22.56 -4.18,-54.54 61.41,-134.37 -28.6,-141.43 -21.33,2.3 -42.55,13.09 -57.47,13.37 -3.89,4.15 -1.02,2.63 -7.09,6.25 -7.65,4.57 -1.15,0.83 -10.65,3.53l-44.17 25.67 -55.9 43.96c-14.83,11.92 -42.96,38.06 -56.43,43.36 -1.4,7.4 0.9,4.17 -6.25,5.73l-13.5 15.57c-3.54,3.82 -7.3,8.62 -10.95,12.37 -8.96,9.19 -16.02,16.07 -28.55,20.6 -0.9,1.54 -1.9,4.2 -5.6,7.54 -6.93,6.25 0.9,1.04 -6.23,3.35l-10.57 11.67c-6.8,6.04 -4.62,3.83 -11.07,8.36 -11.38,7.98 -12.09,8.89 -25.21,12.6 -10.5,11.88 -41.74,20.58 -59.86,11.76 -10.21,-14.84 -7.8,-33.85 -0.81,-49.55 4.75,-20.79 11.56,-46.49 26.05,-59.07 2.25,-15.08 23.46,-50.68 32.09,-64.79 10.46,-17.1 23.24,-47.34 36.4,-53.44 6.69,-17.74 4.09,-12.89 17.27,-24.06 3.1,-13.1 13.84,-25.35 20.52,-34.26 15.06,-30.31 45.12,-66.76 35.88,-109.73l2.1 -2.99 -24.81 -16.71c-9.83,-3.52 -20.32,-3.4 -31.05,-3.15 -47.1,4.98 -94.47,38.36 -117.62,40.68 -7.98,10.16 -13.19,10.65 -26,18.45 -12.46,7.58 -14.66,9.33 -28.67,14.59l-10.68 6.21 -50.77 32.63c-5.45,7.89 -30.09,23.52 -40.39,25.74 -3.88,5.22 2.27,1.91 -8.38,9.2 -6.77,4.64 -0.05,0.32 -9.92,3.71 -4.45,9.5 -44.35,34.94 -55.98,43.62 -13.43,10.03 -46.34,38.16 -60,40.64 -6.04,11.57 -15.32,16.82 -25.98,22.78 -4.54,3.41 -9.39,7.84 -14.85,11.89 -0.07,0.05 -8.69,6.12 -9.12,6.36 -8.8,4.82 2.95,0.21 -7.49,2.45 -11.22,14.98 -42.74,34.57 -57.87,45.83 -17.01,12.65 -41.7,30.25 -60.29,39.1 -9.43,9.33 -5.56,7.73 -19.52,8.97 -5.28,6.48 -3.32,5.86 -13.66,10.83 -10.18,4.89 -10.8,4.26 -20.71,6.63 -17.46,9.3 -42.64,8.41 -45.4,-11.68 -12.7,-13.94 -8.64,-41.77 -1.15,-58.02 1.82,-3.94 1.94,-3.64 4.71,-7.94l3.96 -4.99c0.93,-14.41 18.17,-34.21 25.32,-42.5 6.98,-11.58 1.9,-6.43 12.58,-13.17 3.71,-7.72 1.54,-5.07 9.45,-12.38 5.16,-4.77 8.07,-6.19 13.36,-10.27 10.23,-7.92 15.33,-14.38 27.42,-17.55l26.33 -18.62c32.23,-16.82 44.64,-11.56 63.1,-19.02 14.89,-6.02 11.64,-9.2 27.05,-14.43 2.8,-5.77 10.33,-15.99 17.28,-20.86l-1.38 -21.45 -14.23 -4.46 -57.49 6.61 -61.91 30.45c-22.43,12.02 -37.41,24.91 -56.8,36.66 -2.14,6.12 -2.07,5.38 -8.97,10.7 -8.06,6.23 -4.66,3.92 -11.95,6.78 -5.08,8.61 -8.99,12.08 -15.97,20.28 -2.68,3.15 -6.76,8.65 -8.88,10.79 -8.39,8.42 -0.59,2.46 -10.47,7.63l-8.78 14.22 -59.27 104.88c-0.3,-0.63 -1.19,2.02 -1.91,2.93 7.17,23.52 0.21,41.89 14.36,63.09 9.19,13.76 29.46,23.38 52.98,27.48l56.15 -3.22c21.26,-9.74 40.41,-15.48 61.37,-26.66 12.47,-6.65 48.27,-28.36 57.62,-29.96l28.21 -21c21.75,-14.85 69.45,-53.19 85.15,-57.91l7.92 -6.97 13.18 -13.02c5.89,-5.09 7.85,-6 13.06,-10.27 11.7,-9.59 12.22,-10.51 26.05,-18.79 2.55,-2.86 6.1,-6.59 11.35,-10.27 10.85,-7.6 3.17,-3.92 11.86,-5.83 0.66,-0.88 1.46,-2.08 1.94,-2.67l5.98 -7c6.01,-5.84 2.41,-1.87 8.77,-6.87 11.45,-9 6.83,-7.74 20.61,-13.19 6.88,-9.02 26.57,-25.93 40.48,-29.15 5.33,-7.05 -3.59,-0.7 8.45,-9.7 7.32,-5.47 -2.38,0.56 9.76,-4.2 5.57,-7.68 16.57,-14.25 27.28,-20.99 11.54,-7.25 20.87,-14.3 32.54,-16.42 8.67,-10.91 1.78,-5.54 15.08,-9.04 7.85,-7.97 29.52,-21.74 43.61,-22.34 11.47,-12.98 43.41,-24.54 59.28,-29.2l31.93 -10.43c-0.82,24.92 -21.11,54.21 -32.14,69.42 -13.6,18.75 -26.22,43.54 -41.31,58.59 -7,14.12 -2.87,11.39 -15.2,19.08 -1.68,10.42 -3.88,12.1 -11.45,22.76 -3.24,4.56 -10.18,13.45 -12.47,16.64l-34.13 52.5c0.83,12.21 0.1,6.31 -3.18,7.92l-24.45 60.59 -1.81 28.38c-0.84,16.31 -0.7,30.76 4.31,46 6.98,21.21 13.4,18.16 21.21,34.28l1.36 -1.13 40.4 6.31 34.74 -5.6c8.92,-10.01 7.53,-6.22 20.49,-11.81 9.4,-4.05 11.67,-6.65 21.64,-10.33 14.22,-12.07 41.53,-26.33 58.52,-38.61 16.22,-11.72 43.77,-35.62 56.66,-39.87 7,-13.17 8.12,-12.32 20.8,-17.63 4.93,-11.66 7.03,-8.57 16.77,-16.53 12.3,-10.05 7.7,-9.56 21.12,-13.13 8.27,-13.6 23,-22.48 37.46,-29.73 5.27,-8.13 11.2,-11.68 21.22,-13.31 8.11,-13.42 40.28,-31.55 58.26,-38.56l29.02 -12.47c-1.34,54.17 -33.98,97.19 -1.92,145.42 21.44,32.27 60.2,53.36 107.73,61.98l45.23 4.71 45.79 1.97 8.57 -3.1c1.02,-0.24 2.17,-0.51 3.35,-0.74l51.84 -6.95c18.03,-2.91 35.42,-9.45 54.31,-8.45 8.1,-7.17 14.42,-7 26.16,-10.28 10.4,-2.91 19,-5.64 29.96,-8.72 21.81,-6.14 42.07,-14.26 64.32,-18.35 7.15,-6.45 22.17,-8.6 33.07,-13.37 12.05,-5.28 20.07,-12.26 30.46,-20.37 17.18,-13.4 39.78,-33.73 56.97,-44.21 5.36,-6.21 1.34,-2.35 8.63,-7.85 5.28,-3.98 5.49,-3.49 11.72,-7.41 1.84,-7.53 19.63,-20.69 27.47,-27.59 9.24,-8.14 5.01,-4.15 11.28,-5.8 4.26,-6.45 1.22,-2.24 6.07,-7.51 0.25,-0.27 5.67,-5.51 6.22,-5.99 7.29,-6.4 7.08,-6.17 15.48,-11.79 1.67,-9.93 5.31,-9.76 14.11,-17.31 3.19,-2.74 5.43,-5.13 8.38,-7.39 7.23,-5.54 3.68,-3 8.44,-4.77 6.25,-11.47 17.55,-23.1 29.73,-29.73 3.83,-12.56 15.63,-22.04 25.91,-30.42l7.95 -5.91 15.02 -19.56c13.87,-18.58 28.46,-35.38 43.06,-57.15 7.54,-11.24 32.67,-54.37 39.26,-59.9 2.32,-9.51 1.54,-10.53 6.85,-19.3 5.9,-9.74 4.28,-6.14 10.44,-10.73 1.22,-10.85 7.89,-23.8 13.57,-27.49 6.08,-19.88 56.24,-114.5 68.83,-123.84 1.58,-12.47 51.24,-104.52 59.79,-113.93 4.07,-12.28 23.25,-50.49 33.76,-59.47l1.88 -5.4c4.98,-16.21 17.07,-42.44 29.96,-52.03 1.65,-13.25 55.06,-111.84 63.94,-120.12 2.96,-8.96 5.54,-14.45 9.05,-21.2 1.96,-3.78 3.25,-6.74 5.69,-9.96 3.96,-5.23 2.69,-2.97 6.97,-6.48l7.72 -19.64c-1.5,-7.19 -2.01,-7.46 -6.19,-13 -11.52,-0.74 -114.9,-57.35 -121.85,-65.37 -25.32,-6.58 -71.53,-37.61 -97.7,-50.73l-12.44 10.89z"/>
  <path class="fil2 str2" d="M9518.05 1812.03c-1.94,12.49 -17.3,39.89 -26.56,51.46l-4.45 4.73 -3.13 14.55c-16.73,-0.76 -12.35,-3.59 -26.28,-8.46 -9.71,-3.39 -21.4,-3.23 -32.07,-4.71 -8.53,8.32 -17.13,10.95 -26.22,15.45l-23.7 43.47c-7.71,19.82 -19.33,45.35 -33.65,59.56 -1.57,12.89 -20.36,46.2 -31.01,56.19 -0.65,13.58 -55.87,113.63 -64.86,121.61 -3.19,10.96 -3.05,10.58 -8.82,21.42 -1.77,3.32 -3.77,7.47 -5.76,10.02 -4.03,5.18 -2.55,2.77 -7.13,6.19l-9.8 19.67c-4.69,16.98 -7.3,17.17 -15.13,32.04l-17.6 27.71 -14.51 27.48c-2.64,9.08 -3.1,11.74 -7.38,18.84 -5.81,9.64 -3.52,5.85 -9.79,11.2 -1.35,12.85 -20.39,48.34 -29.27,56.26 -3.02,9.82 1.18,3.53 -4.83,13.62 -9.1,15.3 -0.58,2.13 -8.94,8.36 -1.05,11.23 -10.95,30.28 -17.6,35.31 -6.05,19.3 -55.73,113.51 -68.6,124.35 -2.13,13.38 -7.88,21.12 -15.54,34.37 -7.71,13.33 -15.83,22.19 -11.29,32.15l88.24 46.75c10.6,5.94 19.95,9.32 27.51,17.92 10.11,0.69 96.39,47.17 100.66,53.65 22.36,2.85 4.7,3.07 19.18,-11.75l35.19 -64.13c3.19,-10.36 -1.24,-3.07 4.79,-13.64 5.63,-9.87 4.46,-5.39 8.79,-9.04 1.29,-11.54 10.58,-29.18 17.79,-34.62 5.47,-18.62 52.82,-107.26 64.49,-116.53 1.71,-13.62 53.84,-108.56 63.43,-121.56 4.17,-10.02 9.04,-18.29 13.73,-27.34 2,-3.86 5.09,-10.39 6.65,-12.87 6.5,-10.36 1.98,-4.94 10.28,-11.13l1.34 -7.04c8.06,-18.92 18.46,-46.23 34.11,-58.22 1.86,-14.68 14.85,-37.82 25.54,-47.51l2.01 15.7c4,4.1 1.89,0.35 5.55,6.95 1.95,3.51 2.1,5 3.37,8.61 2.15,6.12 3.61,11.83 5.42,18.66 8.61,29.48 12.24,65.61 8.49,97.08 -0.92,6.98 -0.71,8.68 -2.84,15.68 -2.79,9.2 -0.17,2.76 -4.16,7.86 0.93,20.89 -46.78,111.82 -56.79,118.22 -4.39,14.73 -5.79,21.72 -17.97,29.95 -1.27,11.9 -6.29,20.23 -12.15,28.17 -4.65,12.62 -10.7,20.44 -16.6,32.36 -2.51,5.08 -4.72,10.46 -7.99,15.43l-9.86 11.37 -12.5 27.13c-4.68,12.83 -9.67,23.27 -19.15,30.31 -1.84,14.5 -53.36,107.81 -63.71,121.41 -15.86,40.65 -53.86,77.41 -51.42,126.39 8.6,14.19 6.35,18.63 21.18,29.56 10.77,7.93 25.62,11.97 43.05,7.88 30.57,-7.18 36.4,-35.37 51.39,-56.63 1.91,-5.5 2.43,-8.48 4.79,-12.73 5.8,-10.44 3.97,-6.31 10.22,-11l16.29 -34.74c7.95,-19.32 53.98,-106.75 65.87,-117.1 2.06,-12.94 55.82,-112.03 64.36,-119.61 5.49,-18.2 15.42,-41.65 29.54,-52.54l2.27 -5.92c3.17,-12.19 21.79,-49.21 32.44,-58.59 0.92,-14.38 25.62,-45.68 36.49,-106.04 11.61,-64.48 -4.06,-100 -0.9,-128.45 -8.34,-9.61 -15.64,-45.38 -20.19,-58.96 -6.6,-19.67 -15.08,-34.87 -21.38,-53.81 -7.24,-9.61 -14.22,-23.92 -20.02,-34.19 -8.19,-14.47 -5.96,-20.67 5.31,-29.45l32.44 -58.59 9.95 -30.38 1.72 -27.57 -11.44 -12.84c-18.85,-23.25 -25.98,-15.4 -39.79,-31.81 -5.62,-4.27 -3.43,2.8 -1.32,-7.06l36.3 -62.59c2.04,-8.54 1.87,-10.99 6.55,-19.13 5.9,-10.25 3.98,-6.19 10.27,-10.91 1.36,-17.72 6.51,-35.8 -2.72,-53.93 -9.76,-19.16 -12.94,-12.68 -30.36,-24.28 -65.65,-4.4 -48.32,23.11 -79.77,54.32z"/>
  <path class="fil2 str2" d="M7024.24 2163.28c-3.68,27.88 3.57,34.36 11.31,54.02 7.7,1.39 13.05,5.05 18.62,8.28l59.22 1.61 1461.99 -0.59 28.67 -11.06c1.79,-10.37 6.06,-7.08 10.13,-21.28 3.28,-11.45 1.67,-18.37 2.88,-29.17l-23.53 -25.29c-12.54,-7.8 -24.09,-6.48 -40.21,-6.41 -32.62,0.14 -65.25,-0.34 -97.91,-0.31l-50.9 0 -66.47 0 -50.9 0 -66.47 0 -50.9 0 -66.47 0 -50.9 0 -66.47 0 -50.9 0 -66.47 0 -50.9 0 -66.47 0 -50.9 0 -66.47 0 -50.9 0 -66.47 0 -50.9 0 -66.47 0 -50.9 0 -66.47 0 -50.9 0 -66.47 0 -50.9 0 -59.22 1.61c-13.4,7.78 -21.71,13.48 -29.93,28.59z"/>
  <path class="fil2 str2" d="M7023.55 2727.9c-1.15,17.25 0.04,32.2 7.89,42.89 6.35,8.62 13.84,11.39 22.6,17.2 0.75,0.49 1.99,1.44 2.6,1.85 0.61,0.42 1.81,1.19 2.6,1.91l52.87 -1.97 55.91 -0.07 61.47 0.07 55.91 -0.07 61.46 0.07 55.91 -0.07 61.46 0.07 55.91 -0.07 61.47 0.07 55.91 -0.07 61.47 0.07 55.91 -0.07 61.47 0.07 55.91 -0.07 61.47 0.07 55.91 -0.07 61.46 0.07 55.91 -0.07 61.46 0.07 55.91 -0.07 61.47 0.07 55.91 -0.07 61.47 0.07 55.91 -0.07 61.47 0.07 53.46 0c29.51,-6.03 53.79,-31.42 39.02,-66.82 -12.73,-30.51 -45.22,-27.53 -83.36,-27.53 -474.16,-0.05 -959.43,3.68 -1431.97,-0.2 -48.44,-0.4 -53.97,-1.1 -74.21,32.69z"/>
  <path class="fil2 str2" d="M7024.06 2477.46c16.15,19.27 3.38,15.86 33.29,29.61l1524.55 0 0.79 2.7c16.73,-15.5 34.52,-13.15 33.39,-59.65 -14.8,-28.76 -20.91,-36.37 -62.76,-36.57l-1500.67 0.41 -7.45 6.37c-3.76,3.22 -3.09,2.35 -6.76,5.77 -16.42,15.3 -16.87,27.36 -14.37,51.36z"/>
  <path class="fil2 str2" d="M7037.74 2983.71c-7.47,18 -18.82,27.28 -12.81,57 10.58,20.06 6.66,14.12 25.17,27.25l12.31 5.47c50.17,-9.74 197.44,-1.74 258.36,-1.92l718.34 -1.36c22.06,-4.34 26.16,-13.53 35.95,-29.14 4.6,-27.62 -5.21,-41.98 -13.5,-57.31 -20.99,-3.17 -26.6,-7.53 -60.02,-7.31l-907.74 -0.03c-30.45,-0.21 -36.03,5.29 -56.07,7.34z"/>
  <path class="fil2 str2" d="M7031.3 1868.64c-12.76,33.02 -7.78,20.11 -6.14,54.61l27.49 23.06 866.74 -0.13c42.37,0.43 104.91,9.21 125.85,-19.66 16.97,-23.4 15.73,-75.37 -54.13,-74.8l-61.28 0 -56.09 0 -61.28 0 -56.09 0 -61.28 0 -56.09 0 -61.29 0 -56.09 0 -61.28 0 -56.09 0 -61.28 0 -56.09 0 -61.28 0 -56.09 0 -61.28 0 -50.39 -1.8c-3.89,3.83 -21.29,15.35 -26.51,18.72z"/>
  <g id="_2609662190912">
   <path class="fil2 str2" d="M5828.72 2403.6l6.9 6.9 -6.9 6.9 6.9 6.9 -6.9 6.9 6.9 6.9 -6.9 6.9 6.9 6.9 -6.9 6.9 6.9 6.9 -6.9 6.9 6.89 6.9 -6.9 6.9 6.9 6.9 -6.9 6.9 6.9 6.9 -6.9 6.9 6.9 6.9 -6.9 6.89 6.9 6.9 -6.9 6.9 6.9 6.9 -6.9 6.9 6.9 6.9 -6.9 6.9 6.9 6.9 -6.9 6.89 6.9 6.9 -6.9 6.9 6.89 6.9 -6.9 6.9 6.9 6.9 -6.9 6.9 6.9 6.9 -6.9 6.9 6.9 6.9 -6.9 6.89 6.9 6.9 -6.9 6.9 6.89 6.9 -6.9 6.9 6.9 6.9 -6.9 6.9 6.9 6.9 -6.9 6.89 6.9 6.9 -6.9 6.9 6.9 6.9 -6.9 6.9 6.9 6.9 -6.9 6.9 6.9 6.9 -6.9 6.9 6.9 6.9 -6.9 6.89 6.9 6.9 -6.9 6.9 6.9 6.9 -6.9 6.9 6.9 6.9 -6.9 6.9 6.9 6.9 -6.9 6.89 6.89 6.9 -6.9 6.9 6.89 6.9 -6.9 6.9 6.9 6.9 -6.9 6.9 6.9 6.9 -6.9 6.9 6.9 6.9 -6.9 6.89 6.9 6.9 -6.9 6.9 6.9 6.9 -6.9 6.9 6.9 6.9 -6.9 6.9 6.9 6.9 -6.9 6.89 6.9 6.9 -6.9 6.9 6.9 6.9 -6.9 6.9 6.9 6.9 -6.9 6.9 6.9 6.9 -6.9 6.9 6.9 6.9 -6.9 6.89 6.9 6.9 -6.9 6.9 6.89 6.9 -6.9 6.9 6.89 6.9 -6.9 6.9 6.9 6.9 -6.9 6.89 6.9 6.9 -6.9 6.9 6.9 6.9 -6.9 6.9 6.9 6.9 -6.9 6.9 6.9 6.9 -6.9 6.9 6.9 6.9 -6.9 6.9 6.9 6.9 -6.9 6.9 6.9 6.9 -6.9 6.9 6.9 6.9 -6.9 6.9 6.9 6.9 -6.9 6.9 6.9 6.9 -6.9 6.9 6.89 6.9 -6.9 6.9 6.9 6.9 -6.9 6.9 6.9 6.9 -13.8 13.79 6.9 6.9 -48.3 48.27 -6.9 -6.9 -6.9 6.9 -6.89 -6.9 -6.9 6.9 -6.9 -6.9 -6.9 6.9 -6.89 -6.9 -6.9 6.9 -6.9 -6.9 -6.9 6.9 -6.9 -6.9 -6.9 6.89 -6.9 -6.9 -13.8 13.79 -13.79 -13.8 -6.9 6.9 -6.9 -6.9 -6.9 6.89 -6.9 -6.9 -6.9 6.89 -6.9 -6.9 -6.9 6.9 -6.9 -6.9 -6.9 6.9 -6.9 -6.9 -6.9 6.9 -6.9 -6.9 -6.9 6.9 -6.9 -6.9 -6.9 6.9 -6.89 -6.9 -6.9 6.9 -6.9 -6.9 -6.9 6.9 -6.9 -6.9 -6.9 6.9 -6.9 -6.9 -6.9 6.9 -6.9 -6.9 -6.9 6.9 -6.9 -6.9 -6.9 6.9 -6.9 -6.9 -6.9 6.9 -6.9 -6.9 -6.9 6.89 -6.9 -6.9 -6.9 6.9 -6.9 -6.9 -6.9 6.9 -6.9 -6.9 -6.9 6.9 -6.9 -6.9 -6.9 6.9 -6.9 -6.9 -6.9 6.9 -6.89 -6.9 -6.9 6.9 -6.9 -6.9 -6.9 6.9 -6.89 -6.9 -6.9 6.9 -6.9 -6.9 -6.9 6.89 -6.9 -6.9 -6.9 6.9 -6.9 -6.9 -6.9 6.9 -6.9 -6.9 -6.9 6.9 -6.9 -6.9 -13.8 13.79 -13.79 -13.8 -6.9 6.9 -6.9 -6.9 -6.9 6.9 -6.9 -6.9 -6.9 6.9 -6.9 -6.9 -6.9 6.9 -6.9 -6.9 -6.9 6.9 -6.9 -6.9 -6.9 6.9 -6.89 -6.9 -6.9 6.9 -6.9 -6.9 -6.9 6.9 -6.9 -6.9 -6.9 6.9 -6.9 -6.9 -6.9 6.9 -6.9 -6.9 -6.9 6.9 -6.9 -6.9 -6.9 6.89 -6.9 -6.9 -6.9 6.9 -6.9 -6.9 -13.8 13.79 -6.89 -6.9 -6.9 6.9 -6.9 -6.9 -6.9 6.9 -6.9 -6.9 -6.9 6.9 -6.9 -6.9 -6.9 6.9 -13.79 -13.8 -6.9 6.9 -6.9 -6.9 -6.9 6.9 -6.9 -6.9 -6.9 6.9 -6.9 -6.9 -6.9 6.9 -6.9 -6.9 -6.9 6.9 -6.9 -6.9 -6.9 6.9 -6.9 -6.9 -6.9 6.9 -6.9 -6.9 -6.9 6.89 -6.9 -6.9 -6.9 6.89 -6.89 -6.9 -6.9 6.9 -6.9 -6.9 -13.8 13.79 -6.9 -6.9 -6.9 6.9 -6.9 -6.9 -6.9 6.9 -6.89 -6.9 -6.9 6.9 -13.79 -13.8 -6.9 6.9 -6.9 -6.9 -6.9 6.9 -6.9 -6.9 -6.9 6.9 -6.89 -6.9 -6.9 6.9 -6.9 -6.9 -6.9 6.9 -6.9 -6.9 -6.9 6.9 -6.89 -6.9 -6.9 6.89 -6.89 -6.9 -6.9 6.9 -6.9 -6.9 -6.9 6.9 -6.9 -6.9 -13.8 13.79 -6.9 -6.9 -6.9 6.9 -6.9 -6.9 -6.9 6.9 -6.9 -6.9 -6.9 6.9 -6.9 -6.9 -6.9 6.9 -13.79 -13.8 -6.9 6.9 -6.89 -6.9 -6.9 6.9 -6.9 -6.9 -6.9 6.89 -6.9 -6.9 -6.9 6.9 -6.89 -6.9 -6.9 6.89 -6.9 -6.9 -6.9 6.9 -6.89 -6.9 -6.9 6.9 -6.9 -6.9 -6.9 6.9 -6.9 -6.9 -6.9 6.9 -6.9 -6.9 -6.9 6.89 -6.89 -6.9 -13.8 13.79 -6.9 -6.9 -6.9 6.9 -6.9 -6.9 -6.9 6.89 -6.9 -6.9 -6.9 6.9 -13.79 -13.8 -6.9 6.9 -6.9 -6.9 -6.9 6.9 -6.89 -6.9 -6.9 6.9 -6.9 -6.9 -6.9 6.89 -6.89 -6.9 -6.9 6.9 -6.9 -6.9 -6.9 6.9 -6.9 -6.9 -6.9 6.9 -6.9 -6.9 -6.9 6.89 -6.9 -6.9 -6.9 6.9 -6.9 -6.9 -13.8 13.79 -6.9 -6.9 -6.9 6.9 -6.9 -6.9 -6.9 6.9 -6.89 -6.9 -6.9 6.9 -6.9 -6.9 -6.9 6.9 -13.79 -13.8 -6.9 6.9 -6.9 -6.9 -6.9 6.89 -6.89 -6.9 -6.9 6.9 -6.9 -6.9 -6.9 6.9 -6.9 -6.9 -6.9 6.9 -6.9 -6.9 -6.9 6.9 -6.9 -6.9 -6.9 6.89 -6.9 -6.9 -6.9 6.9 -6.9 -6.9 -6.9 6.9 -6.9 -6.9 -6.9 6.9 -6.9 -6.9 -13.8 13.79 -6.9 -6.9 -6.9 6.9 -6.89 -6.9 -6.9 6.9 -6.9 -6.9 -6.9 6.9 -13.79 -13.8 -6.9 6.9 -6.9 -6.9 -6.9 6.9 -6.9 -6.9 -6.9 6.9 -6.9 -6.9 -6.9 6.9 -6.9 -6.9 -6.9 6.89 -6.9 -6.9 -6.9 6.9 -6.9 -6.9 -6.9 6.9 -6.9 -6.9 -6.9 6.9 -6.9 -6.9 -6.9 6.9 -6.9 -6.9 -13.8 13.79 -6.89 -6.9 -6.9 6.9 -6.9 -6.9 -6.9 6.9 -6.9 -6.9 -6.9 6.89 -6.9 -6.9 -6.9 6.9 -13.79 -13.8 -6.9 6.9 -6.9 -6.9 -6.9 6.9 -6.9 -6.9 -6.9 6.89 -6.9 -6.9 -6.9 6.89 -6.9 -6.9 -6.9 6.9 -6.9 -6.9 -6.9 6.9 -6.9 -6.9 -6.9 6.9 -6.9 -6.9 -6.9 6.9 -6.9 -6.9 -6.9 6.9 -6.9 -6.9 -13.8 13.79 -6.9 -6.9 -6.9 6.9 -6.9 -6.9 -6.9 6.89 -6.9 -6.9 -6.9 6.89 -6.89 -6.9 -6.9 6.9 -13.79 -13.8 -6.9 6.9 -6.9 -6.9 -6.9 6.89 -6.9 -6.9 -6.9 6.9 -6.9 -6.9 -6.9 6.9 -6.9 -6.9 -6.9 6.9 -6.9 -6.9 -6.9 6.9 -6.9 -6.9 -6.9 6.9 -6.89 -6.9 -6.9 6.89 -6.9 -6.9 -6.9 6.9 -6.9 -6.9 -13.8 13.79 -6.9 -6.9 -6.9 6.89 -6.89 -6.9 -6.9 6.9 -6.9 -6.9 -6.9 6.9 -6.9 -6.9 -6.9 6.9 -13.79 -13.8 -6.9 6.89 -6.89 -6.9 -6.9 6.9 -6.9 -6.9 -6.9 6.9 -6.9 -6.9 -6.9 6.9 -6.89 -6.9 -6.9 6.9 -6.89 -6.9 -6.9 6.9 -6.9 -6.9 -6.9 6.9 -6.9 -6.9 -6.9 6.9 -6.9 -6.9 -6.9 6.9 -6.9 -6.9 -13.8 13.79 -6.9 -6.9 -6.9 6.9 -6.9 -6.9 -6.9 6.9 -6.89 -6.9 -6.9 6.9 -6.9 -6.9 -6.9 6.9 -13.79 -13.8 -6.9 6.9 -6.9 -6.9 -6.9 6.9 -6.89 -6.9 -6.9 6.9 -6.9 -6.9 -6.9 6.9 -6.89 -6.9 -6.9 6.9 -6.9 -6.9 -6.9 6.9 -6.9 -6.9 -6.9 6.9 -6.9 -6.9 -6.9 6.9 -6.89 -6.9 -6.9 6.9 -6.9 -6.9 -13.8 13.79 -6.9 -6.9 -6.9 6.9 -6.9 -6.9 -6.9 6.89 -6.89 -6.9 -6.9 6.9 -6.9 -6.9 -6.9 6.9 -13.79 -13.8 -6.9 6.9 -6.9 -6.9 -6.9 6.9 -6.89 -6.9 -6.9 6.89 -6.9 -6.9 -6.9 6.9 -6.9 -6.9 -6.9 6.9 -6.9 -6.9 -6.9 6.9 -6.9 -6.9 -6.9 6.9 -6.9 -6.9 -6.9 6.9 -6.9 -6.9 -6.9 6.9 -6.9 -6.9 -13.8 13.79 -6.89 -6.9 -6.9 6.9 -6.9 -6.9 -6.9 6.9 -6.9 -6.9 -6.9 6.9 -6.9 -6.9 -6.9 6.9 -13.79 -13.8 -6.9 6.9 -6.9 -6.9 -6.9 6.9 -6.9 -6.9 -6.9 6.9 -6.9 -6.9 -6.9 6.9 -6.9 -6.9 -6.9 6.9 -6.9 -6.9 -6.9 6.9 -6.9 -6.9 -6.9 6.9 -6.9 -6.9 -6.9 6.89 -6.9 -6.9 -6.9 6.9 -6.9 -6.9 -13.8 13.79 -6.89 -6.9 -6.9 6.9 -6.9 -6.9 -6.9 6.9 -6.9 -6.9 -6.9 6.9 -6.9 -6.9 -6.9 6.9 -13.79 -13.8 -6.9 6.9 -6.9 -6.9 -6.9 6.9 -6.9 -6.9 -6.9 6.9 -6.9 -6.9 -6.9 6.9 -6.9 -6.9 -6.9 6.9 -6.9 -6.9 -6.9 6.89 -6.9 -6.9 -6.9 6.9 -6.9 -6.9 -6.9 6.89 -6.9 -6.9 -6.9 6.9 -6.9 -6.9 -13.8 13.79 -6.9 -6.9 -6.9 6.9 -6.9 -6.9 -6.9 6.9 -6.9 -6.9 -6.9 6.9 -6.89 -6.9 -6.9 6.9 -13.79 -13.8 -6.9 6.9 -6.9 -6.9 -6.9 6.9 -6.9 -6.9 -6.9 6.9 -6.9 -6.9 -6.9 6.9 -6.9 -6.9 -6.9 6.9 -6.9 -6.9 -6.9 6.9 -6.9 -6.9 -6.9 6.89 -6.89 -6.9 -6.9 6.9 -6.9 -6.9 -6.9 6.9 -6.9 -6.9 -13.8 13.79 -6.9 -6.9 -6.9 6.9 -6.89 -6.9 -6.9 6.9 -6.9 -6.9 -6.9 6.9 -6.9 -6.9 -6.9 6.9 -13.79 -13.8 -6.9 6.9 -6.89 -6.9 -6.9 6.9 -6.9 -6.9 -6.9 6.89 -6.9 -6.9 -6.9 6.9 -6.9 -6.9 -6.9 6.89 -6.89 -6.9 -6.9 6.9 -6.9 -6.9 -6.9 6.9 -6.9 -6.9 -6.9 6.9 -6.9 -6.9 -6.9 6.9 -6.9 -6.9 -13.8 13.79 -6.9 -6.9 -6.9 6.9 -6.9 -6.9 -6.9 6.9 -6.89 -6.9 -6.9 6.9 -6.9 -6.9 -6.9 6.9 -13.79 -13.8 -6.9 6.89 -6.9 -6.9 -6.9 6.9 -6.9 -6.9 -6.9 6.9 -6.9 -6.9 -6.9 6.89 -6.89 -6.9 -6.9 6.9 -6.9 -6.9 -6.9 6.9 -6.9 -6.9 -6.9 6.9 -6.9 -6.9 -6.9 6.89 -6.9 -6.9 -6.9 6.9 -6.9 -6.9 -13.8 13.79 -6.89 -6.9 -6.9 6.9 -6.9 -6.9 -6.9 6.9 -6.9 -6.9 -6.9 6.9 -6.9 -6.9 -6.9 6.9 -13.79 -13.8 -6.9 6.9 -6.9 -6.9 -6.9 6.9 -6.9 -6.9 -6.9 6.9 -6.9 -6.9 -6.9 6.9 -6.9 -6.9 -6.9 6.9 -6.9 -6.9 -6.9 6.89 -6.9 -6.9 -6.9 6.89 -6.9 -6.9 -6.9 6.9 -6.9 -6.9 -6.9 6.9 -6.9 -6.9 -13.8 13.79 -6.9 -6.9 -6.9 6.9 -6.9 -6.9 -6.9 6.9 -6.9 -6.9 -6.9 6.9 -6.9 -6.9 -6.9 6.9 -13.79 -13.8 -6.9 6.9 -6.9 -6.9 -6.9 6.9 -6.9 -6.9 -6.9 6.9 -6.9 -6.9 -6.9 6.9 -6.9 -6.9 -6.9 6.9 -6.89 -6.9 -6.9 6.9 -6.9 -6.9 -6.9 6.9 -6.9 -6.9 -6.9 6.9 -6.9 -6.9 -6.9 6.9 -6.9 -6.9 -13.8 13.79 -6.9 -6.9 -6.9 6.9 -6.9 -6.9 -6.9 6.9 -6.9 -6.9 -6.9 6.9 -6.9 -6.9 -6.9 6.89 -13.79 -13.8 -6.9 6.9 -6.9 -6.9 -6.9 6.9 -6.9 -6.9 -6.9 6.89 -6.9 -6.9 -6.9 6.89 -6.9 -6.9 -6.9 6.9 -6.9 -6.9 -6.9 6.9 -6.9 -6.9 -6.9 6.9 -6.9 -6.9 -6.9 6.9 -6.89 -6.9 -6.9 6.89 -6.89 -6.9 -13.8 13.79 -6.9 -6.9 -6.9 6.9 -6.9 -6.9 -6.9 6.89 -6.9 -6.9 -6.9 6.9 -6.89 -6.9 -6.9 6.9 -13.79 -13.8 -6.9 6.89 -6.9 -6.9 -6.9 6.9 -6.89 -6.9 -6.9 6.9 -6.9 -6.9 -6.9 6.9 -6.9 -6.9 -6.9 6.9 -6.9 -6.9 -6.9 6.9 -6.9 -6.9 -6.9 6.9 -6.89 -6.9 -6.9 6.9 -6.9 -6.9 -6.9 6.9 -6.9 -6.9 -13.8 13.79 -6.9 -6.9 -6.9 6.89 -6.89 -6.9 -6.9 6.9 -6.9 -6.9 -6.9 6.9 -6.9 -6.9 -6.9 6.9 -13.79 -13.8 -6.9 6.89 -6.89 -6.9 -6.9 6.9 -6.9 -6.9 -6.9 6.9 -6.9 -6.9 -6.9 6.9 -6.9 -6.9 -6.9 6.9 -6.9 -6.9 -6.9 6.89 -6.9 -6.9 -6.9 6.9 -6.9 -6.9 -6.9 6.9 -6.9 -6.9 -6.9 6.9 -6.9 -6.9 -13.8 13.79 -6.89 -6.9 -6.9 6.9 -6.9 -6.9 -6.9 6.9 -6.9 -6.9 -6.9 6.89 -6.9 -6.9 -6.9 6.89 -13.79 -13.8 -6.9 6.9 -6.9 -6.9 -6.9 6.9 -6.9 -6.9 -6.9 6.9 -6.9 -6.9 -6.9 6.89 -6.9 -6.9 -6.9 6.9 -6.9 -6.9 -6.9 6.9 -6.9 -6.9 -6.9 6.9 -6.9 -6.9 -6.9 6.9 -6.9 -6.9 -6.9 6.89 -6.9 -6.9 -13.8 13.79 -6.89 -6.9 -6.9 6.9 -6.9 -6.9 -6.9 6.89 -6.89 -6.9 -6.9 6.9 -6.9 -6.9 -6.9 6.9 -13.79 -13.8 -6.9 6.9 -6.9 -6.9 -6.9 6.9 -6.9 -6.9 -6.9 6.9 -6.9 -6.9 -6.9 6.9 -6.9 -6.9 -6.9 6.9 -6.9 -6.9 -6.9 6.9 -6.9 -6.9 -6.9 6.89 -6.9 -6.9 -6.9 6.9 -6.9 -6.9 -6.9 6.9 -6.9 -6.9 -13.8 13.79 -6.9 -6.9 -6.9 6.89 -6.9 -6.9 -6.9 6.9 -6.9 -6.9 -6.9 6.9 -6.9 -6.9 -6.9 6.9 -13.79 -13.8 -6.9 6.89 -6.9 -6.9 -13.8 13.79 -27.59 -27.6 6.9 -6.9 -6.9 -6.9 6.9 -6.9 -6.9 -6.9 6.9 -6.89 -6.9 -6.9 6.9 -6.9 -6.89 -6.9 6.9 -6.9 -6.9 -6.9 6.9 -6.9 -6.9 -6.9 6.9 -6.89 -6.9 -6.9 6.9 -6.9 -6.9 -6.9 6.9 -6.9 -6.89 -6.9 6.9 -6.9 -6.9 -6.9 6.9 -6.9 -6.9 -6.9 6.9 -6.89 -6.9 -6.9 6.9 -6.9 -6.9 -6.9 6.9 -6.9 -6.9 -6.9 6.9 -6.9 -6.9 -6.9 6.9 -6.89 -6.9 -6.9 6.9 -6.9 -6.9 -6.9 6.9 -6.9 -6.89 -6.9 6.9 -6.9 -6.9 -6.9 6.9 -6.9 -6.9 -6.9 6.9 -6.9 -6.9 -6.9 6.9 -6.9 -6.89 -6.9 6.9 -6.9 -6.9 -6.9 6.9 -6.9 -6.9 -6.9 6.9 -6.89 -6.9 -6.9 6.9 -6.9 -6.9 -6.9 6.9 -6.9 -6.9 -6.9 6.9 -6.9 -6.9 -6.9 6.9 -6.9 -6.9 -6.9 6.9 -6.9 -6.9 -6.9 6.9 -6.9 -6.89 -6.9 6.9 -6.9 -6.9 -6.9 6.9 -6.9 -6.9 -6.9 6.9 -6.9 -6.9 -6.9 6.9 -6.9 -6.89 -6.9 6.9 -6.9 -6.89 -6.9 6.9 -6.9 -6.9 -6.9 6.9 -6.89 -6.89 -6.9 6.9 -6.9 -6.9 -6.9 6.9 -6.9 -6.9 -6.9 6.9 -6.9 -6.9 -6.9 6.9 -6.9 -6.9 -6.9 6.9 -6.9 -6.9 -6.9 6.9 -6.9 -6.9 -6.9 6.9 -6.9 -6.9 -6.9 6.9 -6.9 -6.9 -6.9 6.9 -6.9 -6.9 -6.9 6.9 -6.9 -6.9 -6.9 6.9 -6.9 -6.89 -6.9 6.9 -6.9 -6.9 -6.9 6.9 -6.89 -6.89 -6.9 6.9 -6.9 -6.9 -6.9 6.9 -6.9 -6.9 -6.9 6.9 -6.9 -6.9 -6.9 6.9 -6.9 -6.9 -6.9 6.9 -6.9 -6.9 -6.9 6.9 -6.9 -6.9 -6.9 6.9 -6.9 -6.9 -6.9 6.9 -6.9 -6.9 -6.9 6.9 -6.9 -6.9 -6.9 6.9 -6.9 -6.9 -6.9 6.9 -6.9 -6.9 -6.9 6.9 -6.9 -6.89 -6.9 6.9 -6.89 -6.9 -6.9 6.9 -6.9 -6.9 -6.9 6.9 -6.89 -6.9 -6.9 6.9 -6.9 -6.9 -6.9 6.9 -6.9 -6.9 -6.9 6.9 -6.9 -6.9 -6.9 6.9 -6.9 -6.9 -6.9 13.8 -13.79 6.9 6.9 13.8 -13.79 6.9 6.9 6.9 -6.89 6.9 6.9 6.9 -6.9 6.9 6.9 6.9 -6.9 6.9 6.9 6.9 -6.9 6.9 6.9 6.9 -6.9 6.9 6.9 6.9 -6.9 6.9 6.9 6.9 -6.9 6.9 6.9 6.9 -6.9 6.89 6.9 6.9 -6.9 6.9 6.9 6.9 -6.89 6.9 6.9 6.9 -6.9 6.9 6.9 6.9 -6.9 6.9 6.9 6.9 -6.9 6.9 6.9 6.9 -6.89 6.9 6.9 6.9 -6.9 6.9 6.9 6.9 -6.9 6.9 6.9 6.9 -6.9 6.9 6.9 6.9 -6.9 6.9 6.9 6.9 -6.9 6.9 6.9 6.9 -6.9 6.9 6.9 6.9 -6.89 6.89 6.9 6.9 -6.9 6.9 6.9 6.9 -6.89 6.9 6.9 6.9 -6.9 6.9 6.9 6.9 -6.9 6.9 6.9 6.9 -6.9 6.9 6.9 6.9 -6.9 6.9 6.9 6.9 -6.89 6.9 6.9 6.9 -6.9 6.9 6.9 6.9 -6.9 6.9 6.9 6.9 -6.9 6.9 6.9 6.9 -6.9 6.9 6.9 6.9 -6.9 6.9 6.9 6.9 -6.89 6.89 6.9 6.9 -6.9 6.9 6.9 6.9 -6.9 6.9 6.9 6.9 -6.89 6.9 6.9 6.9 -6.9 6.9 6.9 6.9 -6.9 6.9 6.9 6.9 -6.9 6.9 6.9 6.9 -6.89 6.9 6.9 6.9 -6.9 6.9 6.9 6.9 -6.9 6.9 6.9 6.9 -6.9 6.9 6.9 6.9 -6.9 6.9 6.9 6.9 -6.9 6.9 6.9 6.9 -6.9 6.89 6.9 6.9 -6.9 6.9 6.9 6.9 -6.9 6.9 6.9 6.9 -6.89 6.9 6.9 6.9 -6.9 6.9 6.9 6.9 -6.9 6.9 6.9 6.9 -6.9 6.9 6.9 6.9 -6.89 6.9 6.9 6.9 -6.89 6.9 6.9 6.9 -6.9 6.89 6.9 6.9 -6.9 6.9 6.9 6.9 -6.9 6.9 6.9 6.9 -6.9 6.9 6.9 6.9 -6.9 6.89 6.9 6.9 -6.9 6.9 6.9 6.9 -6.9 6.9 6.9 6.9 -6.9 6.9 6.9 6.9 -6.9 6.9 6.9 6.9 -6.9 6.89 6.9 6.9 -6.9 6.9 6.9 6.9 -6.9 6.9 6.9 6.9 -6.9 6.89 6.9 6.9 -6.89 6.89 6.9 6.9 -6.9 6.9 6.9 6.9 -6.9 6.9 6.9 6.9 -6.9 6.9 6.9 6.9 -6.9 6.9 6.9 6.9 -6.9 6.89 6.9 6.9 -6.9 6.9 6.9 6.9 -6.9 6.9 6.9 6.9 -6.9 6.9 6.9 6.9 -6.9 6.89 6.9 6.9 -6.9 6.9 6.9 6.9 -6.9 6.9 6.9 6.9 -6.9 6.9 6.9 6.9 -6.89 6.9 6.9 6.9 -6.9 6.89 6.9 6.9 -6.9 6.9 6.9 6.9 -6.9 6.9 6.9 6.9 -6.9 6.9 6.9 6.9 -6.9 20.69 20.7 -6.9 6.89 6.9 6.9 -6.9 6.9 6.9 6.9 -6.9 6.9 6.89 6.9 -6.9 6.9 6.9 6.9 -6.9 6.9 6.9 6.9 -6.9 6.89 6.9 6.9 -6.9 6.9 6.89 6.9 -6.9 6.9 6.9 6.9 -6.9 6.9 6.9 6.9 -6.9 6.89 6.9 6.9 -6.9 6.9 6.9 6.9 -6.9 6.9 6.9 6.9 -6.9 6.9 6.9 6.9 -6.9 6.9 6.9 6.9 -6.9 6.89 6.9 6.9 -6.9 6.9 6.89 6.9 -6.9 6.9 6.9 6.9 -6.9 6.9 6.9 6.9 -6.9 6.89 6.9 6.9 -6.9 6.9 6.89 6.9 -6.9 6.9 6.9 6.9 -6.9 6.9 6.9 6.9 -6.9 6.9 6.89 6.9 -6.9 6.89 6.9 6.9 -6.9 6.9 6.9 6.9 -6.9 6.9 6.9 6.9 -6.9 6.9 6.9 6.9 -6.9 6.89 6.9 6.9 -6.9 6.9 6.89 6.9 -6.9 6.9 6.9 6.9 -6.9 6.9 6.9 6.9 -6.9 6.9 48.27 48.3 6.9 -6.9 6.9 6.9 6.9 -6.9 13.79 13.8 6.9 -6.9 6.9 6.9 13.8 -13.79 6.89 6.9 48.31 -48.28 -6.9 -6.9 6.9 -6.9 -6.9 -6.9 13.8 -13.79 -6.9 -6.9 6.9 -6.9 -6.9 -6.9 6.9 -6.9 -6.9 -6.9 6.9 -6.9 -6.89 -6.9 6.9 -6.9 -6.89 -6.9 6.9 -6.9 -6.9 -6.9 6.9 -6.9 -6.9 -6.9 6.9 -6.9 -6.89 -6.9 6.9 -6.89 -6.9 -6.9 6.9 -6.9 -6.9 -6.9 6.9 -6.9 -6.9 -6.9 6.9 -6.89 -6.9 -6.9 6.9 -6.9 -6.9 -6.9 6.9 -6.9 -6.9 -6.9 6.9 -6.9 -6.9 -6.9 6.9 -6.9 -6.9 -6.9 6.9 -6.9 -6.9 -6.9 6.9 -6.89 -6.9 -6.9 6.9 -6.9 -6.9 -6.9 6.9 -6.9 -6.9 -6.9 6.9 -6.9 -6.9 -6.9 6.9 -6.9 -6.89 -6.9 6.9 -6.9 -6.9 -6.9 6.9 -6.9 -6.9 -6.9 6.9 -6.9 -6.89 -6.9 6.9 -6.9 -6.89 -6.9 6.9 -6.89 -6.9 -6.9 6.9 -6.9 -6.9 -6.9 6.9 -6.9 -6.9 -6.9 6.9 -6.9 -6.9 -6.9 13.8 -13.79 6.9 6.9 6.9 -6.9 6.9 6.9 6.9 -6.9 6.9 6.9 6.9 -6.9 6.9 6.9 6.9 -6.9 6.9 6.9 6.9 -6.9 6.9 6.9 6.9 -6.9 6.9 6.9 6.9 -6.9 6.9 6.9 6.9 -6.89 6.89 6.9 6.9 -6.9 6.9 6.9 6.9 -6.9 6.89 6.9 6.9 -6.9 6.9 6.9 -6.9 6.9 6.9 6.9 -6.9 6.9 6.89 6.9 -6.9 6.9 6.9 6.9 -6.9 6.9 6.9 6.9 -6.9 6.9 6.9 6.9 -6.9 6.9 6.9 6.9 -6.9 6.9 6.9 6.9 -6.9 6.89 6.9 6.9 -6.9 6.9 6.9 6.9 -6.9 6.89 6.9 6.9 -6.9 6.9 6.89 6.9 -6.9 6.9 6.9 6.9 -6.9 6.9 6.9 6.9 -6.9 6.9 6.9 6.9 -6.9 6.9 6.89 6.9 -6.9 6.9 6.9 6.9 -6.9 6.9 6.9 6.9 -6.9 6.9 13.79 13.8 -6.9 6.9 6.9 6.9 -6.9 6.89 55.17 55.2 6.9 -6.9 6.89 6.9 6.9 -6.9 6.9 6.9 6.9 -6.9 6.9 6.9 13.8 -13.79 6.9 6.9 41.4 -41.38 -6.9 -6.9 13.8 -13.79 -6.9 -6.9 6.9 -6.9 -6.9 -6.9 6.9 -6.9 -6.89 -6.9 6.9 -6.9 -6.9 -6.9 6.9 -6.9 -6.9 -6.9 6.9 -6.9 -6.9 -6.9 6.9 -6.9 -6.9 -6.9 6.9 -6.9 -6.89 -6.9 6.9 -6.9 -6.9 -6.9 6.9 -6.9 -6.9 -6.9 6.9 -6.9 -6.9 -6.9 6.9 -6.9 -6.9 -6.9 6.9 -6.9 -6.9 -6.9 6.9 -6.9 -6.9 -6.9 6.9 -6.9 -6.9 -6.9 6.9 -6.9 -6.9 -6.9 6.9 -6.9 -6.9 -6.9 6.9 -6.9 -6.9 -6.9 6.9 -6.89 -6.9 -6.9 13.8 -13.79 6.9 6.9 6.9 -6.9 6.9 6.9 6.9 -6.9 6.9 6.9 6.9 -6.9 6.9 6.9 6.9 -6.9 6.9 6.9 6.9 -6.9 6.9 6.9 6.9 -6.9 6.9 6.9 6.9 -6.9 6.9 6.9 6.9 -6.9 6.9 6.9 6.9 -6.89 6.9 6.9 6.9 -6.9 6.9 6.9 6.9 -6.89 6.9 6.9 -6.9 6.9 6.9 6.9 -6.9 6.9 6.89 6.9 -6.9 6.9 6.9 6.9 -6.9 6.9 6.9 6.9 -6.9 6.89 6.9 6.9 -6.9 6.9 6.9 6.9 -6.9 6.9 6.9 6.9 -6.9 6.9 6.9 6.9 -6.9 6.9 6.89 6.9 -6.9 6.89 6.9 6.9 -6.9 6.9 6.9 6.9 -6.9 6.9 6.9 6.9 -6.9 6.9 6.9 6.9 -6.9 6.9 6.89 6.9 -6.9 6.9 6.9 6.9 -6.9 6.9 6.9 6.9 -6.9 6.9 6.9 6.9 -6.9 6.89 6.89 6.9 -6.9 6.89 6.9 6.9 -6.9 6.9 6.9 6.9 -6.9 6.9 6.9 6.9 -6.9 6.9 6.89 6.9 -6.9 6.9 6.9 6.9 -6.9 6.9 6.9 6.9 -6.9 6.9 6.9 6.9 -6.9 6.9 6.9 6.9 -6.9 6.9 6.9 6.9 -6.9 6.89 6.9 6.9 -6.9 6.9 6.9 6.9 -6.9 6.9 6.9 6.9 -6.9 6.89 13.79 13.8 -6.9 6.89 20.69 20.7 -6.9 6.89 6.9 6.9 6.9 -6.9 20.69 20.7 6.9 -6.89 13.79 13.8 6.9 -6.9 6.9 6.9 6.9 -6.9 6.9 6.9 13.8 -13.79 6.9 6.9 41.4 -41.38 -6.9 -6.9 13.8 -13.79 -6.9 -6.9 6.9 -6.89 -6.9 -6.9 6.9 -6.9 -6.9 -6.9 6.9 -6.9 -6.9 -6.9 6.9 -6.9 -6.9 -6.9 6.9 -6.9 -6.9 -6.9 6.9 -6.89 -6.9 -6.9 6.9 -6.9 -6.89 -6.9 6.9 -6.9 -6.9 -6.9 6.9 -6.9 -6.9 -6.9 6.9 -6.89 -6.9 -6.9 6.9 -6.9 -6.89 -6.9 6.9 -6.9 -6.9 -6.9 6.9 -6.9 -6.9 -6.9 6.9 -6.9 -6.9 -6.9 6.9 -6.9 -6.9 -6.9 6.9 -6.9 -6.9 -6.9 6.9 -6.9 -6.9 -6.9 6.9 -6.9 -6.9 -6.9 6.9 -6.89 -6.9 -6.9 6.9 -6.9 -6.89 -6.9 6.9 -6.9 -6.9 -6.9 6.9 -6.9 -6.9 -6.9 6.9 -6.9 -6.9 -6.9 6.9 -6.9 -6.89 -6.9 6.9 -6.9 -6.89 -6.9 6.9 -6.9 -6.9 -6.9 6.9 -6.9 -6.9 -6.9 6.9 -6.9 -6.9 -6.9 6.9 -6.9 -6.9 -6.9 6.9 -6.9 -6.9 -6.9 13.8 -13.79 6.9 6.9 6.9 -6.89 6.89 6.9 6.9 -6.9 6.9 6.9 6.9 -6.9 6.9 6.9 6.9 -6.9 6.9 6.9 6.9 -6.89 6.9 6.9 6.9 -6.9 6.9 6.9 6.9 -6.9 6.9 6.9 6.9 -6.9 6.9 6.9 6.9 -6.9 6.89 6.9 6.9 -6.9 6.89 6.9 6.9 -6.9 6.9 6.9 -6.9 6.9 6.9 6.9 -6.9 6.9 6.9 6.9 -6.9 6.9 6.9 6.9 -6.9 6.9 6.9 6.9 -6.9 6.89 6.9 6.9 -6.9 6.9 6.9 6.9 -6.9 6.9 6.9 6.9 -6.9 6.9 6.89 6.9 -6.9 6.9 6.9 6.9 -6.9 6.9 6.9 6.9 -6.9 6.9 6.9 6.9 -6.9 6.9 6.9 6.9 -6.9 6.9 6.9 6.9 -6.9 6.9 6.9 6.9 -6.9 6.9 6.9 6.9 -6.9 6.89 6.9 6.9 -6.9 6.9 6.9 6.9 -6.9 6.89 6.9 6.9 -6.9 6.9 6.9 6.9 -6.9 6.89 20.69 20.7 -6.9 6.9 27.59 27.6 6.9 -6.9 13.79 13.8 6.9 -6.9 6.9 6.9 6.9 -6.9 6.9 6.9 6.9 -6.89 6.9 6.9 13.8 -13.79 6.9 6.9 41.4 -41.38 -6.9 -6.9 6.9 -6.9 -6.9 -6.9 13.8 -13.79 -6.89 -6.9 6.9 -6.9 -6.9 -6.9 6.9 -6.9 -6.9 -6.9 6.9 -6.9 -6.9 -6.9 6.9 -6.9 -6.9 -6.9 6.9 -6.9 -6.9 -6.9 6.9 -6.9 -6.9 -6.9 6.9 -6.9 -6.9 -6.9 6.9 -6.9 -6.9 -6.9 6.9 -6.89 -6.9 -6.9 6.9 -6.9 -6.9 -6.9 6.9 -6.9 -6.9 -6.9 6.9 -6.9 -6.9 -6.9 6.9 -6.9 -6.9 -6.9 6.9 -6.9 -6.9 -6.9 6.9 -6.9 -6.9 -6.9 6.9 -6.9 -6.9 -6.9 6.9 -6.9 -6.9 -6.9 13.8 -13.79 6.9 6.9 6.9 -6.89 6.9 6.9 6.9 -6.9 6.9 6.9 6.9 -6.9 6.9 6.9 6.9 -6.89 6.89 6.9 6.9 -6.9 6.9 6.9 6.9 -6.9 6.9 6.9 6.9 -6.9 6.9 6.9 6.9 -6.89 6.89 6.9 6.9 -6.9 6.9 6.9 6.9 -6.9 6.9 6.9 6.9 -6.9 13.79 13.8 -6.9 6.9 6.89 6.9 -6.9 6.9 6.9 6.9 -6.9 6.9 6.9 6.9 -6.9 6.9 6.9 6.9 -6.9 6.9 6.9 6.9 -6.9 6.9 6.9 6.9 -6.9 6.9 6.9 6.9 -13.8 13.79 6.9 6.9 -6.9 6.9 13.79 13.8 -6.9 6.9 6.9 6.9 -6.9 6.9 6.9 6.9 -6.9 6.9 6.9 6.9 -6.9 6.9 6.89 6.9 -6.9 6.9 6.9 6.9 -6.9 6.9 6.9 6.9 -6.9 6.9 6.9 6.9 -6.9 6.9 6.9 6.9 -6.9 6.9 6.9 6.9 -6.9 6.9 6.9 6.9 -6.9 6.9 6.9 6.9 -6.9 6.9 6.9 6.9 -13.8 13.79 6.9 6.9 -6.9 6.9 13.79 13.8 -6.9 6.9 6.9 6.9 -6.9 6.9 6.89 6.9 -6.9 6.9 6.89 6.9 -6.9 6.9 6.9 6.9 -6.9 6.9 6.89 6.9 -6.9 6.9 6.9 6.9 -6.9 6.9 20.69 20.7 -6.9 6.9 13.79 13.8 6.9 -6.9 20.69 20.7 6.9 -6.9 13.79 13.8 6.9 -6.89 6.9 6.9 13.8 -13.79 6.9 6.9 20.7 -20.69 6.9 6.9 20.7 -20.69 -6.9 -6.9 13.8 -13.79 -6.9 -6.9 6.9 -6.9 -6.9 -6.9 6.9 -6.9 -6.89 -6.9 6.9 -6.9 -6.89 -6.9 6.9 -6.9 -6.9 -6.9 6.9 -6.9 -6.9 -6.9 13.8 -13.79 -6.89 -6.9 6.9 -6.9 -6.9 -6.9 6.9 -6.9 -6.9 -6.9 6.9 -6.9 -13.79 -13.8 6.9 -6.9 -6.9 -6.9 6.9 -6.9 -6.9 -6.9 6.9 -6.89 -6.9 -6.9 6.9 -6.9 -6.9 -6.9 6.9 -6.9 -6.89 -6.9 6.9 -6.9 -6.9 -6.9 6.9 -6.9 -6.9 -6.9 6.9 -6.9 -6.9 -6.9 6.9 -6.9 -6.9 -6.9 6.9 -6.9 -6.9 -6.9 13.8 -13.79 -6.9 -6.9 6.9 -6.9 -6.9 -6.9 6.9 -6.9 -6.9 -6.9 6.9 -6.9 -13.79 -13.8 6.9 -6.89 -6.9 -6.9 6.9 -6.9 -6.89 -6.9 6.9 -6.9 -6.9 -6.9 6.9 -6.9 -6.89 -6.9 6.9 -6.9 -6.9 -6.9 6.9 -6.89 -6.9 -6.9 13.8 -13.79 6.9 6.9 6.9 -6.9 6.9 6.9 6.9 -6.9 6.89 6.9 6.9 -6.9 6.9 6.9 6.9 -6.9 6.9 6.9 6.9 -6.9 6.9 6.9 6.9 -6.9 6.9 6.9 6.9 -6.9 6.9 6.9 6.9 -6.9 6.9 6.9 6.9 -6.9 6.9 6.9 6.9 -6.9 6.9 6.9 6.9 -6.89 13.79 13.8 -6.9 6.9 6.89 6.9 -6.9 6.9 6.9 6.9 -6.9 6.9 6.9 6.9 -6.9 6.9 6.89 6.9 -6.9 6.9 6.9 6.9 -6.9 6.9 6.9 6.9 -6.9 6.9 6.9 6.9 -6.9 6.9 6.89 6.9 -6.9 6.9 6.9 6.9 -6.9 6.89 6.9 6.9 -6.9 6.9 6.9 6.9 -6.9 6.9 6.9 6.9 -6.9 6.9 6.9 6.9 -6.9 6.9 6.9 6.9 -6.9 6.9 6.9 6.9 -6.9 6.9 6.9 6.9 -6.9 6.9 6.89 6.9 -6.9 6.9 13.79 13.8 -6.9 6.89 6.9 6.9 -6.9 6.9 41.38 41.4 6.9 -6.9 13.79 13.8 6.9 -6.89 6.9 6.9 6.9 -6.9 6.9 6.9 6.9 -6.9 6.89 6.9 27.6 -27.58 6.9 6.9 6.9 -6.9 -6.9 -6.9 27.6 -27.59 -6.89 -6.9 6.9 -6.9 -6.9 -6.9 6.9 -6.9 -6.9 -6.9 6.9 -6.9 -6.9 -6.9 6.9 -6.9 -6.9 -6.9 6.9 -6.89 -6.9 -6.9 6.9 -6.9 -6.9 -6.9 6.9 -6.89 -6.9 -6.9 6.9 -6.9 -6.9 -6.9 6.9 -6.9 -6.89 -6.9 6.9 -6.9 -6.9 -6.9 6.9 -6.9 -6.9 -6.9 6.9 -6.9 -6.9 -6.9 6.9 -6.9 -6.89 -6.9 6.9 -6.9 -6.89 -6.9 6.9 -6.9 -6.9 -6.9 6.9 -6.9 -6.9 -6.9 6.9 -6.9 -6.9 -6.9 6.9 -6.89 -6.9 -6.9 6.9 -6.9 -6.9 -6.9 6.9 -6.9 6.9 6.9 6.9 -6.89 6.9 6.9 6.9 -6.9 6.9 6.9 6.9 -6.9 6.9 6.9 6.9 -6.9 6.9 6.9 6.9 -6.9 6.9 6.9 6.9 -6.9 6.89 6.9 6.9 -6.9 6.9 6.9 6.9 -6.9 6.9 6.9 6.9 -6.9 6.9 6.9 6.9 -6.9 6.9 6.9 6.9 -6.9 13.79 13.8 -6.9 6.9 6.9 6.9 -6.9 6.9 6.9 6.9 -6.9 6.9 6.9 6.9 -6.9 6.9 6.9 6.9 -6.9 6.89 6.9 6.9 -6.9 6.9 6.9 6.9 -6.9 6.89 6.89 6.9 -6.9 6.9 6.89 6.9 -6.9 6.9 6.9 6.9 -6.9 6.9 6.9 6.9 -6.9 6.9 6.9 6.9 -6.9 6.9 6.9 6.9 -6.9 6.9 6.9 6.9 -6.9 6.9 6.9 6.9 -6.9 6.9 6.9 6.9 -6.9 6.89 6.9 6.9 -6.9 6.9 6.9 6.9 -6.9 6.9 6.9 6.9 -6.9 6.9 6.9 6.9 -6.9 6.89 6.89 6.9 -6.9 6.9 6.9 6.9 -6.9 6.9 6.9 6.9 -6.9 6.9 6.9 6.9 -6.9 6.9 6.9 6.9 -6.9 6.89 6.89 6.9 -6.9 6.9 6.9 6.9 -6.9 6.9 6.9 6.9 -6.9 6.9 6.89 6.9 -6.9 6.89 6.9 6.9 -6.9 6.9 13.79 13.8 -6.9 6.9 6.9 6.9 -6.9 6.9 41.38 41.4 6.9 -6.9 13.79 13.8 6.9 -6.89 6.9 6.9 6.9 -6.9 6.9 6.9 13.8 -13.79 6.9 6.9 20.7 -20.69 6.9 6.9 6.9 -6.89 -6.9 -6.9 20.7 -20.69 -6.9 -6.9 13.8 -13.79 -6.89 -6.9 6.9 -6.9 -6.9 -6.9 6.9 -6.9 -6.9 -6.9 6.9 -6.9 -6.9 -6.9 6.9 -6.9 -6.89 -6.9 6.9 -6.9 -6.9 -6.9 6.9 -6.89 -6.9 -6.9 6.9 -6.9 -6.9 -6.9 6.9 -6.89 -6.9 -6.9 6.9 -6.9 -6.9 -6.9 6.9 -6.9 -6.9 -6.9 6.9 -6.9 -6.9 -6.9 6.9 -6.9 -6.9 -6.9 6.9 -6.9 -6.89 -6.9 6.9 -6.9 -6.9 -6.9 6.9 -6.9 -6.9 -6.9 6.9 -6.9 -6.9 -6.9 6.9 -6.89 -6.89 -6.9 6.9 -6.9 -6.9 -6.9 6.9 -6.9 -6.9 -6.9 6.9 -6.9 -6.9 -6.9 6.9 -6.89 -6.9 -6.9 6.9 -6.9 -6.9 -6.9 6.9 -6.9 -6.9 -6.9 6.9 -6.9 -6.9 -6.9 6.9 -6.9 -6.9 -6.9 6.9 -6.89 -6.89 -6.9 6.9 -6.9 -6.9 -6.9 6.9 -6.9 -6.9 -6.9 6.9 -6.9 -6.9 -6.9 6.9 -6.89 -6.89 -6.9 6.9 -6.9 6.9 6.9 6.9 -6.9 6.9 6.9 6.9 -6.9 6.9 6.9 6.9 -6.9 6.9 6.9 6.9 -6.89 6.89 6.9 6.9 -6.9 6.9 6.9 6.9 -6.9 6.9 6.9 6.9 -6.9 6.9 6.9 6.9 -6.9 6.89 6.9 6.9 -6.89 6.9 6.9 6.9 -6.9 6.9 6.9 6.9 -6.9 13.79 13.8 -6.9 6.9 6.89 6.9 -6.9 6.9 6.89 6.9 -6.9 6.9 6.9 6.9 -6.9 6.89 6.9 6.9 -6.9 6.9 6.9 6.9 -6.9 6.9 6.9 6.9 -6.9 6.9 6.9 6.9 -6.9 6.89 6.9 6.9 -6.9 6.9 6.9 6.9 -6.9 6.9 6.9 6.9 -6.9 6.9 6.9 6.9 -6.9 6.9 6.9 6.9 -6.9 6.89 6.9 6.9 -6.9 6.9 6.89 6.9 -6.9 6.9 6.9 6.9 -6.9 6.9 6.9 6.9 -6.9 6.89 6.9 6.9 -6.9 6.9 6.9 6.9 -6.9 6.9 13.79 13.8 -6.9 6.9 41.38 41.4 6.9 -6.9 13.79 13.8 6.9 -6.9 6.9 6.9 6.9 -6.9 6.9 6.9 6.9 -6.9 6.89 6.9 55.2 -55.17 -6.9 -6.9 6.9 -6.89 -6.9 -6.9 13.8 -13.79 -6.9 -6.9 6.9 -6.9 -6.89 -6.9 6.9 -6.9 -6.9 -6.9 6.9 -6.9 -6.9 -6.9 6.9 -6.9 -6.9 -6.9 6.9 -6.9 -6.9 -6.9 6.9 -6.89 -6.9 -6.9 6.9 -6.89 -6.9 -6.9 6.9 -6.9 -6.9 -6.9 6.9 -6.9 -6.9 -6.9 6.9 -6.9 -6.9 -6.9 6.9 -6.89 -6.9 -6.9 6.9 -6.9 -6.9 -6.9 6.9 -6.9 -6.89 -6.9 6.9 -6.9 -6.9 -6.9 6.9 -6.9 -6.89 -6.9 6.9 -6.89 -6.9 -6.9 6.9 -6.9 -6.9 -6.9 6.9 -6.9 6.9 6.9 6.9 -6.9 6.9 6.9 6.9 -6.9 6.89 6.9 6.9 -6.9 6.9 6.9 6.9 -6.9 6.9 6.9 6.9 -6.89 6.89 6.9 6.9 -6.9 6.9 6.9 6.9 -6.89 6.89 6.9 6.9 -6.9 6.9 6.9 6.9 -6.9 6.9 6.9 6.9 -6.9 6.9 6.9 6.9 -6.9 6.89 6.9 6.9 -6.9 6.9 6.9 -6.9 6.9 6.9 6.9 -6.9 6.9 6.9 6.9 -6.9 6.9 6.9 6.9 -6.9 6.9 6.9 6.9 -6.9 6.9 6.9 6.9 -6.9 6.9 6.9 6.9 -6.9 6.9 6.9 6.9 -6.9 6.9 6.89 6.9 -6.9 6.9 6.9 6.9 -6.9 6.9 6.9 6.9 -6.9 6.89 6.9 6.9 -6.9 6.9 6.9 6.9 -6.9 6.9 6.9 6.9 -6.9 6.9 6.9 6.9 -6.9 6.9 6.9 6.9 -6.9 6.9 6.9 6.9 -6.9 6.9 6.89 6.9 -6.9 6.9 6.9 6.9 -6.9 6.9 6.9 6.9 -6.9 6.89 6.9 6.9 -6.9 6.9 6.9 6.9 -6.9 6.9 6.89 6.9 -6.9 6.9 6.9 6.9 -6.9 6.89 6.9 6.9 -6.9 6.9 6.9 6.9 -6.9 6.9 6.9 6.9 -6.9 6.9 6.9 6.9 -6.9 6.9 6.9 6.9 -6.9 6.89 6.9 6.9 -6.9 6.9 13.79 13.8 -6.9 6.9 6.9 6.9 -6.9 6.9 48.27 48.3 6.9 -6.9 13.79 13.8 6.9 -6.9 6.9 6.9 6.9 -6.9 6.9 6.9 13.8 -13.79 6.89 6.9 41.4 -41.38 -6.9 -6.9 13.8 -13.79 -6.9 -6.9 6.9 -6.9 -6.9 -6.9 6.9 -6.9 -6.9 -6.9 6.9 -6.9 -6.9 -6.9 6.9 -6.9 -6.9 -6.9 6.9 -6.89 -6.89 -6.9 6.9 -6.9 -6.9 -6.9 6.9 -6.9 -6.9 -6.9 6.9 -6.9 -6.89 -6.9 6.9 -6.89 -6.9 -6.9 6.9 -6.9 -6.9 -6.9 6.9 -6.9 -6.9 -6.9 6.9 -6.9 -6.89 -6.9 6.9 -6.9 -6.9 -6.9 6.9 -6.89 -6.9 -6.9 6.9 -6.9 -6.9 -6.9 6.9 -6.89 -6.9 -6.9 6.9 -6.9 -6.9 -6.9 6.9 -6.89 -6.9 -6.9 6.9 -6.9 -6.9 -6.9 6.9 -6.9 -6.9 -6.9 6.9 -6.9 -6.89 -6.9 6.9 -6.9 -6.9 -6.9 6.9 -6.9 -6.9 -6.9 6.9 -6.9 -6.9 -6.9 6.9 -6.9 -6.89 -6.9 6.9 -6.9 -6.89 -6.9 6.9 -6.9 -6.9 -6.9 6.9 -6.9 -6.9 -6.9 6.9 -6.89 -6.9 -6.9 6.9 -6.9 -6.9 -6.9 13.8 -13.79 6.9 6.9 6.9 -6.9 6.9 6.9 6.9 -6.9 6.9 6.9 6.9 -6.9 6.9 6.9 6.9 -6.9 6.89 6.9 6.9 -6.89 6.9 6.9 6.9 -6.9 6.89 6.9 6.9 -6.9 6.9 6.9 6.9 -6.9 6.9 6.9 6.9 -6.89 6.9 6.9 6.9 -6.9 6.9 6.9 6.9 -6.9 6.9 6.9 -6.9 6.9 6.9 6.9 -6.9 6.9 6.89 6.9 -6.9 6.89 6.9 6.9 -6.9 6.9 6.9 6.9 -6.9 6.9 6.9 6.9 -6.9 6.89 6.9 6.9 -6.9 6.9 6.89 6.9 -6.9 6.9 6.89 6.9 -6.9 6.9 6.9 6.9 -6.9 6.9 6.9 6.9 -6.9 6.9 6.89 6.9 -6.9 6.89 6.9 6.9 -6.9 6.9 6.9 6.9 -6.9 6.9 6.9 6.9 -6.9 6.9 6.9 6.9 -6.9 6.9 6.9 6.9 -6.9 6.9 6.9 6.9 -6.9 6.9 6.9 6.9 -6.9 6.9 13.79 13.8 -6.9 6.9 55.17 55.2 6.9 -6.9 6.89 6.9 6.9 -6.9 6.9 6.9 6.9 -6.9 6.9 6.9 13.8 -13.79 6.9 6.9 41.4 -41.38 -6.9 -6.9 13.8 -13.79 -6.9 -6.9 6.9 -6.89 -6.9 -6.9 6.9 -6.9 -6.89 -6.9 6.9 -6.9 -6.9 -6.9 6.9 -6.9 -6.9 -6.9 6.9 -6.89 -6.9 -6.9 6.9 -6.9 -6.89 -6.9 6.9 -6.9 -6.9 -6.9 6.9 -6.9 -6.9 -6.9 6.9 -6.9 -6.89 -6.9 6.9 -6.89 -6.9 -6.9 6.9 -6.9 -6.9 -6.9 6.9 -6.9 -6.9 -6.9 6.9 -6.9 -6.9 -6.9 6.9 -6.89 -6.9 -6.9 6.9 -6.9 -6.89 -6.9 6.9 -6.9 -6.9 -6.9 6.9 -6.9 -6.9 -6.9 6.9 -6.9 -6.9 -6.9 13.8 -13.79 6.9 6.9 6.9 -6.9 6.9 6.9 6.9 -6.9 6.9 6.9 6.9 -6.89 6.9 6.9 6.9 -6.9 6.9 6.9 6.9 -6.9 6.9 6.9 6.9 -6.9 6.9 6.9 6.9 -6.9 6.89 6.9 6.9 -6.89 6.9 6.9 6.9 -6.9 6.9 6.9 6.9 -6.9 6.9 6.9 6.9 -6.9 6.9 6.9 -6.9 6.9 6.89 6.9 -6.9 6.9 6.89 6.9 -6.9 6.9 6.9 6.9 -6.9 6.89 6.9 6.9 -6.9 6.9 6.9 6.9 -6.9 6.9 6.9 6.9 -6.9 6.9 6.9 6.9 -6.9 6.9 6.9 6.9 -6.9 6.89 6.9 6.9 -6.9 6.9 6.9 6.9 -6.9 6.9 6.9 6.9 -6.9 6.9 6.9 6.9 -6.9 6.89 6.9 6.9 -6.9 6.9 6.89 6.9 -6.9 6.9 6.89 6.9 -6.9 6.9 6.9 6.9 -6.9 6.9 6.9 6.9 -6.9 6.89 6.9 6.9 -6.9 6.9 6.89 6.9 -6.9 6.9 6.9 6.9 -6.9 6.9 6.9 6.9 -6.9 6.89 6.9 6.9 -6.9 6.9 6.9 6.9 -6.9 6.9 6.9 6.9 -6.9 6.9 6.9 6.9 -6.9 6.9 6.9 6.9 -6.9 6.9 6.9 6.9 -6.9 6.9 6.89 6.9 -6.9 6.9 6.9 6.9 -6.9 6.9 6.9 6.9 -6.9 6.89 13.79 13.8 -6.9 6.9 13.79 13.8 -6.9 6.9 20.69 20.7 6.9 -6.9 13.79 13.8 6.9 -6.9 13.79 13.8 6.9 -6.9 6.9 6.9 6.9 -6.9 6.89 6.9 13.8 -13.79 6.9 6.9 41.4 -41.38 -6.9 -6.9 13.8 -13.79 -6.9 -6.9 6.9 -6.9 -6.9 -6.9 6.9 -6.9 -6.9 -6.9 6.9 -6.9 -6.9 -6.9 6.9 -6.9 -6.9 -6.9 6.9 -6.9 -6.9 -6.9 6.9 -6.89 -6.9 -6.9 6.9 -6.9 -6.89 -6.9 6.9 -6.9 -6.9 -6.9 6.9 -6.9 -6.9 -6.9 6.9 -6.9 -6.9 -6.9 6.9 -6.9 -6.89 -6.9 6.9 -6.9 -6.9 -6.9 6.9 -6.9 -6.9 -6.9 6.9 -6.9 -6.9 -6.9 6.9 -6.9 -6.89 -6.9 6.9 -6.89 -6.9 -6.9 6.9 -6.9 -6.9 -6.9 6.9 -6.9 -6.9 -6.9 6.9 -6.89 -6.9 -6.9 6.9 -6.9 -6.89 -6.9 6.9 -6.9 -6.9 -6.9 6.9 -6.9 -6.9 -6.9 6.9 -6.9 -6.9 -6.9 6.9 -6.9 -6.9 -6.9 6.9 -6.89 -6.9 -6.9 6.9 -6.9 -6.9 -6.9 6.9 -6.9 -6.89 -6.9 6.9 -6.9 -6.9 -6.9 6.9 -6.9 -6.9 -6.9 6.9 -6.9 -6.9 -6.9 13.8 -13.79 6.9 6.9 6.9 -6.9 6.9 6.9 6.9 -6.9 6.9 6.9 6.9 -6.9 6.9 6.9 6.9 -6.9 6.9 6.9 6.9 -6.9 6.9 6.9 6.9 -6.89 6.89 6.9 6.9 -6.9 6.9 6.9 6.9 -6.9 6.9 6.9 6.9 -6.9 6.9 6.9 6.9 -6.9 6.9 6.9 6.9 -6.89 13.79 13.8 -6.9 6.9 6.9 6.9 -6.9 6.9 6.9 6.9 -6.9 6.9 6.9 6.9 -6.9 6.9 6.9 6.9 -6.9 6.9 6.9 6.9 -6.9 6.9 6.9 6.9 -6.9 6.9 6.89 6.9 -6.9 6.9 6.9 6.9 -6.9 6.9 6.9 6.9 -6.9 6.9 6.9 6.9 -6.9 6.9 6.9 6.9 -6.9 6.9 6.9 6.9 -6.9 6.89 6.9 6.9 -6.9 6.9 6.9 6.9 -6.9 6.9 6.9 6.9 -6.9 6.9 6.89 6.9 -6.9 6.9 6.9 6.9 -6.9 6.9 6.9 6.9 -6.9 6.9 6.9 6.9 -6.9 6.9 27.58 27.6 -6.9 6.9 6.9 6.9 6.9 -6.9 20.69 20.7 6.9 -6.9 13.79 13.8 6.9 -6.89 6.9 6.9 6.9 -6.9 6.9 6.9 27.6 -27.58 6.9 6.9 13.8 -13.79 -6.9 -6.9 20.7 -20.69 -6.9 -6.9 6.9 -6.9 -6.9 -6.9 13.8 -13.79 -6.9 -6.9 6.9 -6.9 -6.9 -6.9 6.9 -6.9 -6.9 -6.9 6.9 -6.9 -6.9 -6.9 6.9 -6.9 -6.9 -6.9 6.9 -6.9 -6.9 -6.9 6.9 -6.9 -6.9 -6.9 6.9 -6.9 -6.9 -6.9 6.9 -6.9 -6.9 -6.9 6.9 -6.89 -6.9 -6.9 6.9 -6.9 -6.9 -6.9 6.9 -6.9 -6.9 -6.9 6.9 -6.9 -6.9 -6.9 6.9 -6.9 -6.89 -6.9 6.9 -6.9 -6.9 -6.9 6.9 -6.89 -6.9 -6.9 6.9 -6.9 -13.79 -13.8 13.8 -13.79 6.9 6.9 6.9 -6.9 6.9 6.9 6.9 -6.9 6.9 6.9 6.9 -6.9 6.9 6.9 6.9 -6.9 6.9 6.9 6.9 -6.89 6.9 6.9 6.9 -6.9 6.9 6.9 6.9 -6.9 6.9 6.9 6.9 -6.89 6.9 6.9 6.9 -6.9 6.9 6.9 6.9 -6.9 6.9 6.9 6.9 -6.9 13.79 13.8 -6.9 6.9 6.89 6.9 -6.9 6.9 6.9 6.9 -6.9 6.89 6.9 6.9 -6.9 6.9 6.9 6.9 -6.9 6.9 6.9 6.9 -6.9 6.9 6.9 6.9 -6.9 6.89 6.89 6.9 -6.9 6.9 6.9 6.9 -6.9 6.9 6.9 6.9 -6.9 6.9 6.9 6.9 -6.9 6.9 6.9 6.9 -6.9 6.89 6.9 6.9 -6.9 6.9 6.9 6.9 -6.9 6.9 6.89 6.9 -6.9 6.9 6.9 6.9 -6.9 6.89 6.9 6.9 -6.9 6.9 6.9 6.9 -6.9 6.9 6.9 6.9 -6.9 6.9 6.9 6.9 -6.9 6.9 6.9 6.9 -6.9 6.89 6.9 6.9 -6.9 6.9 6.9 6.9 -6.9 6.9 6.89 6.9 -6.9 6.9 6.9 6.9 -6.9 6.89 6.9 6.9 -6.9 6.9 6.9 6.9 -6.9 6.9 6.89 6.9 -6.9 6.9 6.89 6.9 -6.9 6.9 6.9 6.9 -6.9 6.9 13.79 13.8 -6.9 6.89 6.9 6.9 -6.9 6.9 34.48 34.5 6.9 -6.9 20.69 20.7 6.9 -6.9 6.89 6.9 6.9 -6.89 6.9 6.9 13.8 -13.79 6.9 6.9 55.2 -55.17 -6.9 -6.9 6.9 -6.9 -6.9 -6.9 6.9 -6.9 -6.89 -6.9 6.9 -6.9 -6.9 -6.9 6.9 -6.89 -6.9 -6.9 6.9 -6.9 -6.9 -6.9 6.9 -6.9 -6.89 -6.9 6.9 -6.9 -6.9 -6.9 6.9 -6.9 -6.9 -6.9 6.9 -6.9 -6.9 -6.9 6.9 -6.9 -6.9 -6.9 6.9 -6.9 -6.9 -6.9 6.9 -6.9 -6.9 -6.9 6.9 -6.89 -6.9 -6.9 6.9 -6.9 -6.9 -6.9 6.9 -6.9 -6.89 -6.9 6.9 -6.9 -6.9 -6.9 6.9 -6.89 -6.9 -6.9 6.9 -6.9 -6.9 -6.9 6.9 -6.9 -6.89 -6.9 6.9 -6.9 -6.89 -6.9 6.9 -6.9 -6.9 -6.9 6.9 -6.89 -6.9 -6.9 6.9 -6.9 -6.9 -6.9 6.9 -6.9 -6.9 -6.9 6.9 -6.9 -6.9 -6.9 6.9 -6.89 -6.9 -6.9 6.9 -6.9 -6.9 -6.9 6.9 -6.9 -6.9 -6.9 6.9 -6.9 -6.9 -6.9 6.9 -6.9 -6.9 -6.9 6.9 -6.89 -6.9 -6.9 6.9 -6.9 6.89 6.9 6.9 -6.9 6.9 6.9 6.9 -6.9 6.9 6.9 6.9 -6.89 6.9 6.9 6.9 -6.89 6.9 6.9 6.9 -6.9 6.9 6.9 6.9 -6.9 6.9 6.9 6.9 -6.9 6.89 6.9 6.9 -6.89 6.9 6.9 6.9 -6.9 6.9 6.9 6.9 -6.9 6.9 6.9 6.9 -6.9 6.89 6.9 6.9 -6.9 13.79 13.8 6.9 -6.9 13.79 13.8 6.9 -6.9 34.48 34.5 -6.9 6.9 13.79 13.8 -6.9 6.9 6.9 6.9 -6.9 6.89zm158.69 -89.63l-13.79 -13.8 6.9 -6.89 -20.69 -20.7 6.9 -6.9 -68.97 -69 -6.9 6.9 -27.58 -27.6 -6.9 6.89 -13.79 -13.8 -6.9 6.9 -13.79 -13.8 -6.9 6.9 -13.79 -13.8 -6.9 6.9 -6.9 -6.9 -6.9 6.9 -6.9 -6.9 -6.9 6.9 -6.9 -6.9 -6.9 6.9 -6.9 -6.9 -6.9 6.9 -13.79 -13.8 -6.9 6.9 -6.9 -6.9 -6.9 6.89 -6.9 -6.9 -6.9 6.9 -6.9 -6.9 -6.9 6.9 -6.9 -6.9 -6.9 6.89 -6.89 -6.9 -6.9 6.9 -6.9 -6.9 -6.9 6.9 -6.89 -6.9 -6.9 6.9 -6.9 -6.9 -6.9 6.9 -6.9 -6.9 -6.9 6.9 -6.9 -6.9 -6.9 6.89 -6.9 -6.9 -13.8 13.79 -6.9 -6.9 -6.9 6.9 -6.9 -6.9 -6.9 6.89 -13.79 -13.8 -6.9 6.9 -6.9 -6.9 -6.9 6.9 -6.9 -6.9 -6.9 6.89 -6.89 -6.9 -6.9 6.9 -6.9 -6.9 -6.9 6.9 -6.89 -6.9 -6.9 6.9 -6.9 -6.9 -6.9 6.9 -6.9 -6.9 -6.9 6.9 -6.89 -6.9 -6.9 6.89 -6.9 -6.9 -6.9 6.89 -6.9 -6.9 -6.9 6.9 -6.9 -6.9 -13.8 13.79 -6.89 -6.9 -6.9 6.9 -6.9 -6.9 -6.9 6.9 -13.79 -13.8 -6.9 6.9 -6.89 -6.9 -6.9 6.9 -6.9 -6.9 -6.9 6.9 -6.89 -6.9 -6.9 6.9 -6.9 -6.9 -6.9 6.9 -6.9 -6.9 -6.9 6.9 -6.89 -6.9 -6.9 6.9 -6.9 -6.9 -6.9 6.89 -6.9 -6.9 -6.9 6.9 -6.9 -6.9 -6.9 6.9 -6.89 -6.9 -6.9 6.9 -6.9 -6.9 -13.8 13.79 -6.9 -6.9 -6.9 6.9 -6.9 -6.9 -6.9 6.9 -13.79 -13.8 -6.9 6.9 -6.9 -6.9 -6.9 6.9 -6.9 -6.9 -6.9 6.9 -6.9 -6.9 -6.9 6.9 -6.89 -6.9 -6.9 6.9 -6.9 -6.9 -6.9 6.89 -6.9 -6.9 -6.9 6.9 -6.9 -6.9 -6.9 6.9 -6.9 -6.9 -6.9 6.9 -6.89 -6.9 -6.9 6.9 -6.9 -6.9 -6.9 6.89 -6.9 -6.9 -13.8 13.79 -6.9 -6.9 -6.9 6.9 -6.9 -6.9 -6.9 6.9 -13.79 -13.8 -6.9 6.9 -6.9 -6.9 -6.9 6.9 -6.9 -6.9 -6.9 6.9 -6.9 -6.9 -6.9 6.9 -6.9 -6.9 -6.9 6.9 -6.9 -6.9 -6.9 6.9 -6.9 -6.9 -6.9 6.9 -6.89 -6.9 -6.9 6.9 -6.9 -6.9 -6.9 6.89 -6.9 -6.9 -6.9 6.9 -6.9 -6.9 -6.9 6.9 -6.9 -6.9 -13.8 13.79 -6.9 -6.9 -6.9 6.9 -6.9 -6.9 -6.9 6.9 -13.79 -13.8 -6.9 6.9 -6.9 -6.9 -6.9 6.9 -6.9 -6.9 -6.9 6.89 -6.9 -6.9 -6.9 6.9 -6.9 -6.9 -6.9 6.9 -6.89 -6.9 -6.9 6.9 -6.9 -6.9 -6.9 6.89 -6.89 -6.9 -6.9 6.89 -6.9 -6.9 -6.9 6.9 -6.9 -6.9 -6.9 6.9 -6.9 -6.9 -6.9 6.9 -6.9 -6.9 -13.8 13.79 -6.9 -6.9 -6.9 6.9 -6.9 -6.9 -6.9 6.9 -13.79 -13.8 -6.9 6.9 -6.9 -6.9 -6.9 6.9 -6.9 -6.9 -6.9 6.9 -6.9 -6.9 -6.9 6.9 -6.9 -6.9 -6.9 6.9 -6.89 -6.9 -6.9 6.89 -6.9 -6.9 -6.9 6.9 -6.9 -6.9 -6.9 6.89 -6.9 -6.9 -6.9 6.9 -6.9 -6.9 -6.9 6.9 -6.9 -6.9 -6.9 6.9 -6.9 -6.9 -13.8 13.79 -6.9 -6.9 -6.9 6.9 -13.79 -13.8 -6.9 6.9 -6.9 -6.9 -6.9 6.9 -6.9 -6.9 -6.9 6.9 -6.9 -6.9 -6.9 6.9 -6.89 -6.9 -6.9 6.9 -6.9 -6.9 -6.9 6.89 -6.9 -6.9 -6.9 6.9 -6.9 -6.9 -6.9 6.9 -6.9 -6.9 -6.9 6.9 -6.9 -6.9 -6.9 6.9 -6.9 -6.9 -6.9 6.9 -6.9 -6.9 -6.9 6.9 -6.9 -6.9 -6.9 6.9 -6.89 -6.9 -13.8 13.79 -6.89 -6.9 -6.9 6.9 -13.79 -13.8 -6.9 6.9 -6.89 -6.9 -6.9 6.89 -6.9 -6.9 -6.9 6.89 -6.89 -6.9 -6.9 6.9 -6.9 -6.9 -6.9 6.9 -6.9 -6.9 -6.9 6.9 -6.89 -6.9 -6.9 6.9 -6.9 -6.9 -6.9 6.9 -6.9 -6.9 -6.9 6.9 -6.9 -6.9 -6.9 6.9 -6.89 -6.9 -6.9 6.9 -6.9 -6.9 -13.8 13.79 -6.9 -6.9 -6.9 6.9 -6.9 -6.9 -6.9 6.9 -13.79 -13.8 -6.9 6.9 -6.9 -6.9 -6.9 6.89 -6.9 -6.9 -6.9 6.89 -6.9 -6.9 -6.9 6.9 -6.89 -6.9 -6.9 6.9 -6.9 -6.9 -6.9 6.9 -6.9 -6.9 -6.9 6.89 -6.9 -6.9 -6.9 6.9 -6.9 -6.9 -6.9 6.9 -6.89 -6.9 -6.9 6.9 -6.9 -6.9 -6.9 6.9 -6.9 -6.9 -13.8 13.79 -6.9 -6.9 -6.9 6.9 -6.9 -6.9 -6.9 6.89 -13.79 -13.8 -6.9 6.89 -6.9 -6.9 -6.9 6.9 -6.9 -6.9 -6.9 6.9 -6.9 -6.9 -6.9 6.9 -6.9 -6.9 -6.9 6.9 -6.9 -6.9 -6.9 6.9 -6.9 -6.9 -6.9 6.9 -6.89 -6.9 -6.9 6.9 -6.9 -6.9 -6.9 6.9 -6.9 -6.9 -6.9 6.9 -6.9 -6.9 -6.9 6.9 -6.9 -6.9 -13.8 13.79 -6.9 -6.9 -6.9 6.89 -6.9 -6.9 -6.9 6.9 -13.79 -13.8 -6.9 6.9 -6.9 -6.9 -6.9 6.9 -6.9 -6.9 -6.9 6.9 -6.9 -6.9 -6.9 6.89 -6.9 -6.9 -6.9 6.9 -6.89 -6.9 -6.9 6.9 -6.9 -6.9 -6.9 6.9 -6.9 -6.9 -6.9 6.9 -6.9 -6.9 -6.9 6.9 -6.9 -6.9 -6.9 6.9 -6.9 -6.9 -6.9 6.9 -6.9 -6.9 -13.8 13.79 -6.9 -6.9 -6.9 6.9 -6.9 -6.9 -6.9 6.9 -13.79 -13.8 -6.9 6.9 -6.9 -6.9 -6.9 6.89 -6.9 -6.9 -6.9 6.9 -6.89 -6.9 -6.9 6.9 -6.9 -6.9 -6.9 6.9 -6.9 -6.9 -6.9 6.9 -6.9 -6.9 -6.9 6.9 -6.9 -6.9 -6.9 6.9 -6.9 -6.9 -6.9 6.9 -6.9 -6.9 -6.9 6.9 -6.9 -6.9 -6.9 6.89 -6.9 -6.9 -6.9 6.9 -6.9 -6.9 -6.9 6.9 -6.9 -6.9 -6.9 6.9 -6.9 -6.9 -6.9 6.9 -6.9 -6.9 -6.9 6.89 -6.89 -6.9 -6.9 6.9 -6.9 -6.9 -6.9 6.89 -6.89 -6.9 -6.9 6.9 -6.9 -6.9 -6.9 6.9 -6.9 -6.9 -6.9 6.9 -6.9 -6.9 -6.9 6.9 -6.9 -6.9 -6.9 6.9 -6.9 -6.9 -6.9 6.9 -6.9 -6.9 -6.9 6.9 -6.9 -6.9 -6.9 6.9 -6.9 -6.9 -6.9 6.9 -6.89 -6.9 -6.9 6.9 -6.9 -6.9 -6.9 6.89 -6.9 -6.9 -6.9 6.9 -6.9 -6.9 -6.9 6.9 -6.89 -6.9 -6.9 6.9 -6.9 -6.9 -6.9 6.9 -6.9 -6.9 -6.9 6.9 -6.9 -6.9 -6.9 6.9 -6.9 -6.9 -6.9 6.9 -6.89 -6.9 -6.9 6.9 -6.9 -6.9 -6.9 6.89 -6.9 -6.9 -6.9 6.9 -6.9 -6.9 -6.9 6.9 -6.89 -6.9 -6.9 6.9 -6.9 -6.9 -6.9 6.89 -6.9 -6.9 -6.9 6.89 -6.9 -6.9 -6.9 6.9 -6.9 -6.9 -6.9 6.9 -6.89 -6.9 -6.9 6.9 -6.9 -6.9 -6.9 6.9 -6.9 -6.9 -6.9 6.9 -6.9 -6.9 -6.9 6.9 -6.89 -6.9 -6.9 6.9 -6.9 -6.9 -6.9 6.9 -6.9 -6.9 -6.9 6.9 -6.9 -6.9 -6.9 6.9 -6.9 -6.9 -6.9 6.9 -6.89 -6.9 -6.9 6.89 -6.9 -6.9 -6.9 6.89 -6.9 -6.9 -6.9 6.9 -6.9 -6.9 -6.9 6.89 -6.89 -6.9 -6.9 6.9 -6.9 -6.9 -6.9 6.9 -6.9 -6.9 -6.9 6.9 -6.9 -6.9 -6.9 6.9 -6.9 -6.9 -6.9 6.9 -6.9 -6.9 -6.9 6.9 -6.9 -6.9 -6.9 6.9 -6.9 -6.9 -6.9 6.9 -6.9 -6.9 -6.9 6.9 -6.89 -6.9 -6.9 6.9 -6.9 -6.9 -6.9 6.9 -6.9 -6.9 -6.9 6.89 -6.9 -6.9 -6.9 6.9 -6.9 -6.9 -6.9 6.9 -6.9 -6.9 -6.9 6.9 -6.9 -6.9 -6.9 6.9 -6.9 -6.9 -6.9 6.9 -6.9 -6.9 -6.9 6.9 -6.9 -6.9 -6.9 6.9 -6.9 -6.9 -6.9 6.9 -6.89 -6.9 -6.9 6.9 -6.9 -6.9 -6.9 6.9 -6.9 -6.9 -6.9 6.9 -6.9 -6.9 -6.9 6.89 -6.9 -6.9 -6.9 6.89 -6.9 -6.9 -6.9 6.9 -6.9 -6.9 -6.9 6.9 -6.9 -6.9 -6.9 6.9 -6.9 -6.9 -6.9 6.9 -6.9 -6.9 -6.9 6.9 -6.9 -6.9 -6.9 6.9 -6.9 -6.9 -6.9 6.9 -6.9 -6.9 -6.9 6.9 -6.89 -6.9 -6.9 6.9 -6.9 -6.9 -6.9 6.9 -6.89 -6.9 -6.9 6.9 -6.9 -6.9 -6.9 6.89 -6.9 -6.9 -6.9 6.9 -6.9 -6.9 -6.9 6.89 -6.9 -6.9 -6.9 6.89 -6.9 -6.9 -6.9 6.9 -6.9 -6.9 -6.9 6.9 -6.9 -6.9 -6.9 6.9 -6.9 -6.9 -6.9 6.9 -6.9 -6.9 -6.9 6.9 -6.9 -6.9 -6.9 6.9 -6.9 -6.9 -6.9 6.9 -6.9 -6.9 -6.9 6.9 -6.89 -6.9 -6.9 6.9 -6.9 -6.9 -6.9 6.9 -6.9 -6.9 -6.9 6.9 -6.9 -6.9 -6.9 6.89 -6.9 -6.9 -6.9 6.9 -6.9 -6.9 -6.9 6.9 -6.9 -6.9 -6.9 6.9 -6.9 -6.9 -6.9 6.9 -6.9 -6.9 -6.9 6.89 -6.9 -6.9 -6.9 6.9 -6.9 -6.9 -6.9 6.9 -6.9 -6.9 -6.9 6.9 -6.9 -6.9 -6.9 6.9 -6.89 -6.9 -6.9 6.9 -6.9 -6.9 -6.9 6.9 -6.9 -6.9 -6.9 6.89 -6.9 -6.9 -6.9 6.9 -6.9 -6.9 -6.9 6.89 -6.9 -6.9 -6.9 6.9 -6.9 -6.9 -6.9 6.9 -6.9 -6.9 -6.9 6.9 -6.9 -6.9 -6.9 6.9 -6.9 -6.9 -6.9 6.9 -6.9 -6.9 -6.9 6.9 -6.89 -6.9 -6.9 6.9 -6.9 -6.9 -13.8 13.79 -6.9 -6.9 -6.9 6.9 -6.9 -6.9 -6.9 6.9 -13.79 -13.8 -6.9 6.9 -6.9 -6.9 -6.9 6.89 -6.9 -6.9 -6.9 6.89 -6.9 -6.9 -6.9 6.9 -6.89 -6.9 -6.9 6.9 -6.9 -6.9 -6.9 6.9 -6.9 -6.9 -6.9 6.89 -6.9 -6.9 -6.9 6.9 -6.89 -6.9 -6.9 6.9 -6.9 -6.9 -6.9 6.9 -6.9 -6.9 -6.9 6.9 -6.9 -6.9 -13.8 13.79 -6.9 -6.9 -6.9 6.9 -6.9 -6.9 -6.9 6.89 -13.79 -13.8 -6.9 6.89 -6.9 -6.9 -6.9 6.9 -6.89 -6.9 -6.9 6.9 -6.9 -6.9 -6.9 6.9 -6.9 -6.9 -6.9 6.89 -6.9 -6.9 -6.9 6.9 -6.9 -6.9 -6.9 6.9 -6.89 -6.9 -6.9 6.9 -6.9 -6.9 -6.9 6.9 -6.9 -6.9 -6.9 6.9 -6.9 -6.9 -6.9 6.9 -6.89 -6.9 -13.8 13.79 -6.9 -6.9 -6.9 6.89 -6.9 -6.9 -6.9 6.9 -13.79 -13.8 -6.9 6.9 -6.89 -6.9 -6.9 6.9 -6.9 -6.9 -6.9 6.9 -6.89 -6.9 -6.9 6.89 -6.9 -6.9 -6.9 6.9 -6.89 -6.9 -6.9 6.9 -6.9 -6.9 -6.9 6.9 -6.9 -6.9 -6.9 6.9 -6.9 -6.9 -6.9 6.9 -6.9 -6.9 -6.9 6.9 -6.9 -6.9 -6.9 6.9 -6.9 -6.9 -13.8 13.79 -6.9 -6.9 -6.9 6.9 -6.89 -6.9 -6.9 6.9 -13.79 -13.8 -6.9 6.9 -6.89 -6.9 -6.9 6.9 -6.9 -6.9 -6.9 6.89 -6.9 -6.9 -6.9 6.9 -6.9 -6.9 -6.9 6.9 -6.9 -6.9 -6.9 6.9 -6.9 -6.9 -6.9 6.9 -6.9 -6.9 -6.9 6.9 -6.9 -6.9 -6.9 6.9 -6.9 -6.9 -6.9 6.9 -6.9 -6.9 -6.9 6.9 -6.9 -6.9 -13.8 13.79 -6.9 -6.9 -6.9 6.9 -6.9 -6.9 -6.9 6.9 -13.79 -13.8 -6.9 6.89 -6.9 -6.9 -6.9 6.9 -6.9 -6.9 -6.9 6.9 -6.9 -6.9 -6.9 6.9 -6.9 -6.9 -6.9 6.9 -6.9 -6.9 -6.9 6.9 -6.9 -6.9 -6.9 6.9 -6.9 -6.9 -6.9 6.9 -6.9 -6.9 -6.9 6.9 -6.9 -6.9 -6.9 6.9 -6.9 -6.9 -6.9 6.9 -6.9 -6.9 -13.8 13.79 -6.9 -6.9 -6.9 6.9 -6.9 -6.9 -6.9 6.89 -13.79 -13.8 -6.9 6.9 -6.9 -6.9 -6.9 6.9 -6.9 -6.9 -6.9 6.9 -6.9 -6.9 -6.9 6.9 -6.9 -6.9 -6.9 6.9 -6.9 -6.9 -6.9 6.9 -6.9 -6.9 -6.9 6.9 -6.9 -6.9 -6.9 6.9 -6.9 -6.9 -6.9 6.9 -6.9 -6.9 -6.9 6.9 -6.89 -6.9 -13.8 13.79 -6.9 -6.9 -6.9 6.89 -6.9 -6.9 -6.9 6.9 -6.9 -6.9 -13.8 13.79 -6.89 -6.9 -20.7 20.69 -6.9 -6.9 -96.6 96.55 6.9 6.9 -13.8 13.79 6.89 6.9 -6.9 6.9 6.9 6.9 -6.9 6.9 6.9 6.9 -6.9 6.9 6.9 6.9 -6.9 6.9 6.9 6.9 -6.9 6.89 6.9 6.9 -6.9 6.9 6.9 6.9 -6.9 6.9 6.9 6.9 -6.9 6.9 6.9 6.9 -6.9 6.9 6.89 6.9 -6.9 6.9 6.9 6.9 -6.9 6.9 6.9 6.9 -6.9 6.9 6.9 6.9 -6.9 6.9 6.89 6.9 -6.9 6.9 6.9 6.9 -6.9 6.9 6.9 6.9 -6.9 6.9 6.9 6.9 -6.9 6.9 6.9 6.9 -6.9 6.9 6.9 6.9 -6.9 6.9 6.9 6.9 -6.9 6.89 6.9 6.9 -6.9 6.9 6.9 6.9 -6.9 6.9 6.89 6.9 -6.9 6.9 6.9 6.9 -6.9 6.9 6.9 6.9 -6.9 6.9 6.9 6.9 -6.9 6.9 6.9 6.9 -6.9 6.9 6.89 6.9 -6.9 6.9 6.9 6.9 -6.9 6.9 6.9 6.9 -6.9 6.9 6.9 6.9 -6.9 6.9 6.9 6.9 -6.9 6.9 6.9 6.9 -6.9 6.89 6.89 6.9 -6.9 6.9 6.9 6.9 -6.9 6.9 6.9 6.9 -6.9 6.9 6.89 6.9 -6.9 6.9 6.9 6.9 -6.9 6.9 6.9 6.9 -6.9 6.9 6.9 6.9 -6.9 6.9 6.89 6.9 -6.9 6.9 6.9 6.9 -6.9 6.9 6.9 6.9 -6.9 6.9 6.9 6.9 -6.9 6.9 6.9 6.9 -6.9 6.9 6.9 6.9 -6.9 6.89 6.9 6.9 -6.9 6.9 6.9 6.9 -6.9 6.9 6.9 6.9 -6.9 6.9 6.89 6.9 -6.9 6.9 6.9 6.9 -6.9 6.9 6.9 6.9 -6.9 6.9 6.9 6.9 -6.9 6.9 6.89 6.9 -6.9 6.9 6.89 6.9 -6.9 6.89 6.9 6.9 -6.9 6.9 6.9 6.9 -6.9 6.9 6.9 6.9 -6.9 6.9 6.9 6.9 -6.9 6.89 6.9 6.9 -6.9 6.9 6.9 6.9 -6.9 6.9 6.9 6.9 -6.9 6.9 6.9 6.9 -6.9 6.9 6.9 6.9 -6.9 6.89 6.9 6.9 -6.9 6.9 6.9 6.9 -6.9 6.9 6.9 6.9 -6.9 6.89 6.89 6.9 -6.9 6.89 6.9 6.9 -6.9 6.9 6.9 6.9 -6.9 6.9 6.9 6.9 -6.9 6.9 6.9 6.9 -6.9 6.9 6.9 6.9 -6.9 6.89 6.89 6.9 -6.9 6.9 6.9 6.9 -6.9 6.9 13.79 13.8 -6.9 6.9 13.79 13.8 -6.9 6.9 20.69 20.7 -6.9 6.9 62.06 62.1 6.9 -6.9 20.69 20.7 6.9 -6.89 13.79 13.8 6.9 -6.9 13.79 13.8 6.9 -6.9 6.9 6.9 6.9 -6.9 6.89 6.9 6.9 -6.9 6.9 6.9 6.9 -6.9 6.89 6.9 6.9 -6.9 6.9 6.9 6.9 -6.9 6.9 6.9 6.9 -6.9 6.9 6.9 6.9 -6.89 6.9 6.9 6.9 -6.9 6.9 6.9 6.9 -6.9 6.9 6.9 6.9 -6.9 6.89 6.9 6.9 -6.9 6.9 6.9 6.9 -6.9 6.9 6.9 6.9 -6.9 6.9 6.9 6.9 -6.9 6.89 6.9 6.9 -6.9 6.9 6.9 6.9 -6.9 6.89 6.9 6.9 -6.9 6.9 6.9 6.9 -6.9 6.9 6.9 6.9 -6.9 6.89 6.9 6.9 -6.89 6.9 6.9 6.9 -6.9 6.9 6.9 6.9 -6.9 6.9 6.9 6.9 -6.9 6.89 6.9 6.9 -6.9 6.9 6.9 6.9 -6.9 6.9 6.9 6.9 -6.9 6.9 6.9 6.9 -6.9 6.89 6.9 6.9 -6.9 6.9 6.9 6.9 -6.9 6.9 6.9 6.9 -6.9 6.9 6.9 6.9 -6.9 6.9 6.9 6.9 -6.9 6.89 6.9 6.9 -6.9 6.9 6.9 6.9 -6.89 6.9 6.9 6.9 -6.89 6.9 6.9 6.9 -6.9 6.89 6.9 6.9 -6.9 6.9 6.9 6.9 -6.9 6.9 6.9 6.9 -6.9 6.9 6.9 6.9 -6.9 6.9 6.9 6.9 -6.9 6.89 6.9 6.9 -6.9 6.9 6.9 6.9 -6.9 6.9 6.9 6.9 -6.9 6.9 6.9 6.9 -6.9 6.89 6.9 6.9 -6.9 6.9 6.9 6.9 -6.89 6.9 6.9 6.9 -6.9 6.9 6.9 6.9 -6.9 6.9 6.9 6.9 -6.9 6.89 6.9 6.9 -6.9 6.9 6.9 6.9 -6.89 6.9 6.9 6.9 -6.9 6.9 6.9 6.9 -6.9 6.89 6.9 6.9 -6.9 6.9 6.9 6.9 -6.9 6.9 6.9 6.9 -6.9 6.9 6.9 6.9 -6.9 6.9 6.9 6.9 -6.9 6.9 6.9 6.9 -6.9 6.9 6.9 6.9 -6.89 6.9 6.9 6.9 -6.9 6.9 6.9 6.9 -6.9 6.9 6.9 6.9 -6.9 6.9 6.9 6.9 -6.9 6.9 6.9 6.9 -6.9 6.9 6.9 6.9 -6.9 6.9 6.9 6.9 -6.9 6.9 6.9 6.9 -6.9 6.9 6.9 6.9 -6.9 6.9 6.9 6.9 -6.9 6.9 6.9 6.9 -6.9 6.9 6.9 6.9 -6.9 6.9 6.9 6.9 -6.89 6.9 6.9 6.9 -6.89 6.9 6.9 6.9 -6.9 6.9 6.9 6.9 -6.9 6.9 6.9 6.9 -6.9 6.89 6.9 6.9 -6.89 6.9 6.9 6.9 -6.9 6.9 6.9 6.9 -6.9 6.9 6.9 6.9 -6.9 6.9 6.9 6.9 -6.9 6.9 6.9 6.9 -6.9 6.9 6.9 6.9 -6.9 6.9 6.9 6.9 -6.9 6.9 6.9 6.9 -6.9 6.9 6.9 6.9 -6.89 6.9 6.9 6.9 -6.9 6.9 6.9 6.9 -6.9 6.9 6.9 6.9 -6.9 6.89 6.9 6.9 -6.89 6.9 6.9 6.9 -6.9 6.89 6.9 6.9 -6.9 6.9 6.9 6.9 -6.89 6.9 6.9 6.9 -6.9 6.9 6.9 6.9 -6.9 6.9 6.9 6.9 -6.9 6.9 6.9 6.9 -6.9 6.9 6.9 6.9 -6.9 6.9 6.9 6.9 -6.89 6.9 6.9 6.9 -6.9 6.9 6.9 6.9 -6.9 6.9 6.9 6.9 -6.9 6.89 6.9 6.9 -6.9 6.9 6.9 6.9 -6.89 6.89 6.9 6.9 -6.9 6.9 6.9 6.9 -6.9 6.9 6.9 6.9 -6.9 6.9 6.9 6.9 -6.9 6.9 6.9 6.9 -6.9 6.9 6.9 6.9 -6.9 6.9 6.9 6.9 -6.9 6.89 6.9 6.9 -6.9 6.9 6.9 6.9 -6.89 6.9 6.9 6.9 -6.9 6.9 6.9 6.9 -6.9 6.89 6.9 6.9 -6.9 6.9 6.9 6.9 -6.89 6.89 6.9 6.9 -6.9 6.9 6.9 6.9 -6.9 6.9 6.9 6.9 -6.9 6.89 6.9 6.9 -6.9 6.9 6.9 6.9 -6.9 6.9 6.9 6.9 -6.9 6.9 6.9 6.9 -6.9 6.89 6.9 6.9 -6.9 6.9 6.9 6.9 -6.89 6.9 6.9 6.9 -6.9 6.9 6.9 6.9 -6.9 6.9 6.9 6.9 -6.9 6.89 6.9 6.9 -6.89 6.9 6.9 6.9 -6.89 6.9 6.9 6.9 -6.9 6.9 6.9 6.9 -6.89 6.89 6.9 6.9 -6.9 6.9 6.9 6.9 -6.9 6.9 6.9 6.9 -6.9 6.9 6.9 6.9 -6.9 6.9 6.9 6.9 -6.9 6.89 6.9 6.9 -6.9 6.9 6.9 6.9 -6.9 6.9 6.9 6.9 -6.9 6.9 6.9 6.9 -6.9 6.89 6.9 6.9 -6.9 6.9 6.9 6.9 -6.9 6.9 6.9 6.9 -6.89 6.9 6.9 6.9 -6.9 6.9 6.9 6.9 -6.9 6.9 6.9 6.9 -6.9 6.9 6.9 6.9 -6.9 6.9 6.9 6.9 -6.9 6.9 6.9 6.9 -6.9 6.89 6.9 6.9 -6.9 6.9 6.9 6.9 -6.9 6.9 6.9 6.9 -6.9 6.9 6.9 6.9 -6.9 6.9 6.9 6.9 -6.9 6.9 6.9 6.9 -6.9 6.9 6.9 6.9 -6.89 6.9 6.9 6.9 -6.9 6.9 6.9 6.9 -6.9 6.9 6.9 6.9 -6.9 6.9 6.9 6.9 -6.9 6.9 6.9 6.9 -6.9 6.9 6.9 6.9 -6.9 6.89 6.9 6.9 -6.9 6.9 6.9 6.9 -6.9 6.89 6.9 6.9 -6.9 6.9 6.9 6.9 -6.9 6.9 6.9 6.9 -6.9 6.9 6.9 6.9 -6.89 6.9 6.9 6.9 -6.9 6.9 6.9 6.9 -6.89 6.9 6.9 6.9 -6.89 6.9 6.9 6.9 -6.9 6.9 6.9 6.9 -6.9 6.9 6.9 6.9 -6.9 6.9 6.9 6.9 -6.9 6.9 6.9 6.9 -6.9 6.9 6.9 6.9 -6.9 6.89 6.9 6.9 -6.9 6.9 6.9 6.9 -6.9 6.9 6.9 6.9 -6.9 6.9 6.9 6.9 -6.9 6.9 6.9 6.9 -6.9 6.9 6.9 6.9 -6.89 6.9 6.9 6.9 -6.9 6.9 6.9 6.9 -6.9 6.9 6.9 6.9 -6.9 6.9 6.9 6.9 -6.9 6.9 6.9 6.9 -6.89 6.9 6.9 6.9 -6.9 6.9 6.9 6.9 -6.9 6.89 6.9 6.9 -6.9 6.9 6.9 6.9 -6.9 6.9 6.9 6.9 -6.9 6.9 6.9 6.9 -6.9 6.9 6.9 6.9 -6.9 6.9 6.9 6.9 -6.9 6.9 6.9 6.9 -6.89 6.9 6.9 6.9 -6.9 6.9 6.9 6.9 -6.9 6.89 6.9 6.9 -6.9 6.9 6.9 6.9 -6.9 6.9 6.9 6.9 -6.9 6.9 6.9 6.9 -6.9 6.89 6.9 6.9 -6.9 6.9 6.9 6.9 -6.9 6.9 6.9 6.9 -6.9 6.9 6.9 6.9 -6.9 6.9 6.9 6.9 -6.9 6.89 6.9 6.9 -6.9 6.9 6.9 6.9 -6.89 6.9 6.9 6.9 -6.89 6.9 6.9 6.9 -6.9 6.89 6.9 6.9 -6.9 6.9 6.9 6.9 -6.9 6.9 6.9 6.9 -6.89 6.9 6.9 6.9 -6.9 6.9 6.9 6.9 -6.9 6.89 6.9 6.9 -6.9 6.9 6.9 6.9 -6.9 6.9 6.9 6.9 -6.9 6.9 6.9 6.9 -6.9 6.89 6.9 6.9 -6.9 6.9 6.9 6.9 -6.9 6.9 6.9 6.9 -6.89 6.9 6.9 6.9 -6.9 6.9 6.9 6.9 -6.9 6.89 6.9 6.9 -6.9 6.9 6.9 6.9 -6.89 6.9 6.9 6.9 -6.9 6.9 6.9 6.9 -6.9 6.89 6.9 6.9 -6.9 6.9 6.9 6.9 -6.9 6.9 6.9 6.9 -6.9 6.9 6.9 6.9 -6.9 6.9 6.9 6.9 -6.9 6.9 6.9 6.9 -6.9 6.9 6.9 6.9 -6.89 6.9 6.9 6.9 -6.9 6.9 6.9 6.9 -6.9 6.89 6.9 6.9 -6.9 6.9 6.9 6.9 -6.9 6.9 6.9 6.9 -6.89 6.9 6.9 6.9 -6.9 6.9 6.9 6.9 -6.9 6.9 6.9 6.9 -6.9 6.9 6.9 6.9 -6.9 6.9 6.9 6.9 -6.9 6.9 6.9 6.9 -6.9 6.9 6.9 6.9 -6.9 6.9 6.9 6.9 -6.9 6.9 6.9 6.9 -6.89 6.9 6.9 6.9 -6.9 6.89 6.9 6.9 -6.9 6.9 6.9 6.9 -6.9 6.9 6.9 6.9 -6.89 6.9 6.9 6.9 -6.9 6.9 6.9 6.9 -6.9 6.9 6.9 6.9 -6.9 6.9 6.9 6.9 -6.9 6.9 6.9 6.9 -6.9 6.9 6.9 6.9 -6.9 6.9 6.9 6.9 -6.9 6.9 6.9 6.9 -6.9 6.9 6.9 6.9 -6.89 6.9 6.9 6.9 -6.9 6.89 6.9 6.9 -6.9 6.9 6.9 6.9 -6.9 6.9 6.9 6.9 -6.89 6.9 6.9 6.9 -6.89 6.9 6.9 6.9 -6.9 6.9 6.9 6.9 -6.89 6.9 6.9 6.9 -6.9 6.9 6.9 6.9 -6.9 6.9 6.9 6.9 -6.9 6.9 6.9 6.9 -6.9 6.9 6.9 6.9 -6.9 6.9 6.9 6.9 -6.9 6.9 6.9 6.9 -6.9 6.89 6.9 6.9 -6.9 6.9 6.9 6.9 -6.9 6.89 6.9 6.9 -6.9 6.9 6.9 6.9 -6.89 6.9 6.9 6.9 -6.9 6.9 6.9 6.9 -6.9 6.9 6.9 6.9 -6.9 6.9 6.9 6.9 -6.9 6.9 6.9 6.9 -6.9 6.9 6.9 6.9 -6.9 6.9 6.9 6.9 -6.9 6.9 6.9 6.9 -6.9 6.9 6.9 6.9 -6.89 6.9 6.9 6.9 -6.9 6.9 6.9 6.9 -6.9 6.89 6.9 6.9 -6.9 6.9 6.9 6.9 -6.9 6.9 6.9 6.9 -6.89 6.9 6.9 6.9 -6.9 6.9 6.9 6.9 -6.9 6.9 6.9 6.9 -6.9 6.9 6.9 6.9 -6.9 6.9 6.9 6.9 -6.9 6.9 6.9 6.9 -6.9 6.89 6.9 6.9 -6.9 6.9 6.9 6.9 -6.9 6.9 6.9 6.9 -6.9 6.9 6.9 6.9 -6.9 6.89 6.9 6.9 -6.9 6.9 6.9 6.9 -6.89 6.9 6.9 6.9 -6.89 6.9 6.9 6.9 -6.9 6.9 6.9 6.9 -6.89 6.89 6.9 6.9 -6.9 6.9 6.9 6.9 -6.9 6.9 6.9 6.9 -6.9 6.9 6.9 6.9 -6.9 6.89 6.9 6.9 -6.9 6.9 6.9 6.9 -6.9 6.9 6.9 6.9 -6.9 6.9 6.9 6.9 -6.9 6.9 6.9 6.9 -6.9 6.89 6.9 6.9 -6.9 6.9 6.9 6.9 -6.9 6.9 6.9 6.9 -6.89 6.9 6.9 6.9 -6.9 6.89 6.9 6.9 -6.9 6.9 6.9 6.9 -6.9 6.9 6.9 6.9 -6.9 6.9 6.9 6.9 -6.9 6.9 6.9 6.9 -6.9 6.89 6.9 6.9 -6.9 6.9 6.9 6.9 -6.9 6.9 6.9 6.9 -6.9 6.9 6.9 6.9 -6.9 6.89 6.9 6.9 -6.9 6.9 6.9 6.9 -6.9 6.9 6.9 6.9 -6.89 6.9 6.9 6.9 -6.9 6.9 6.9 6.9 -6.9 6.9 6.9 6.9 -6.9 6.9 6.9 6.9 -6.9 6.89 6.9 6.9 -6.9 6.9 6.9 6.9 -6.9 6.89 6.9 6.9 -6.9 6.9 6.9 6.9 -6.9 6.9 6.9 6.9 -6.9 6.9 6.9 6.9 -6.9 6.9 6.9 6.9 -6.9 6.9 6.9 6.9 -6.89 6.9 6.9 6.9 -6.9 6.9 6.9 6.9 -6.89 6.9 6.9 6.9 -6.89 6.9 6.9 6.9 -6.9 6.9 6.9 6.9 -6.9 6.89 6.9 6.9 -6.9 6.9 6.9 6.9 -6.9 6.89 6.9 6.9 -6.9 6.9 6.9 6.9 -6.9 6.9 6.9 6.9 -6.9 6.9 6.9 6.9 -6.9 6.9 6.9 6.9 -6.9 6.9 6.9 6.9 -6.9 6.9 6.9 6.9 -6.9 6.9 6.9 6.9 -6.89 6.9 6.9 6.9 -6.9 6.9 6.9 6.9 -6.9 6.9 6.9 6.9 -6.9 6.9 6.9 6.9 -6.9 6.9 6.9 6.9 -6.89 6.89 6.9 6.9 -6.9 6.9 6.9 6.9 -6.9 6.9 6.9 6.9 -6.9 6.9 6.9 6.9 -6.9 6.9 6.9 6.9 -6.9 6.9 6.9 6.9 -6.9 6.9 6.9 6.9 -6.9 6.9 6.9 6.9 -6.9 6.9 6.9 6.9 -6.89 6.9 6.9 6.9 -6.9 6.9 6.9 6.9 -6.9 6.9 6.9 6.9 -6.9 6.9 6.9 6.9 -6.9 6.9 6.9 6.9 -6.89 6.9 6.9 6.9 -6.9 6.89 6.9 6.9 -6.9 6.9 6.9 6.9 -6.9 6.9 6.9 6.9 -6.9 6.9 6.9 6.9 -6.9 6.9 6.9 6.9 -6.89 6.9 6.9 6.9 -6.9 6.9 6.9 6.9 -6.9 6.9 6.9 6.9 -6.89 6.9 6.9 6.9 -6.9 6.89 6.9 6.9 -6.9 6.9 6.9 6.9 -6.9 6.9 6.9 6.9 -6.89 6.9 6.9 6.9 -6.9 6.89 6.9 6.9 -6.9 6.9 6.9 6.9 -6.9 6.9 6.9 6.9 -6.9 6.9 6.9 6.9 -6.9 6.9 6.9 6.9 -6.9 6.89 6.9 6.9 -6.9 6.9 6.9 6.9 -6.9 6.9 6.9 13.8 -13.79 6.9 6.9 13.8 -13.79 6.9 6.9 13.8 -13.79 6.9 6.9 117.3 -117.24 -6.9 -6.9 20.7 -20.69 -6.89 -6.9 13.8 -13.79 -6.9 -6.9 6.9 -6.9 -6.9 -6.9 13.8 -13.79 -6.9 -6.9 6.9 -6.9 -6.89 -6.9 6.9 -6.9 -6.9 -6.9 6.9 -6.9 -6.9 -6.9 6.9 -6.9 -6.9 -6.9 6.9 -6.9 -6.9 -6.9 6.9 -6.89 -6.89 -6.9 6.9 -6.9 -6.9 -6.9 6.9 -6.9 -6.9 -6.9 6.9 -6.9 -6.9 -6.9 6.9 -6.9 -6.9 -6.9 6.9 -6.89 -6.9 -6.9 6.9 -6.9 -6.9 -6.9 6.9 -6.9 -6.9 -6.9 6.9 -6.9 -6.9 -6.9 6.9 -6.9 -6.9 -6.9 6.9 -6.9 -6.9 -6.9 6.9 -6.9 -6.9 -6.9 6.9 -6.9 -6.9 -6.9 6.9 -6.89 -6.9 -6.9 6.9 -6.89 -6.9 -6.9 6.9 -6.9 -6.9 -6.9 6.9 -6.9 -6.9 -6.9 6.9 -6.9 -6.9 -6.9 6.9 -6.9 -6.89 -6.9 6.9 -6.9 -6.9 -6.9 6.9 -6.9 -6.89 -6.9 6.9 -6.9 -6.9 -6.9 6.9 -6.9 -6.89 -6.9 6.9 -6.89 -6.9 -6.9 6.9 -6.9 -6.9 -6.9 6.9 -6.9 -6.9 -6.9 6.9 -6.89 -6.9 -6.9 6.9 -6.9 -6.9 -6.9 6.9 -6.9 -6.9 -6.9 6.9 -6.9 -6.9 -6.9 6.9 -6.9 -6.9 -6.9 6.9 -6.9 -6.9 -6.9 6.9 -6.89 -6.9 -6.9 6.9 -6.9 -6.9 -6.9 6.9 -6.9 -6.9 -6.9 6.9 -6.9 -6.9 -6.9 6.9 -6.9 -6.9 -6.9 6.9 -6.9 -6.9 -6.9 6.9 -6.9 -6.9 -6.9 6.9 -6.9 -6.9 -6.9 6.9 -6.9 -6.89 -6.9 6.9 -6.89 -6.9 -6.9 6.9 -6.9 -6.9 -6.9 6.9 -6.9 -6.9 -6.9 6.9 -6.9 -6.9 -6.9 6.9 -6.9 -6.89 -6.9 6.9 -6.9 -6.9 -6.9 6.9 -6.9 -6.9 -6.9 6.9 -6.9 -6.9 -6.9 6.9 -6.9 -6.89 -6.9 6.9 -6.9 -6.9 -6.9 6.9 -6.9 -6.9 -6.9 6.9 -6.9 -6.9 -6.9 6.9 -6.9 -6.9 -6.9 6.9 -6.89 -6.9 -6.9 6.9 -6.9 -6.9 -6.9 6.9 -6.9 -6.9 -6.9 6.9 -6.9 -6.9 -6.9 6.9 -6.9 -6.9 -6.9 6.9 -6.9 -13.79 -13.8 6.9 -6.9 -6.9 -6.9 6.9 -6.9 -13.79 -13.8 6.9 -6.9z"/>
   <ellipse class="fil0 str0" transform="matrix(0.407092 -0.406868 0.358997 0.359195 697.203 2833.22)" rx="473.37" ry="536.48"/>
  </g>
  <g id="_2609662194624">
   <polyline class="fil0 str0" points="8391.07,676.56 8717.77,1221.06 9629.82,84.4 "/>
   <path class="fil2 str2" d="M8393.03 587.3c50.03,0 90.59,40.55 90.59,90.59 0,50.03 -40.56,90.58 -90.59,90.58 -50.02,0 -90.58,-40.55 -90.58,-90.58 0,-50.03 40.56,-90.59 90.58,-90.59z"/>
   <path class="fil2 str2" d="M9620.83 4.47c50.03,0 90.59,40.55 90.59,90.59 0,50.03 -40.56,90.58 -90.59,90.58 -50.02,0 -90.58,-40.55 -90.58,-90.58 0,-50.03 40.56,-90.59 90.58,-90.59z"/>
   <polyline class="fil0 str0" points="8769.76,723.89 9096.46,1268.39 10008.52,131.74 "/>
   <path class="fil2 str2" d="M8771.72 634.64c50.03,0 90.59,40.55 90.59,90.59 0,50.03 -40.56,90.58 -90.59,90.58 -50.02,0 -90.58,-40.55 -90.58,-90.58 0,-50.03 40.56,-90.59 90.58,-90.59z"/>
   <path class="fil2 str2" d="M9999.53 51.81c50.03,0 90.59,40.55 90.59,90.59 0,50.03 -40.56,90.58 -90.59,90.58 -50.02,0 -90.58,-40.55 -90.58,-90.58 0,-50.03 40.56,-90.59 90.58,-90.59z"/>
   <line class="fil0 str3" x1="8915.44" y1="748.75" x2="8765.29" y2= "935.89" />
   <line class="fil0 str4" x1="9066.5" y1="1000.78" x2="8916.35" y2= "1187.92" />
  </g>
 </g>
</svg>
