<?xml version="1.0" encoding="UTF-8"?>
<!DOCTYPE svg PUBLIC "-//W3C//DTD SVG 1.1//EN" "http://www.w3.org/Graphics/SVG/1.1/DTD/svg11.dtd">
<!-- Creator: CorelDRAW 2019 (64-Bit) -->
<svg xmlns="http://www.w3.org/2000/svg" xml:space="preserve" width="246.664mm" height="222.908mm" version="1.1" style="shape-rendering:geometricPrecision; text-rendering:geometricPrecision; image-rendering:optimizeQuality; fill-rule:evenodd; clip-rule:evenodd"
viewBox="0 0 5444.91 4920.51"
 xmlns:xlink="http://www.w3.org/1999/xlink"
 xmlns:xodm="http://www.corel.com/coreldraw/odm/2003">
 <defs>
  <style type="text/css">
   <![CDATA[
    .str2 {stroke:#FFED00;stroke-width:66.19;stroke-miterlimit:22.9256}
    .str1 {stroke:#FFED00;stroke-width:62.3;stroke-miterlimit:22.9256}
    .str3 {stroke:#FFED00;stroke-width:4.41;stroke-miterlimit:22.9256}
    .str0 {stroke:#FEFEFE;stroke-width:38.94;stroke-miterlimit:22.9256}
    .fil1 {fill:none}
    .fil0 {fill:#FFED00}
   ]]>
  </style>
 </defs>
 <g id="Слой_x0020_1">
  <metadata id="CorelCorpID_0Corel-Layer"/>
  <path class="fil0 str0" d="M2974.08 4559.82c-7.57,38.27 -3.19,33.09 -27.54,53.24 -23.33,86.33 -168.52,168.74 -299.22,118.49 -102.63,-39.46 -191.25,-164.56 -144.09,-305.95 33.86,-101.52 152.22,-194.05 295.35,-155.72 127.81,34.23 180.73,131.19 175.5,289.95zm1542.82 -7.67c-27.01,-149.87 76.48,-266.28 190.88,-286.51 328.76,-58.12 396.9,419.54 96.31,476.8 -148.07,28.2 -266.32,-74.49 -287.19,-190.29zm-2139.71 -223.92c-234.55,-0.14 -245.37,23.63 -244.17,-86.58l0.21 -1287.48c-0.96,-75.96 -10.62,-91.07 70.63,-91.89l1754.01 0.62c166.74,-1.08 125.42,13.7 125.41,185.15l0 1120.3c0.09,53.98 10.32,119.55 -13.35,143.69 -40.43,32.54 -839.31,16.19 -962.74,16.19 -34.23,-23.04 -42.6,-55.4 -72.12,-87.73 -76.37,-83.62 -173.89,-135.99 -301.37,-136.31 -172.64,-0.44 -311.44,112.39 -356.5,224.04zm2866.17 -462.66c-98.63,8.1 -219.72,2.1 -320.89,2.13 -108.1,0.03 -197.96,14.15 -242.42,-68.88 -45.19,-84.39 -8.75,-198.76 56.41,-231.35 53.03,-26.52 233.22,-18.17 301.14,-10.97 50.5,94.53 160.99,215.01 205.76,309.07zm-557.95 138.58l56.9 17.46 521.89 4.34 0.08 293.49c-26.07,29.11 -115.98,17.25 -152.58,11.15l-12.86 -31.82c-62.86,-108.68 -191.76,-201.59 -363.44,-194.26 -203.25,8.68 -262.3,120.3 -341.93,222.99l-148.52 -0.5 3.4 -1039.49 614.43 5.11 42.28 53.08c16.15,25.21 20.69,24.72 24.05,50.78 -147.09,-1.5 -349.43,-8.94 -409.42,204.48 -52.6,187.11 32.19,350.51 165.72,403.18zm-2545.57 473.84l194.66 3.92 9.35 87.48c5.86,340.38 593.6,497.24 761.5,85.06 27.5,-67.5 17.03,-104.59 32.95,-163.93 168.19,-32.49 834.68,15.05 944.99,-11.05 89.13,-21.09 24.04,-28.48 116.23,-1.8 47.3,13.69 106.22,0.02 148.33,10.64 9.39,13.35 5.84,-0.23 11.35,22.85 0.43,1.78 4.52,35.93 5.17,40.89 3.51,26.61 6.57,44.38 12.15,71.17 52.61,309.8 603.48,418.13 753.63,22.6 19.45,-51.23 15.47,-107.98 30.9,-156.49 97.45,-14.27 261.01,33.26 261.35,-206.59 0.17,-125.32 11.4,-347.44 -10.31,-455.51l-24.3 -35.17c-70.65,-110.51 -382.67,-564.25 -485.29,-640.69 -49.38,-36.79 -142.18,-21.14 -208.24,-21.14 -145.26,0.01 -311.26,7.39 -453.96,-1.52 -8.65,-155.23 52.34,-373.1 -152.11,-417.33 -82.83,-17.92 -1579.18,-5.68 -1738.25,-5.68 -133.38,0 -368.18,-38.22 -373.89,196.61 -8.5,349.95 0.2,800.07 0.2,1162.3 0,188.42 -28.33,395.8 163.58,413.38z"/>
  <path class="fil0 str0" d="M555.39 3704.39l1224.03 -0.01c82.05,-0.06 145.82,-52.85 94.18,-127.7 -34.57,-50.1 -153.8,-29.63 -218.65,-29.62l-975.07 -0c-64.78,-0 -178.96,-16.12 -213.88,23.62 -57.51,65.44 -0.83,133.71 89.4,133.71z"/>
  <path class="fil0 str0" d="M1779.42 3145l-777.99 0.04c-64.71,-0.02 -112.72,5.13 -118.33,69.34 -6.24,71.47 44.44,87.07 107.43,88.36l768.32 -0.15c67.25,0.2 121.1,-3.65 128.25,-68.34 8.27,-74.88 -41.68,-89.25 -107.69,-89.25z"/>
  <path class="fil0 str0" d="M1053.3 4106.15l726.12 -0.02c64.82,-1.03 118.41,-17.59 107.32,-92.74 -9.73,-65.89 -70.13,-65.38 -138.29,-64.83l-788.95 0.84c-58.28,6.46 -100.14,56.14 -66.39,118.56 27.1,50.14 100.48,38.18 160.2,38.18z"/>
  <path class="fil0 str0" d="M4713.73 4406.64c-141.76,70.56 -42.82,253.11 89.03,196.55 125.32,-53.75 44.47,-263 -89.03,-196.55z"/>
  <path class="fil0 str0" d="M2630.08 4543.04c34.18,115.7 251.26,87.16 208.69,-71.96 -32.69,-122.2 -255.95,-88.01 -208.69,71.96z"/>
  <circle class="fil1 str1" cx="2734.68" cy="4502.68" r="265.09"/>
  <circle class="fil1 str2" cx="4762.14" cy="4502.68" r="265.09"/>
  <path class="fil0" d="M2403.23 3404.38c33.04,-28.42 68.06,-18.13 119.71,-15.39l84.02 87.14 110.56 4.06 82.41 -91.14 140 -1.37 82.67 90.9c188.58,13.27 119.22,-70.52 208.96,-90.43 40.23,-8.93 106.99,-7.63 139.92,14.93 4.45,3.05 32.23,35.8 33.88,38.45 38.76,62.17 11.28,34.52 2.51,45.22l-70.08 -60.41c-144.65,-6.87 -100.19,-13.55 -181.72,84.52 -153.95,19.39 -142.71,11.23 -230.56,-89.06l-115.55 2.27c-61.38,69.65 -37.76,92.19 -148.07,92.21 -109.32,0.02 -85.67,-21.17 -145.95,-92.05 -54.83,-3.02 -79.75,10.2 -112.71,-19.86zm566.36 -27.8c18.89,-45.32 348.17,-372.35 401.22,-407.06 70.08,43.34 -7.29,28.55 115.75,94.36 1.99,1.07 6.53,2.9 9.25,5.14 -68.14,81.78 -173.5,173.29 -249.77,252.56 -92.96,96.61 -160.67,220.89 -276.46,55.01zm-414.86 0c19.8,-41.32 354.83,-375.84 404.4,-409.37l121.62 102.75 -374.01 378.57c-81.91,38.43 -109.53,-22.13 -152.01,-71.96zm900.09 80.7c-45.42,-30.38 -59.01,-53.77 -73.51,-100.4 102.47,-77.98 322.94,-349.6 406.48,-386.74l69.93 78.99 -402.9 408.16zm-209.86 -95.1c27.09,-49.89 262.75,-270.6 334.55,-346.76 69.29,-73.51 70.75,-59.06 178.82,-54.4 -30.27,51.41 -173.86,182.26 -223.49,232 -185.62,185.99 -135.33,170.23 -289.87,169.17zm-415.23 -1.17l335.66 -342.92c75.34,-76.74 64.81,-60.04 179.37,-58.08 -26.97,49.31 -176.59,187.24 -224.62,235.39 -37.7,37.8 -73.73,73 -110.82,111.6 -72.01,74.92 -68,57.6 -179.58,54.01zm-400.95 -1.97l329.36 -331.27c73.75,-77.86 56.41,-69.65 171.88,-67.85 -26.43,56.23 -167.23,181.14 -217.7,230.92 -175.28,172.85 -139.72,181.93 -283.54,168.2zm59.62 128.29c98.82,62.55 30.84,81.56 187.92,78.58 152.81,-2.89 88.09,-60.21 180.17,-94.53 115.22,6.19 50.73,88.7 193.69,94.71 171.91,7.22 112.94,-31.43 208.84,-94.26 93.79,0.38 79.6,34.36 139.6,89.28 144.09,-86.76 318.51,-334.85 425.52,-389.35 16.01,-43.33 65.55,-79.6 99.99,-115.75 -22.33,-45.34 -40.26,-54.28 -70.61,-92.84 -45.98,-58.42 -41.86,-53.74 -120.58,-54.38 -220.32,-1.79 -127.18,86.15 -251.25,92.55 -100.61,-55.94 -13.98,-93.48 -194.54,-92.58 -171.46,0.86 -94.76,75.8 -208.14,93.29 -103.53,-31.16 -45.33,-120.61 -248.04,-91.76 -59.46,8.46 -300.67,274.15 -359.09,332.12 -93.76,93.03 -127.76,82.29 -115.45,229.36 21.09,-0.12 50.75,-2.09 70.73,-1.01 54.87,2.97 36.95,-7.51 61.26,16.59z"/>
  <path class="fil0" d="M2403.62 3901.03c17.37,-29.85 89.83,-27.54 123.95,-12.96 24.84,10.61 55.7,61.72 73.87,84.93 120.79,1.66 98.12,22.54 166.53,-59.57 40.67,-48.8 120,-35.06 177.9,-29.14 88.77,101.13 35.63,90.72 193.36,88.87 82.95,-117.09 59.21,-93.6 216.74,-90.97 27.16,29.53 64.87,62.93 63.51,99.89 -42.35,-1.1 -47.19,-24.51 -69.31,-65.79 -150.73,-0.13 -109.78,-11.4 -201.76,89.55l-155.44 2.38c-23.1,-49.85 -32.37,-68 -80.85,-91.97 -133.4,0.11 -97.3,5.62 -179.22,91.47l-141.76 1.41c-15.45,-18.46 -50.57,-66.46 -67.49,-76.83 -61.34,-37.61 -72.04,6.65 -120.03,-31.29zm40.68 -151.71c-60.16,120.08 -89.86,4.78 -90.86,215.18 126.53,2.43 139.38,-21.52 206.26,93.4l204.29 -0.09c40.46,-59.25 92.81,-146.27 167.28,-61.33 81.8,93.29 113.91,63.46 248.27,60.71 34.61,-63.41 62.15,-93.41 133.97,-90.49l81.86 90.81c50.37,-20.24 484.81,-455.75 525.96,-514.13l-67.38 -104.62 -50.83 25.34 51.7 80.41 -400.63 401.83c-42.41,-25.62 -59.43,-63.88 -90.31,-100.63 -27.84,17.15 -72.56,10.54 -115.13,10.52 27.54,-52.83 57.72,-35.03 65.71,-102.96 -46.31,19.25 -90.1,72.91 -121.89,112.09 -63.18,77.88 -48.93,84.89 -156.49,83.66 -68.28,-68.99 -54.42,-43.63 -63.21,-100.85l-140.36 7.07c72.21,-106.65 58.96,-31.97 66.45,-101.89 -57.61,33.55 -145.56,138.82 -194.71,194.8 -109.02,3.66 -95.96,-2.71 -154.53,-82.24 -1.14,-1.56 -5.2,-3.25 -6.04,-7.6l-114.98 -5.53 65.19 -87.14c-30.88,-29.2 0.65,-12.03 -49.59,-16.34z"/>
  <path class="fil0" d="M2403.12 3654.57c44.61,-32.14 80.21,-21.45 137.39,-18.08 31.11,72.88 100.4,123.44 184.11,81.65 94.39,-47.12 -18.98,-101.7 215.31,-81.39l82.74 88.6c103.65,8.54 136.42,6.28 176.57,-90.14 96.08,-2.84 205.04,-18.6 224.35,99.17 -52.59,-0.04 -44.99,-15.92 -78.96,-65.06 -137.39,-1.55 -114.86,-7.42 -194.51,93.2 -173.75,-4.87 -122.17,30.2 -219.66,-93.88l-124.66 1.39 -66.09 90.82c-67.86,2.6 -137.65,18.66 -178.42,-33.33 -84.42,-107.65 -63,-27.04 -158.17,-72.95zm81.32 -160.84c-41.47,18.31 -70.1,44.95 -99.69,78.19 -42.87,48.17 -38.38,77.43 -24.98,146.28l93.75 0.68c67.23,3.96 67.15,33.97 105.29,90.34 54.86,1.55 147.12,12.78 195.56,-5.52 69.38,-26.2 33.1,-86.65 115.86,-85.62 80.76,1 46.32,61.24 115.79,86.25 45.05,16.22 143.49,6.54 195.28,5.3 110.74,-196.68 154.3,-34.74 231.26,-2.67 106.85,-83.17 324.04,-346.85 410.15,-388.19 16.55,-49.88 74.43,-77.4 101.51,-127.36 -35.86,-30.98 -58.65,-56.25 -72.02,-100.08l-53.83 21.15 55.16 80.69c-29.84,52.2 -368.25,389.56 -413.51,404.64l-63.29 -89.94c-0.75,-4.42 -3.3,-5.57 -5.02,-1.96l-126.08 2.9c33.91,-58.18 64.45,-52.39 67.1,-102.83 -70.27,42.42 -112.35,121.87 -170.38,171.06 -86.41,73.25 -171.36,-7.65 -167.38,-82.96 -55.4,24.11 -83.66,15.96 -147.5,12.09l71.7 -90.17c-42.28,-7.54 -128.33,117.87 -165.03,155.18 -69.8,70.96 -180.09,22.21 -174.76,-76.28 -49.12,23.84 -74.1,14.61 -131.45,12.67l65.77 -69.32 -9.27 -44.51z"/>
  <path class="fil0" d="M178.88 2607.92l-7.9 3.83c-71.9,-1.66 -130.94,-5.18 -142.95,-12.24 -22.08,-12.98 -38.19,-47.41 -20.46,-82.32 15.56,-30.62 43.33,-32.12 80.43,-32.29 18.9,-640.26 50.27,-1283.29 76.09,-1923.76 11.13,-275.95 -31.03,-248.67 258.15,-248.69 165.09,-0.01 133.44,1.94 147.78,360.31 12.79,319.47 26.7,639.33 37.82,959.27 23.72,-2.26 586.32,-277.08 697.16,-331.02 36.1,-17.57 110.7,-65.06 154.34,-51.78 60.18,18.31 43.39,94.21 43.39,161.84 0,67.7 -1.61,137.24 0.5,204.72 40.55,-11.03 551.27,-262.81 634.98,-303.16 81.23,-39.16 170.23,-102.24 210.86,-41.55 30.11,44.99 -1.17,683.51 12.51,825.59l-2.21 388.24c42.22,0 77.79,-1.32 95.99,25.33 21.55,31.55 8.89,69.46 -13.15,86.02 -32.16,24.17 -182.88,13.04 -232.59,13.05l-1228.07 0c-103.39,0 -173.47,19.53 -187.74,-62.19l5.73 -27.35 6.56 -7.16c32.6,-39.73 87.06,-27.58 151.14,-27.58l1270.73 0.05 6.5 -30.69c2.23,-156.52 4.68,-1004.61 -3.63,-1047.88l-6.4 6.41c-48.58,13.2 -163.5,75.99 -217.19,101.87l-425.76 204.96c-52.06,25.29 -187.39,114.23 -203.72,12.05l-1.11 -324.21 -8.31 6.44c-36.97,7.07 -172.99,79.09 -218.65,100.53 -66.22,31.1 -149.86,78.09 -215.55,101.88 -9.95,-0.61 -7.83,-3.09 -7.83,5.91l-16.35 5.9c-9.91,-0.51 -7.85,-3.03 -7.85,5.84l-4.31 -0.02c-9.91,-0.46 -7.84,-3 -7.84,5.87l-4.35 -0.02c-9.88,-0.45 -7.81,-2.97 -7.81,5.88l-4.35 -0.02c-9.87,-0.45 -7.81,-2.97 -7.81,5.87l-4.4 -0.02c-9.87,-0.43 -7.82,-2.96 -7.82,5.86l-4.36 -0.02c-9.83,-0.41 -7.8,-2.94 -7.8,5.81l-4.48 0c-9.61,-0.28 -7.58,-2.75 -7.58,5.87l-4.58 -0c-9.6,-0.28 -7.58,-2.76 -7.58,5.84l-4.68 -0.05c-9.66,-0.3 -7.63,-2.78 -7.63,5.87l-4.48 0.02c-9.54,-0.23 -7.52,-2.69 -7.52,5.88l-4.68 -0.01c-9.55,-0.25 -7.54,-2.71 -7.54,5.84l-4.66 -0.04c-9.69,-0.23 -7.68,-2.76 -7.68,5.86l-4.44 -0.03c-9.75,-0.23 -7.76,-2.79 -7.76,5.84l-4.57 -0.05c-9.67,-0.23 -7.66,-2.74 -7.66,5.86l-4.42 0.04c-9.64,-0.13 -7.66,-2.67 -7.66,5.86l-4.54 -0.03c-9.64,-0.14 -7.66,-2.68 -7.66,5.85l-4.64 -0.06c-9.67,-0.17 -7.66,-2.7 -7.66,5.9l-4.35 0.03c-9.69,-0.15 -7.72,-2.71 -7.72,5.84l-4.58 -0.04c-9.61,-0.12 -7.64,-2.66 -7.64,5.85l-4.44 0.02c-9.63,-0.05 -7.68,-2.61 -7.68,5.85l-4.57 -0.03c-9.56,-0.03 -7.61,-2.57 -7.61,5.86l-4.65 -0.05c-9.58,-0.06 -7.62,-2.59 -7.62,5.88l-4.47 0.02c-9.49,-0.02 -7.53,-2.53 -7.53,5.88l-4.61 0.01c-9.59,-0.01 -7.67,-2.58 -7.67,5.8l-4.6 -0.04c-9.55,0.04 -7.62,-2.52 -7.62,5.85l-4.55 0c-9.34,0.07 -7.38,-2.4 -7.38,5.91l-4.85 0c-8.86,0.02 -6.81,-2.21 -6.81,6.05l-18.01 5.65 -9.14 5 -24.63 0.18 -9.49 -5.02c-43.36,-15.37 -48.61,-52.46 -42.04,-108.97 1.25,-23.09 2.09,-33.69 -5.7,-51.48l-0.13 -106.97c1.58,-21.83 1.44,-44.47 -6.46,-61.04l-0.25 -53.12 -5.64 -178.95c1.03,-23.26 2.09,-28.33 -5.33,-46.42l-0.41 -106.67c1.4,-22.64 1.31,-44.45 -6.39,-61.38l-0.37 -123.61c1.3,-21.31 3.1,-24.87 -5.38,-41.13l0.2 -95.67 -6.94 -65.73 0.37 -63.42c0.74,-23.04 1.82,-28.19 -5.41,-46.06l-3.29 -141.43 -127.36 -2.23c-12.87,9.13 -8.85,15.11 -10.01,35.65 -0.76,13.55 -1.34,25.34 -0.7,38.65l1.24 49.29c-7.73,16.26 -8.6,44.46 -6.85,66.09l1.26 114.41c-7.21,14.3 -5.71,16.08 -6.88,36.3 -0.81,13.9 -1.44,25.38 -0.81,39.11l-0.05 57.19 -16.79 455.05c-9.08,18.34 -10.06,57.53 -8.26,81.49l2.29 60.53 -7.65 75.54 1.3 108.91c-7.65,16.15 -8.4,48.47 -7.12,71.16l-6.06 199.26 -11.66 338.42c-7.62,17.11 -7.87,38.56 -6.39,61.39l-5.92 225.92 -6.53 12.93c-6.93,24.92 -7.79,26.62 -29.13,35.41 -1.39,1.08 -3.64,2.57 -4.13,3.26 -0.18,0.25 -0.03,1.77 0.02,2.43 0.02,0.27 0.02,0.39 -0.02,0.21 -0.03,-0.1 -0.02,-0.17 0.02,-0.21 0.27,-0.27 2.02,1.01 3.33,1.8z"/>
  <path class="fil0" d="M1257.54 9.51c-189.4,52.3 -114.04,174.79 -40.55,157.69 37.18,-8.64 65.86,-64.73 133.14,-31.42 16.29,8.07 34.41,27.21 51.44,38.49 85.04,56.33 192.13,48.69 269.83,-20.14 40.74,-36.09 95.7,-36.35 131.11,-2.97 104.82,98.81 266.24,59.51 313.09,-14.67 29.22,-46.26 -14.99,-102.48 -69.5,-90.9 -34.53,7.34 -63.36,64.73 -131.69,32.56 -27.63,-13.01 -42.61,-46.77 -112.36,-67.33 -153.36,-45.21 -207.34,72.29 -273.51,75.3 -81.44,3.71 -110.92,-120.83 -271,-76.63z"/>
  <path class="fil0 str3" d="M264.79 1329.48l-5.28 80.55 210.82 0.42 -5.64 -178.96c-7.77,-17.82 -6.33,-23.55 -5.33,-46.42l-0.41 -106.67c-7.64,-16.87 -7.62,-38.81 -6.39,-61.39l-0.38 -123.6 -4.66 -0.75 -166.02 -0.75 0.08 -17.48 -16.79 455.05z"/>
  <path class="fil0" d="M589.84 47.79c-129.79,20.02 -278.29,132.4 -172.62,190.43 53.17,29.2 80.23,-31.2 146.37,-56.13 72.43,-27.3 322.33,-10.33 418.2,-14.48 81.81,-3.54 89.14,-92.93 37.45,-116.99 -30.84,-14.36 -379.76,-10.49 -429.4,-2.83z"/>
  <polygon class="fil0" points="1527.19,2361 1733.56,2360.09 1733.9,2178.69 1527.19,2178.69 "/>
  <polygon class="fil0" points="796.51,2361.28 1002.89,2359.81 1002.89,2178.69 796.51,2178.69 "/>
  <polygon class="fil0" points="1161.88,2361.14 1368.19,2359.94 1368.19,2178.69 1161.88,2178.69 "/>
  <polygon class="fil0" points="1892.56,2360.85 2098.87,2360.22 2098.87,2178.69 1892.56,2178.69 "/>
  <path class="fil0" d="M794.35 2049.23l214.5 1.33c0,-43.18 6.66,-96.03 -12.63,-132.24 -15.64,-29.35 -45.8,-53.61 -93.97,-53.69 -43.65,-0.07 -79.62,25.13 -94.65,52.65 -19.01,34.82 -13.26,89.02 -13.26,131.94z"/>
  <path class="fil0" d="M1159.33 2048.97l214.4 1.13c-0,-45.74 6.22,-96.28 -12.52,-132.01 -39.57,-75.47 -152.32,-66.76 -188.64,-0.56 -19,34.63 -13.25,88.6 -13.25,131.44z"/>
  <path class="fil0" d="M1524.28 2048.8l214.43 1.36c-0,-64.24 15.95,-184.76 -106.64,-185.46 -44.63,-0.26 -79.01,25.16 -94.51,53.04 -19.37,34.83 -13.28,88.63 -13.28,131.06z"/>
  <path class="fil0" d="M1889.26 2048.56l214.4 1.64c-0,-61.94 16.51,-185 -106.82,-185.51 -44.3,-0.18 -79.13,25.45 -94.37,53.28 -18.99,34.69 -13.22,87.75 -13.22,130.6z"/>
  <path class="fil0" d="M2251.48 49.17c-80.74,27.1 -32.32,139.71 44.1,114.7 68.25,-22.33 42.46,-143.76 -44.1,-114.7z"/>
  <path class="fil0" d="M2227.96 2485.06l6.5 -30.69c2.23,-156.51 4.68,-1004.61 -3.63,-1047.88l-6.39 6.41c12.87,28.19 3.53,953.77 3.53,1072.16z"/>
  <path class="fil0" d="M796.51 2361.28l0 -182.59 206.38 0 0 181.11c15.38,-9.56 7.73,-167.83 5.79,-183.82l-214.26 -3.03c-2.67,16.52 -7.79,167.14 2.09,188.33z"/>
  <path class="fil0" d="M1527.19 2361l0 -182.31 206.71 0 -0.34 181.39c10.53,-7.36 4.14,8.83 7.16,-17.08l-2.08 -167.42 -214.3 -2.55c-3.25,21.54 -8.08,167.42 2.85,187.97z"/>
  <path class="fil0" d="M1892.56 2360.85l0 -182.16 206.31 0 0 181.53c8,-5.92 7.15,5.72 6.64,-40.81l-1.93 -143.98 -214.26 -2.35 -2.24 140.41c-0.16,20.02 -3.17,32.12 5.48,47.37z"/>
  <path class="fil0" d="M1161.88 2361.14l0 -182.45 206.31 0 0 181.24c11.92,-7.83 7.42,-21.48 7.2,-40.52l-1.77 -143.59 -214.22 -2.83 -2.16 175.5c2.83,17.76 2.53,8.41 4.64,12.64z"/>
  <polygon class="fil0" points="1377.77,1731.77 1376.66,1407.55 1368.34,1413.99 1371.01,1715.77 "/>
  <path class="fil0" d="M256.53 1410.97l2.99 -0.94 5.28 -80.55c-9.08,18.34 -10.06,57.53 -8.26,81.49z"/>
  <path class="fil0" d="M288.06 627.43c7.72,-16.51 7.94,-43.23 6.85,-66.09 -7.73,16.26 -8.6,44.47 -6.85,66.09z"/>
  <path class="fil0" d="M293.68 512.05l10.71 -74.3c-12.88,9.13 -8.86,15.1 -10.01,35.65 -0.76,13.55 -1.35,25.33 -0.7,38.65z"/>
  <path class="fil0" d="M221.23 2326.18c7.71,-16.66 7.54,-39.02 6.39,-61.39 -7.62,17.12 -7.87,38.56 -6.39,61.39z"/>
  <path class="fil0" d="M458.96 1078.4c1.4,-22.64 1.3,-44.45 -6.39,-61.39 -1.23,22.58 -1.24,44.51 6.39,61.39z"/>
  <path class="fil0" d="M477.05 1524.61c1.58,-21.83 1.44,-44.47 -6.46,-61.04 -1.01,23.07 -1.08,44 6.46,61.04z"/>
  <path class="fil0" d="M482.87 1683.06c1.26,-23.09 2.09,-33.7 -5.7,-51.48 -1.01,23.05 -1.88,33.81 5.7,51.48z"/>
  <path class="fil0" d="M251.16 1547.04c8.29,-16.65 8.81,-51.83 7.65,-75.54l-7.65 75.54z"/>
  <path class="fil0" d="M464.69 1231.49c1.03,-23.26 2.09,-28.32 -5.33,-46.42 -1,22.87 -2.45,28.6 5.33,46.42z"/>
  <path class="fil0" d="M440.44 627.46c0.74,-23.04 1.82,-28.19 -5.41,-46.06 -1.18,22.66 -2.63,28.25 5.41,46.06z"/>
  <path class="fil0" d="M281.64 817.24l7.69 -75.41c-7.21,14.3 -5.71,16.08 -6.88,36.3 -0.81,13.9 -1.44,25.38 -0.8,39.11z"/>
  <path class="fil0" d="M447.53 892.66l4.66 0.75c1.31,-21.31 3.11,-24.88 -5.37,-41.13l0.71 40.38z"/>
  <path class="fil0" d="M245.35 1727.11l7.12 -71.16c-7.65,16.15 -8.4,48.47 -7.12,71.16z"/>
  <path class="fil0" d="M447.01 756.62l-6.94 -65.73c-0.9,23.1 -0.81,49.19 6.94,65.73z"/>
  <path class="fil0" d="M678.42 1739.21c-9.63,-0.05 -7.68,-2.61 -7.68,5.85 9.61,-0.01 7.68,2.57 7.68,-5.85z"/>
  <path class="fil0" d="M629.68 1762.63c-9.59,-0 -7.67,-2.58 -7.67,5.8 9.62,0.09 7.67,2.65 7.67,-5.8z"/>
  <path class="fil0" d="M653.9 1750.85c-9.58,-0.06 -7.61,-2.6 -7.61,5.87 9.54,-0.05 7.61,2.51 7.61,-5.87z"/>
  <path class="fil0" d="M617.4 1768.39c-9.55,0.04 -7.62,-2.52 -7.62,5.86 9.58,0.06 7.62,2.6 7.62,-5.86z"/>
  <path class="fil0" d="M666.17 1745.03c-9.56,-0.03 -7.61,-2.57 -7.61,5.86 9.55,-0.01 7.61,2.54 7.61,-5.86z"/>
  <path class="fil0" d="M641.82 1756.74c-9.49,-0.02 -7.53,-2.53 -7.53,5.88 9.48,-0.02 7.53,2.5 7.53,-5.88z"/>
  <path class="fil0" d="M605.23 1774.25c-9.34,0.07 -7.38,-2.4 -7.38,5.92 9.36,0.02 7.38,2.47 7.38,-5.92z"/>
  <path class="fil0" d="M534.4 1797.04l-9.49 -5.02c0,9.2 -1.84,6.01 9.49,5.02z"/>
  <path class="fil0" d="M568.17 1791.86l-9.14 5c11,1.07 9.14,4.11 9.14,-5z"/>
  <path class="fil0" d="M934.15 1616.4c-9.95,-0.61 -7.82,-3.09 -7.82,5.91l7.82 -5.91z"/>
  <path class="fil0" d="M806.1 2512.59c-9.4,0 -6.97,-2.17 -6.56,7.16l6.56 -7.16z"/>
  <path class="fil0" d="M909.98 1628.22c-9.91,-0.51 -7.85,-3.03 -7.85,5.84l7.85 -5.84z"/>
  <path class="fil0" d="M897.82 1634.04c-9.91,-0.46 -7.84,-3 -7.84,5.87l7.84 -5.87z"/>
  <path class="fil0" d="M885.62 1639.89c-9.88,-0.45 -7.81,-2.97 -7.81,5.88l7.81 -5.88z"/>
  <path class="fil0" d="M873.46 1645.75c-9.87,-0.45 -7.81,-2.97 -7.81,5.87l7.81 -5.87z"/>
  <path class="fil0" d="M861.25 1651.59c-9.87,-0.43 -7.82,-2.96 -7.82,5.87l7.82 -5.87z"/>
  <path class="fil0" d="M849.08 1657.43c-9.83,-0.41 -7.8,-2.94 -7.8,5.81l7.8 -5.81z"/>
  <path class="fil0" d="M763.74 1698.3c-9.75,-0.23 -7.76,-2.79 -7.76,5.84l7.76 -5.84z"/>
  <path class="fil0" d="M812.37 1674.91c-9.66,-0.3 -7.63,-2.78 -7.63,5.87l7.63 -5.87z"/>
  <path class="fil0" d="M775.86 1692.47c-9.69,-0.24 -7.68,-2.76 -7.68,5.86l7.68 -5.86z"/>
  <path class="fil0" d="M751.41 1704.09c-9.67,-0.23 -7.66,-2.75 -7.66,5.86l7.66 -5.86z"/>
  <path class="fil0" d="M714.81 1721.61c-9.66,-0.17 -7.66,-2.7 -7.66,5.9l7.66 -5.9z"/>
  <path class="fil0" d="M836.79 1663.25c-9.61,-0.28 -7.58,-2.75 -7.58,5.87l7.58 -5.87z"/>
  <path class="fil0" d="M702.8 1727.53c-9.69,-0.15 -7.72,-2.71 -7.72,5.84l7.72 -5.84z"/>
  <path class="fil0" d="M824.63 1669.11c-9.6,-0.28 -7.58,-2.75 -7.58,5.84l7.58 -5.84z"/>
  <path class="fil0" d="M727.12 1715.81c-9.64,-0.14 -7.66,-2.68 -7.66,5.86l7.66 -5.86z"/>
  <path class="fil0" d="M739.32 1709.99c-9.63,-0.13 -7.66,-2.67 -7.66,5.86l7.66 -5.86z"/>
  <path class="fil0" d="M800.26 1680.8c-9.54,-0.24 -7.52,-2.69 -7.52,5.88l7.52 -5.88z"/>
  <path class="fil0" d="M788.06 1686.67c-9.55,-0.25 -7.54,-2.71 -7.54,5.84l7.54 -5.84z"/>
  <path class="fil0" d="M690.49 1733.34c-9.61,-0.12 -7.63,-2.65 -7.63,5.85l7.63 -5.85z"/>
  <path class="fil0" d="M593 1780.17c-8.87,0.02 -6.81,-2.21 -6.81,6.05l6.81 -6.05z"/>
  <path class="fil0" d="M179.66 2608.35l0 -7.91c-1.39,1.07 -3.64,2.57 -4.12,3.26 -0.25,0.35 0.15,3.24 0,2.64 -0.25,-1.02 2.74,1.37 4.12,2.02z"/>
  <polygon class="fil0" points="208.79,2565.03 215.31,2552.1 "/>
  <g id="_2609654996208">
   <path class="fil0" d="M393.9 2517.27l184.85 0c10.52,-29.34 16.6,-64.05 16.6,-101.24 0,-105.37 -48.81,-190.79 -109.02,-190.79 -60.21,0 -109.02,85.42 -109.02,190.79 0,37.19 6.08,71.9 16.6,101.24z"/>
   <path class="fil1 str3" d="M578.75 2517.27c10.52,-29.34 16.6,-64.05 16.6,-101.24 0,-105.37 -48.81,-190.79 -109.02,-190.79 -60.21,0 -109.02,85.42 -109.02,190.79 0,37.19 6.08,71.9 16.6,101.24"/>
  </g>
  <rect class="fil0 str3" x="787.55" y="2170.25" width="229.73" height="190.79"/>
  <rect class="fil0 str3" x="1153.55" y="2170.25" width="229.73" height="190.79"/>
  <rect class="fil0 str3" x="1511.77" y="2170.25" width="229.73" height="190.79"/>
  <rect class="fil0 str3" x="1885.56" y="2170.25" width="229.73" height="190.79"/>
 </g>
</svg>
