<?xml version="1.0" encoding="UTF-8"?>
<!DOCTYPE svg PUBLIC "-//W3C//DTD SVG 1.1//EN" "http://www.w3.org/Graphics/SVG/1.1/DTD/svg11.dtd">
<!-- Creator: CorelDRAW 2019 (64-Bit) -->
<svg xmlns="http://www.w3.org/2000/svg" xml:space="preserve" width="155.906mm" height="173.225mm" version="1.1" style="shape-rendering:geometricPrecision; text-rendering:geometricPrecision; image-rendering:optimizeQuality; fill-rule:evenodd; clip-rule:evenodd"
viewBox="0 0 1354.33 1504.77"
 xmlns:xlink="http://www.w3.org/1999/xlink"
 xmlns:xodm="http://www.corel.com/coreldraw/odm/2003">
 <defs>
  <style type="text/css">
   <![CDATA[
    .str1 {stroke:#FFED00;stroke-width:24.52;stroke-miterlimit:22.9256}
    .str2 {stroke:#FFED00;stroke-width:4.6;stroke-miterlimit:22.9256}
    .str0 {stroke:#FFED00;stroke-width:1.74;stroke-miterlimit:22.9256}
    .fil1 {fill:none}
    .fil2 {fill:#FEFEFE}
    .fil0 {fill:#FFED00}
   ]]>
  </style>
 </defs>
 <g id="Слой_x0020_1">
  <metadata id="CorelCorpID_0Corel-Layer"/>
  <path class="fil0" d="M770.65 1033.4c-7.25,-44.1 25.15,-47.38 47.16,-26.17 8.29,39.42 -22.52,50.56 -47.16,26.17zm-464.73 -30.33c48.23,-45.96 76.44,42.63 12.48,34.28 -6.49,-5.91 -6.55,-5.91 -12.05,-12.91l-0.43 -21.37zm94.61 69.92l-118.9 1.64c-23.21,-3.42 -3.74,1.43 -12.22,-5.5 -14.46,-18.97 -4.8,-77.93 -4.8,-105.48 -23.7,3.3 -23.41,4.7 -24.13,29.16 -1.41,48.26 2.63,117.37 -0.78,158.74l-204.85 0.63c-4.87,-68.87 30.25,-186.79 55.41,-236.95 20.66,-41.2 34.64,-46.19 79.34,-66.37 24.74,-11.17 80.88,-37.35 107.3,-43.42l1.67 252.14c26.9,9.82 76.98,3.74 108.39,3.57l1.71 -308.8 22.84 -12.98c29.5,154.92 219.01,177.86 285.29,53.86 9.65,-18.06 14.67,-35.98 22.33,-51.49l20.29 9.09 0.63 317.87 110.41 -0.22 0.74 -263.32c32.91,9.04 73.34,29.52 104.57,42.29 45.71,18.69 62.61,28.06 82.45,67.8 30.94,61.98 53.94,154.47 56.76,235.05l-206.48 1.9 -0.67 -180.84c-10.67,-6.7 -7.81,-6.72 -22.38,-8.97l-0.94 90.05c-0.01,2.36 0.06,11.95 -0.18,13.71 -3,21.95 0.07,5.43 -5.04,12.83 -18.7,10.24 -100.77,4.55 -128.22,2.23 -11.27,-27.12 -2.52,-84.34 -6.05,-116.71l-322.23 -2.05 -2.24 110.53zm38.87 -391.56c43.48,17.98 65.51,40.23 124.85,40.52 54.03,0.26 86.21,-24.84 125.23,-40.42 1.58,218.12 -256.93,209.35 -250.08,-0.09zm-69.04 -312.08c12.32,-10.47 63.97,-33.58 86.01,-40.54 92.78,-29.31 229.77,-11.54 302.05,40.28l1.43 67.8c16,-15.16 32.81,-61.79 48.8,-71.67 1.8,50.02 -7.92,77.93 -30.89,112.65 -5.55,8.39 -8.57,14.2 -15.01,21.24 -47.5,51.88 -10.18,6.75 -36.52,68.14 -24.9,58.05 -81.11,121.36 -162.01,121.68 -141.32,0.54 -165.02,-154.31 -184.73,-175.99 -40.93,-45.01 -61.79,-76.11 -59.7,-147.9 16.35,11.18 33.6,56.36 49.01,72.04l1.55 -67.72zm-27.16 -62.25c6.19,-8.64 -3.68,-5.11 23.88,-17.16 7.23,-3.16 13.69,-6.09 22.04,-9.49 16.35,-6.64 34.62,-12.66 51.2,-17.31 102.68,-28.78 292.86,-9.83 343.41,37.52 -3.98,2.36 7.93,11.27 -27.67,-0.92 -8.89,-3.04 -15.96,-5.27 -23.96,-7.56 -151.79,-43.32 -250.22,-19.12 -388.9,14.92zm-55.88 54.43c-1.16,49.51 2.87,52.8 13.73,95.44 9.06,14.35 16.22,29.97 26.24,44.14 8.91,12.6 24.26,28.3 30.06,38.2 7.04,12.01 12.46,35.51 19.18,49.23 17.81,36.35 30.38,36.99 30.01,76.5 -0.14,14.57 0.09,26.65 -1.49,41.2 -49.26,19.23 -98.41,49.12 -148.21,70.43 -40.43,17.3 -121.26,47.17 -153.42,69.9 -65.82,46.52 -103.26,226.02 -103.41,337.82l1128.53 0c-0.15,-113.99 -37.68,-286.39 -103.42,-337.89 -28.26,-22.14 -115.95,-53.01 -153.43,-69.67 -49.76,-22.11 -97.77,-51.97 -148.38,-70.66 -1.26,-13.76 -3.2,-56.22 0.08,-68.04 1.14,-4.12 18.87,-31.73 23.65,-40.69 28.08,-52.61 -0.06,-28.04 44.56,-82.99 33.76,-41.58 72.41,-123.61 36.84,-185.99l-14.54 -5.03 -1.64 -141.23c-9.68,-58.46 -27.36,-103.22 -62.45,-130.94 -14.69,-11.61 -38.23,-25.91 -61.29,-34.17 -26.49,-9.49 -56.46,-9.83 -77.07,-17.09l-102.14 0c-14.29,6.54 -38.86,7.89 -55.39,12.53 -168.21,47.19 -132.84,208.16 -140.21,310.9 -21.79,14.09 -19.32,6.24 -26.38,38.09z"/>
  <path class="fil0 str0" d="M838.82 1435.66l26.72 0.95 23.73 0.85 10.86 -0.11c4.31,-3.07 1.36,0.35 2.84,-4.91 0.14,-0.49 0.51,-5.72 0.54,-6.49 0.13,-4.45 0.07,-9.1 0.13,-13.57 0.12,-9.04 0.59,-17.9 1.09,-26.9 0.95,-17.34 1,-34.7 1.89,-52.13l2.56 -79.05c0.44,-14.97 3.6,-20.68 -1.67,-23.61l-10.83 -0.75 -23.73 -0.85 -26.72 -0.95c-25.68,-1.65 -40.47,3.24 -41.07,30.11l-0.95 26.72 -0.85 23.73 -0.95 26.72 -0.85 23.73 -0.95 26.72 -0.6 23.74c0.46,5.47 1.82,9.9 4.07,13.27 0.67,1.01 3.41,4.25 3.81,4.59 5.52,4.87 -0.06,1.62 5.5,2.64 2.61,3.11 -3.32,0.5 5.03,3.77 1.92,0.75 3.9,0.95 5.94,1.19 4.77,0.57 9.67,0.54 14.46,0.58zm285.16 -137.87l-27.08 2.71 -23.6 2.19c-8.3,0.58 -25.77,-0.4 -31.36,4.22 -7.17,-1.18 -12.01,-0.5 -19.32,0.73 -5.65,0.36 -10.52,0.93 -16.22,1.48 -2.27,0.22 -5.15,0.27 -7.4,0.62 -2.08,0.32 -1.36,0.25 -3.02,0.63 -0.36,0.08 -1.59,0.4 -1.36,0.49 0.22,0.08 -0.89,0.33 -1.32,0.53 -15.42,-3 -11.34,2.7 -20.97,-9.96l-6.69 -13.15 -10.05 -24.14c-1.41,-3.51 -2.58,-5.95 -4.09,-9.29 -0.65,-1.43 -1.3,-3.15 -2.21,-4.54 -1.54,-2.35 -0.97,-1.26 -2.68,-2.82 -1.12,-8.08 -3.48,-8.78 -10.7,-12.37l-1.15 28.25 -0.94 25.44 -0.86 25.01 -0.94 25.44 -0.86 25.01 -0.94 25.44 -0.86 25.01 -0.33 23.25c7.33,-1.04 9.21,-0.89 13.66,-5.65 6.37,-3.78 13.48,-10.12 17.38,-16.53l6.45 -6c5.1,-2.63 5.71,-5.29 11.56,-7.35 3.38,-1.19 10.78,-2.11 14.78,-2.73 9.61,-1.52 48.45,-6.22 53.01,-9.93 7.55,0.93 15.61,-1.26 23.28,-2.5 7.4,-1.06 22.79,-1.4 27.26,-5.91 7.95,0.87 15.58,-0.91 23.55,-2.38 10.13,-1.63 18.54,-3.06 28.73,-4.54 17.15,-2.49 16.02,0.54 16.43,-16.66 0.15,-6.17 3.69,-59.03 0.88,-64.13l-42 4.12zm91 -149.92l-8.17 15.45 112.59 3.68 -7.63 -16.11 -5.38 -10.16 -82.38 -3.16c-7.86,0.43 -2.41,-0.43 -5,3.18l-4.02 7.12zm102.23 306.24l1.15 -26 0.85 -23.73 0.95 -26.72 0.85 -23.73 0.95 -26.72 0.85 -23.73 0.95 -26.72 0.85 -23.73 0.95 -26.72 0.85 -23.73 0.22 -9.16 -24.52 -0.96 -23.73 -0.85 -26.72 -0.95 -23.73 -0.85 -30.68 -0.65 -8.47 233.39c-0.57,19.84 -4.89,33.43 7.28,45.07 9.87,9.44 27.16,8.06 42.79,8.42 31.39,0.72 74.07,11.51 78.35,-21.94zm-82.98 -381.78c-10.64,4.78 -8.78,12.91 -8.25,39.01 7.56,2.26 66.81,3.92 77.71,3.56 0.86,-8.22 0.69,-16.76 0.99,-25.09 0.27,-7.55 0.61,-12.64 -7.02,-15.4l-9.67 -12.23 -5.76 -0.23 -25.44 -0.88 -11.66 -0.03 -10.9 11.29zm63.39 431.56l-95.1 -3.39 -8.09 -4c-41.2,-18.03 -32.32,-55.97 -30.83,-97.85 -6.32,0.12 -18.48,0.85 -22.13,4.54 -7.78,-1.03 -15.8,0.87 -23.58,2.38 -7.2,1 -23.41,2.34 -27.5,5.79 -7.83,-0.86 -15.31,1.03 -23.28,2.5 -9.48,1.41 -17.77,2.88 -27.36,4.4 -7.27,1.15 -20.88,1.76 -25.78,5.52 -7.15,-0.91 -13.9,0.99 -20.86,2.33 -8.41,1.55 -7.57,2.06 -12.68,6.88 -3.76,3.55 -5.53,4.65 -8.29,8.78l-6.74 6.28c-6.78,3.8 -11.62,10.28 -21.85,13.46 -8.6,2.68 -18.72,2.42 -28.5,2.72l-26.72 -0.95 -23.73 -0.85 -26.72 -0.95c-30.52,-3.11 -29.76,-2.25 -50.86,-16.27 -0.71,-3.15 -3.83,-7.49 -6.2,-9.16 -3.32,-10.97 -5.38,-12.1 -6.61,-25.85l0.6 -26.73 0.85 -23.73 0.95 -26.72 0.85 -23.73 0.95 -26.72 0.85 -23.73 4.24 -25.94c4.86,-6.75 6.57,-13.02 15.38,-19.25 7.16,-5.07 13.02,-7.81 23.71,-11.11l26.05 -0.16 23.73 0.85 26.72 0.95 23.73 0.85c11.22,0.66 16.1,2.09 25.78,5.92l7.68 4.85c2.04,3.4 5.53,5.17 8.28,8.94 1.89,2.59 4.98,8.22 6.95,9.92 1.7,6.01 -0.11,3.19 3.69,6.58 0.45,5.17 7.12,19.4 10.21,23.86l7.73 18.9c5.68,0.1 5.68,1.03 9.41,-1.81 7.68,1.18 12.08,-0.13 19.99,-0.65 8.38,-0.77 25.12,-0.07 30.7,-4.27 7.7,1.1 15.8,0.03 22.71,-1.5 4.78,-12.69 -1.68,-22.94 14.99,-25.99 9.11,-1.67 24.8,-3.7 33.97,-3.75 11.35,-1.37 15.34,-3.12 26.19,-0.07l0 -0.27c3.97,6.83 4.59,11.08 4.56,22.84l12.72 -1.87 3.84 -94.12 0.33 -2.17 26.67 -50.49 1.22 -23.29 1.09 -25.43 4.9 -9.75c5.91,-3.6 11.99,-9.27 16,-14.9l10.62 -9.18c7.5,-3.74 11.66,-2.55 21.1,-2.2l0.76 -14.29 0.78 -21.88 1.02 -28.57 0.78 -21.88 1.02 -28.57 0.78 -21.88c0.9,-12.89 3.54,-11.74 10.34,-18.14l6.45 0.23c5.62,4.15 7.96,3.89 9.14,12.16 2.17,15.16 -7.06,125.66 -4.2,143.45 7.46,0.76 12.66,-0.58 19.39,3.02 6.89,3.69 5.18,7.18 11.54,9.94 13.2,25.95 19.03,-2.03 17.87,55.62l-0.31 18.35c0.54,4.71 0.36,2.62 1.03,4.23l11.71 27.69 11.23 23.42 -1.23 25.52 -0.85 23.73 -0.95 26.72 -0.85 23.73 -0.95 26.72 -0.85 23.73 -0.95 26.72 -0.85 23.73 -0.95 26.72 -0.85 23.73 -1.18 26.71c-3.41,9.38 -3.63,30.17 -27.89,41.52 -4.97,2.33 -13.14,4.48 -17.48,6.63z"/>
  <path class="fil0 str0" d="M1218.76 1446.21c-3.21,-3.27 -2.17,-1.95 -4.09,-5.89 -0.31,-18.28 -0.46,-77.7 5.56,-90.32l1.7 -1.58c9.55,-3.75 14.14,-2.11 19.53,3.9 3.61,14.16 -0.36,56.35 -1.07,73.81 -0.4,14.61 0.39,15 -8.85,23.54l-12.79 -3.46z"/>
  <path class="fil0 str0" d="M1266.55 1426.27l0.85 -23.73 0.95 -26.72c0.63,-8.57 1.69,-18.07 3.17,-24.37 10.19,-3.86 14.61,-6.52 21.55,3.22 4.13,12.42 -0.1,56.87 -0.45,73.32 -0.24,11.6 -1.19,23.9 -14.06,23.27 -13.23,-0.64 -12.75,-13.24 -12.01,-25z"/>
  <circle class="fil0 str0" cx="451.4" cy="414.44" r="34.11"/>
  <circle class="fil0 str0" cx="670.9" cy="414.44" r="34.11"/>
  <path class="fil1 str1" d="M615.9 535.74c-1.93,22.58 -26.35,40.43 -56.19,40.43 -29.84,0 -54.26,-17.85 -56.19,-40.43"/>
  <ellipse class="fil2 str2" cx="330.21" cy="1014.67" rx="27.12" ry="25.05"/>
  <ellipse class="fil2 str2" cx="795.41" cy="1020.64" rx="27.12" ry="25.05"/>
 </g>
</svg>
