<svg width="29" height="29" viewBox="0 0 29 29" fill="none" xmlns="http://www.w3.org/2000/svg">
<path d="M14.5 15.7085C16.502 15.7085 18.125 14.0855 18.125 12.0835C18.125 10.0815 16.502 8.4585 14.5 8.4585C12.498 8.4585 10.875 10.0815 10.875 12.0835C10.875 14.0855 12.498 15.7085 14.5 15.7085Z" stroke="black" stroke-width="2" stroke-linecap="round" stroke-linejoin="round"/>
<path d="M14.5002 2.4165C11.9364 2.4165 9.47765 3.43495 7.6648 5.24781C5.85195 7.06066 4.8335 9.51941 4.8335 12.0832C4.8335 14.3693 5.31925 15.8653 6.646 17.5207L14.5002 26.5832L22.3543 17.5207C23.6811 15.8653 24.1668 14.3693 24.1668 12.0832C24.1668 9.51941 23.1484 7.06066 21.3355 5.24781C19.5227 3.43495 17.0639 2.4165 14.5002 2.4165V2.4165Z" stroke="black" stroke-width="2" stroke-linecap="round" stroke-linejoin="round"/>
</svg>
