<svg width="31" height="31" viewBox="0 0 31 31" fill="none" xmlns="http://www.w3.org/2000/svg">
<path d="M15.5002 20.6668C18.3536 20.6668 20.6668 18.3536 20.6668 15.5002C20.6668 12.6467 18.3536 10.3335 15.5002 10.3335C12.6467 10.3335 10.3335 12.6467 10.3335 15.5002C10.3335 18.3536 12.6467 20.6668 15.5002 20.6668Z" stroke="black" stroke-width="2" stroke-linecap="round" stroke-linejoin="round"/>
<path d="M28.4168 15.5002C28.4168 8.36629 22.634 2.5835 15.5002 2.5835C8.36629 2.5835 2.5835 8.36629 2.5835 15.5002C2.5835 22.634 8.36629 28.4168 15.5002 28.4168C18.409 28.4168 21.0931 27.4558 23.2515 25.8335" stroke="black" stroke-width="2" stroke-linecap="round" stroke-linejoin="round"/>
<path d="M20.6665 10.3335V15.5002C20.6665 16.7918 21.4415 19.3752 24.5415 19.3752C27.6415 19.3752 28.4165 16.7918 28.4165 15.5002" stroke="black" stroke-width="2" stroke-linecap="round" stroke-linejoin="round"/>
</svg>
