<svg width="163" height="146" viewBox="0 0 163 146" fill="none" xmlns="http://www.w3.org/2000/svg">
<path d="M32.7502 106.437C38.7793 106.437 43.6668 101.55 43.6668 95.5207C43.6668 89.4916 38.7793 84.604 32.7502 84.604C26.7211 84.604 21.8335 89.4916 21.8335 95.5207C21.8335 101.55 26.7211 106.437 32.7502 106.437Z" stroke="#FFE600" stroke-width="6" stroke-linejoin="round"/>
<path d="M95.5207 106.437C101.55 106.437 106.437 101.55 106.437 95.5207C106.437 89.4916 101.55 84.604 95.5207 84.604C89.4916 84.604 84.604 89.4916 84.604 95.5207C84.604 101.55 89.4916 106.437 95.5207 106.437Z" stroke="#FFE600" stroke-width="6" stroke-linejoin="round"/>
<path d="M21.5824 95.3682H5.24023V47.1604C5.24023 47.1604 33.7845 47.1606 60.455 47.1602C91.1094 47.1597 84.2274 95.3682 84.2274 95.3682H43.372" stroke="#FFE600" stroke-width="6" stroke-linecap="round" stroke-linejoin="round"/>
<path d="M82.7988 96C89.5483 38.4999 60 47.5135 60 47.5135L107.485 47.5135L126 71.7568V96H108.176" stroke="#FFE600" stroke-width="6" stroke-linecap="round" stroke-linejoin="round"/>
<path d="M158.25 93.75L110.75 141.25L158.25 141.25L158.25 93.75Z" stroke="#FFE600" stroke-width="4.75" stroke-linecap="round" stroke-linejoin="round"/>
<path d="M133.312 130.562L147.562 130.562L147.562 116.312L133.312 130.562Z" stroke="#FFE600" stroke-width="4.75" stroke-linecap="round" stroke-linejoin="round"/>
<path d="M158.25 110.375L154.688 110.375" stroke="#FFE600" stroke-width="4.75" stroke-linecap="round" stroke-linejoin="round"/>
<path d="M158.25 117.5L154.688 117.5" stroke="#FFE600" stroke-width="4.75" stroke-linecap="round" stroke-linejoin="round"/>
<path d="M158.25 124.625L154.688 124.625" stroke="#FFE600" stroke-width="4.75" stroke-linecap="round" stroke-linejoin="round"/>
<path d="M158.25 131.75L154.688 131.75" stroke="#FFE600" stroke-width="4.75" stroke-linecap="round" stroke-linejoin="round"/>
<path d="M148.75 141.25L148.75 137.688" stroke="#FFE600" stroke-width="4.75" stroke-linecap="round" stroke-linejoin="round"/>
<path d="M141.625 141.25L141.625 137.688" stroke="#FFE600" stroke-width="4.75" stroke-linecap="round" stroke-linejoin="round"/>
<path d="M134.5 141.25L134.5 137.688" stroke="#FFE600" stroke-width="4.75" stroke-linecap="round" stroke-linejoin="round"/>
<path d="M127.375 141.25L127.375 137.688" stroke="#FFE600" stroke-width="4.75" stroke-linecap="round" stroke-linejoin="round"/>
</svg>
