<svg width="218" height="125" viewBox="0 0 218 125" fill="none" xmlns="http://www.w3.org/2000/svg">
<path d="M29.4998 95.875C34.9306 95.875 39.3332 91.4725 39.3332 86.0417C39.3332 80.6109 34.9306 76.2084 29.4998 76.2084C24.069 76.2084 19.6665 80.6109 19.6665 86.0417C19.6665 91.4725 24.069 95.875 29.4998 95.875Z" stroke="#FFE600" stroke-width="5.664" stroke-linejoin="round"/>
<path d="M86.0418 95.875C91.4726 95.875 95.8752 91.4725 95.8752 86.0417C95.8752 80.6109 91.4726 76.2084 86.0418 76.2084C80.611 76.2084 76.2085 80.6109 76.2085 86.0417C76.2085 91.4725 80.611 95.875 86.0418 95.875Z" stroke="#FFE600" stroke-width="5.664" stroke-linejoin="round"/>
<path d="M19.6665 86.0416H4.9165V27.0416H76.2082V86.0416H39.3332" stroke="#FFE600" stroke-width="5.664" stroke-linecap="round" stroke-linejoin="round"/>
<path d="M76.2085 86.0417V44.25H97.2799L113.083 65.1458V86.0417H97.8693" stroke="#FFE600" stroke-width="5.664" stroke-linecap="round" stroke-linejoin="round"/>
<path d="M124.813 110.64L106 107.559L158.04 86.115L179.147 89.5707L124.813 110.64Z" stroke="#FFE600" stroke-width="6" stroke-linejoin="round"/>
<path d="M141.489 113.37L122.675 110.29L174.716 88.8452L195.823 92.3009L141.489 113.37Z" stroke="#FFE600" stroke-width="6" stroke-linejoin="round"/>
<path d="M160.665 116.509L141.852 113.429L193.892 91.9846L215 95.4403L160.665 116.509Z" stroke="#FFE600" stroke-width="6" stroke-linejoin="round"/>
</svg>
