<svg width="114" height="114" viewBox="0 0 114 114" fill="none" xmlns="http://www.w3.org/2000/svg">
<path d="M77.1525 58.1525C82.31 52.9951 85.5 45.8701 85.5 38C85.5 22.2599 72.7401 9.5 57 9.5C41.2599 9.5 28.5 22.2599 28.5 38C28.5 45.8701 31.69 52.9951 36.8475 58.1525" stroke="#FFE600" stroke-width="6" stroke-linecap="round"/>
<path d="M14.25 104.5L16.625 92.625L42.75 73.625L57 87.875L71.25 73.625L97.375 92.625L99.75 104.5" stroke="#FFE600" stroke-width="6" stroke-linecap="round" stroke-linejoin="round"/>
<path d="M30.8589 49.8919C30.8889 40.1292 32.4775 32.9985 35.6246 28.4999C40.3453 21.752 43.6686 22.248 46.0874 23.299C48.5061 24.3501 49.9283 31.2176 53.9682 33.1971C58.0081 35.1767 68.3466 35.421 71.8877 37.8023C75.4288 40.1836 83.5272 44.6129 81.5084 52.1751" stroke="#FFE600" stroke-width="6"/>
<path d="M84.4683 32C85.8739 38.847 84.3175 53.6932 79 60C75.0254 64.7141 70.5774 68.4237 61.5 64.5" stroke="#FFE600" stroke-width="6" stroke-linecap="round"/>
</svg>
