<svg width="106" height="106" viewBox="0 0 106 106" fill="none" xmlns="http://www.w3.org/2000/svg">
<path d="M92.2631 45.5063C92.8213 41.7615 92.6382 37.9274 91.7139 34.2411C90.4928 29.3714 87.9781 24.7594 84.1699 20.9511C80.3616 17.1429 75.7496 14.6282 70.8799 13.4071C67.1936 12.4828 63.3596 12.2997 59.6147 12.8579" stroke="#FFE600" stroke-width="6" stroke-linecap="round" stroke-linejoin="round"/>
<path d="M75.502 43.7327C76.1 39.7211 74.8549 35.4878 71.7667 32.3996C68.6785 29.3114 64.4451 28.0663 60.4335 28.6643" stroke="#FFE600" stroke-width="6" stroke-linecap="round" stroke-linejoin="round"/>
<path d="M33.1685 19.4205C33.8951 19.4205 34.5645 19.8146 34.9172 20.4498L41.6286 32.5393C41.9489 33.1163 41.9639 33.8142 41.6688 34.4045L35.8943 45.9535C35.8943 45.9535 37.4025 53.7079 43.7149 60.0203C50.0273 66.3326 57.7557 67.8149 57.7557 67.8149L69.304 62.0407C69.8947 61.7454 70.5931 61.7607 71.1703 62.0816L83.2865 68.8178C83.9211 69.1706 84.3147 69.8397 84.3147 70.5658L84.3147 89.31C84.3147 91.8937 81.9245 93.7733 79.4466 93.0416C69.6689 90.1547 47.4599 82.5035 34.3458 69.3894C21.2317 56.2753 13.5805 34.0663 10.6936 24.2886C9.96193 21.8107 11.8415 19.4205 14.4252 19.4205L33.1685 19.4205Z" stroke="#FFE600" stroke-width="6" stroke-linejoin="round"/>
</svg>
