<svg width="42" height="42" viewBox="0 0 42 42" fill="none" xmlns="http://www.w3.org/2000/svg">
<path fill-rule="evenodd" clip-rule="evenodd" d="M39.4219 20.1988C39.4219 8.3762 35.2572 2.95312 21.375 2.95312C7.49279 2.95312 3.32812 8.3762 3.32812 20.1988C3.32812 28.6125 5.43741 33.7851 11.6575 36.0685V40.0491C11.6575 41.5142 13.4958 42.1835 14.4481 41.065L17.6578 37.2951C18.8114 37.395 20.0489 37.4445 21.375 37.4445C35.2572 37.4445 39.4219 32.0214 39.4219 20.1988ZM18.4247 34.5758C19.3449 34.6489 20.3272 34.6851 21.375 34.6851C33.1215 34.6851 36.6454 30.1298 36.6454 20.1988C36.6454 10.2678 33.1215 5.71243 21.375 5.71243C9.62851 5.71243 6.10457 10.2678 6.10457 20.1988C6.10457 27.2183 7.86518 31.5522 13.0457 33.4899V39.387C13.0457 39.9011 13.6907 40.136 14.0249 39.7435L18.4247 34.5758Z" fill="#BFC8D0"/>
<path d="M21.375 33.7034C20.3136 33.7034 19.3185 33.6666 18.3863 33.5923L13.9294 38.8471C13.5909 39.2461 12.9375 39.0074 12.9375 38.4846V32.488C7.68973 30.5176 5.90625 26.1107 5.90625 18.9728C5.90625 8.87438 9.47596 4.24219 21.375 4.24219C33.274 4.24219 36.8438 8.87438 36.8438 18.9728C36.8438 29.0712 33.274 33.7034 21.375 33.7034Z" fill="#9179EE"/>
<path fill-rule="evenodd" clip-rule="evenodd" d="M39.4219 18.9097C39.4219 7.08714 35.2572 1.66406 21.375 1.66406C7.49279 1.66406 3.32812 7.08714 3.32812 18.9097C3.32812 27.3235 5.43741 32.4961 11.6575 34.7794V38.76C11.6575 40.2252 13.4958 40.8944 14.4481 39.7759L17.6578 36.0061C18.8114 36.1059 20.0489 36.1554 21.375 36.1554C35.2572 36.1554 39.4219 30.7323 39.4219 18.9097ZM18.4247 33.2868C19.3449 33.3598 20.3272 33.3961 21.375 33.3961C33.1215 33.3961 36.6454 28.8407 36.6454 18.9097C36.6454 8.97875 33.1215 4.42337 21.375 4.42337C9.62851 4.42337 6.10457 8.97875 6.10457 18.9097C6.10457 25.9293 7.86518 30.2631 13.0457 32.2009V38.098C13.0457 38.6121 13.6907 38.8469 14.0249 38.4544L18.4247 33.2868Z" fill="white"/>
<path d="M15.6299 16.0171L15.5775 16.0461L15.5314 16.0843C15.1748 16.3793 14.6404 17.1888 15.1085 18.1894C15.4986 19.0232 16.3679 20.7259 17.8952 22.0089C19.3888 23.2636 20.9838 23.9385 22.0314 24.1594L22.0972 24.1733H22.1573C22.1602 24.1736 22.1664 24.1743 22.1766 24.1757C22.2016 24.1792 22.2316 24.1844 22.2789 24.1926L22.39 23.5578L22.2789 24.1926C22.287 24.1941 22.2954 24.1955 22.3042 24.1971C22.6266 24.2541 23.3993 24.3908 24.047 23.7454C24.4629 23.331 24.8424 22.8991 25.0056 22.7048C25.1204 22.6001 25.4944 22.3833 25.9674 22.5432C26.8633 22.8461 27.9285 23.5293 28.4433 23.8757C28.842 24.144 29.7442 24.7904 30.1509 25.0841L30.1511 25.0843C30.185 25.1087 30.2642 25.1885 30.3071 25.2995C30.3413 25.3882 30.3598 25.5102 30.2774 25.6866C30.1245 26.0138 29.6592 26.6383 29.0292 27.1847C28.3876 27.7411 27.7201 28.0898 27.1851 28.0898C27.187 28.0898 27.1851 28.0896 27.179 28.0888C27.1552 28.0856 27.0666 28.0736 26.8911 28.0342C26.6939 27.9899 26.4274 27.9204 26.1018 27.8225C25.4513 27.6267 24.5783 27.3215 23.5702 26.8878C21.5522 26.0197 19.0119 24.645 16.6336 22.6207C15.1376 21.3473 13.7262 19.5866 12.6272 17.9386C11.5189 16.2767 10.7776 14.8037 10.5758 14.1235L10.5617 14.0759L10.5404 14.031C10.4902 13.9249 10.4194 13.6981 10.418 13.441C10.4166 13.1926 10.4789 12.9553 10.6431 12.7585C11.1845 12.1096 11.7578 11.472 13.0225 10.8602C13.1403 10.8032 13.3249 10.7529 13.5062 10.75C13.6922 10.747 13.7891 10.7932 13.8278 10.8272C14.3118 11.2515 15.0618 12.0005 15.5672 12.6406C15.8283 12.9713 16.1438 13.3913 16.4067 13.7563C16.5381 13.9388 16.6541 14.1043 16.7424 14.2359C16.7866 14.3019 16.8219 14.3564 16.8479 14.3985C16.8657 14.4273 16.8752 14.4442 16.8793 14.4514C16.8814 14.4587 16.8914 14.49 16.9001 14.5469C16.9111 14.6184 16.9163 14.7064 16.9089 14.7984C16.8936 14.9867 16.8317 15.1378 16.7204 15.2398C16.3428 15.5856 15.8307 15.9059 15.6299 16.0171ZM21.7316 8.7747C21.7319 8.77434 21.7323 8.77397 21.7327 8.77359C21.742 8.76489 21.761 8.75391 21.7908 8.75391C26.9367 8.75391 31.0409 12.6699 31.043 17.4203C31.0421 17.4214 31.0408 17.423 31.0387 17.425C31.0295 17.4337 31.0104 17.4447 30.9806 17.4447C30.9508 17.4447 30.9317 17.4337 30.9225 17.425C30.9204 17.423 30.919 17.4214 30.9182 17.4203C30.9162 12.6204 26.7931 8.79549 21.7908 8.79549C21.761 8.79549 21.742 8.7845 21.7327 8.7758C21.7323 8.77542 21.7319 8.77505 21.7316 8.7747ZM21.7327 14.0984C21.7323 14.098 21.7319 14.0976 21.7316 14.0973C21.7319 14.0969 21.7323 14.0966 21.7327 14.0962C21.742 14.0875 21.761 14.0765 21.7908 14.0765C23.8134 14.0765 25.3857 15.6094 25.3877 17.4203C25.3869 17.4214 25.3856 17.423 25.3835 17.425C25.3742 17.4337 25.3552 17.4447 25.3254 17.4447C25.2955 17.4447 25.2765 17.4337 25.2672 17.425C25.2652 17.423 25.2638 17.4214 25.263 17.4203C25.2609 15.56 23.6699 14.1181 21.7908 14.1181C21.761 14.1181 21.742 14.1071 21.7327 14.0984ZM21.7327 11.4371C21.7323 11.4367 21.7319 11.4363 21.7316 11.436C21.7319 11.4356 21.7323 11.4353 21.7327 11.4349C21.742 11.4262 21.761 11.4152 21.7908 11.4152C25.3751 11.4152 28.2133 14.1397 28.2153 17.4203C28.2145 17.4214 28.2132 17.423 28.2111 17.425C28.2018 17.4337 28.1828 17.4447 28.153 17.4447C28.1232 17.4447 28.1041 17.4337 28.0949 17.425C28.0936 17.4238 28.0926 17.4227 28.0918 17.4218C28.0913 17.4213 28.0909 17.4207 28.0906 17.4203C28.0885 14.0902 25.2315 11.4568 21.7908 11.4568C21.761 11.4568 21.742 11.4458 21.7327 11.4371Z" fill="white" stroke="white" stroke-width="1.28906" stroke-linecap="round"/>
</svg>
