<svg width="43" height="42" viewBox="0 0 43 42" fill="none" xmlns="http://www.w3.org/2000/svg">
<path fill-rule="evenodd" clip-rule="evenodd" d="M21.5 40.3359C31.467 40.3359 39.5469 32.2561 39.5469 22.2891C39.5469 12.322 31.467 4.24219 21.5 4.24219C11.533 4.24219 3.45312 12.322 3.45312 22.2891C3.45312 25.5257 4.30519 28.5634 5.79725 31.19L3.45312 40.3359L12.8824 38.1494C15.4432 39.5437 18.3791 40.3359 21.5 40.3359ZM21.5 37.5595C29.9336 37.5595 36.7704 30.7227 36.7704 22.2891C36.7704 13.8554 29.9336 7.01863 21.5 7.01863C13.0664 7.01863 6.22957 13.8554 6.22957 22.2891C6.22957 25.5453 7.24877 28.5635 8.98557 31.0421L7.61779 36.1713L12.8374 34.8664C15.2988 36.5649 18.2832 37.5595 21.5 37.5595Z" fill="#BFC8D0"/>
<path d="M36.9688 21C36.9688 29.5432 30.0432 36.4688 21.5 36.4688C18.2415 36.4688 15.2183 35.4612 12.7249 33.7406L7.4375 35.0625L8.82305 29.8667C7.06369 27.3559 6.03125 24.2985 6.03125 21C6.03125 12.4568 12.9568 5.53125 21.5 5.53125C30.0432 5.53125 36.9688 12.4568 36.9688 21Z" fill="url(#paint0_linear)"/>
<path fill-rule="evenodd" clip-rule="evenodd" d="M21.5 39.0469C31.467 39.0469 39.5469 30.967 39.5469 21C39.5469 11.033 31.467 2.95312 21.5 2.95312C11.533 2.95312 3.45312 11.033 3.45312 21C3.45312 24.2367 4.30519 27.2743 5.79725 29.9009L3.45312 39.0469L12.8824 36.8604C15.4432 38.2547 18.3791 39.0469 21.5 39.0469ZM21.5 36.2704C29.9336 36.2704 36.7704 29.4336 36.7704 21C36.7704 12.5664 29.9336 5.72957 21.5 5.72957C13.0664 5.72957 6.22957 12.5664 6.22957 21C6.22957 24.2563 7.24877 27.2745 8.98557 29.753L7.61779 34.8822L12.8374 33.5773C15.2988 35.2758 18.2832 36.2704 21.5 36.2704Z" fill="white"/>
<path d="M16.9881 12.621C16.559 11.7592 15.9007 11.8355 15.2358 11.8355C14.0474 11.8355 12.1943 13.259 12.1943 15.9082C12.1943 18.0794 13.1511 20.4561 16.375 24.0115C19.4863 27.4426 23.5744 29.2176 26.9682 29.1572C30.3621 29.0967 31.0603 26.1762 31.0603 25.1899C31.0603 24.7528 30.7891 24.5347 30.6022 24.4754C29.4456 23.9204 27.3126 22.8861 26.8272 22.6918C26.3419 22.4975 26.0885 22.7603 25.9309 22.9033C25.4908 23.3228 24.6183 24.5589 24.3196 24.8369C24.0209 25.1149 23.5755 24.9742 23.3902 24.8691C22.7082 24.5954 20.859 23.7729 19.385 22.3441C17.5621 20.577 17.4551 19.969 17.1117 19.4278C16.8369 18.9949 17.0385 18.7292 17.1391 18.6131C17.5319 18.1599 18.0742 17.4603 18.3174 17.1126C18.5606 16.7649 18.3675 16.237 18.2517 15.9082C17.7534 14.4942 17.3313 13.3105 16.9881 12.621Z" fill="white"/>
<defs>
<linearGradient id="paint0_linear" x1="35.0352" y1="9.39844" x2="6.03125" y2="36.4687" gradientUnits="userSpaceOnUse">
<stop stop-color="#5BD066"/>
<stop offset="1" stop-color="#27B43E"/>
</linearGradient>
</defs>
</svg>
