<svg width="149" height="139" viewBox="0 0 149 139" fill="none" xmlns="http://www.w3.org/2000/svg">
<circle cx="55" cy="35.7916" r="20.625" stroke="#FFE600" stroke-width="6" stroke-linejoin="round"/>
<path d="M11.4585 106.833C11.4585 87.4974 25.6095 69.4506 37.5835 65.5834C37.5835 65.5834 48.4689 77.1849 55.0002 84.9193L72.4168 65.5834C82.2137 66.8724 98.5418 87.4974 98.5418 106.833" stroke="#FFE600" stroke-width="6" stroke-linejoin="round"/>
<path d="M4.5835 106.833L105.417 106.833" stroke="#FFE600" stroke-width="6" stroke-linecap="round" stroke-linejoin="round"/>
<path d="M53.9756 6.03799C70.7561 5.22462 75.6504 17.6738 76 24H40.3415H33C33 18.3516 37.1951 6.85137 53.9756 6.03799Z" fill="#FFE600" stroke="#FFE600" stroke-width="10.42"/>
<path d="M142.417 86.3334C142.417 97.241 133.574 106.083 122.667 106.083C119.331 106.083 116.188 105.256 113.433 103.796L84.8123 132.417L76.5832 124.188L105.204 95.5672C103.743 92.8116 102.917 89.6691 102.917 86.3334C102.917 75.4257 111.759 66.5834 122.667 66.5834C126.002 66.5834 129.145 67.4103 131.9 68.8704L119.375 81.3959L127.604 89.625L140.129 77.0996C141.59 79.8551 142.417 82.9977 142.417 86.3334Z" stroke="#FFE600" stroke-width="6" stroke-linecap="round" stroke-linejoin="round"/>
</svg>
